<svg width="58" height="58" viewBox="0 0 58 58" fill="none" xmlns="http://www.w3.org/2000/svg">
<g filter="url(#filter0_d)">
<circle cx="29" cy="27" r="25" fill="#4E42DA"/>
</g>
<path fill-rule="evenodd" clip-rule="evenodd" d="M27.7918 26.4673C27.6987 26.3746 27.5482 26.3746 27.455 26.4671L26.7807 27.1381C26.6878 27.2308 26.6878 27.3808 26.781 27.4736L28.6995 29.383C28.7685 29.4516 28.8578 29.5419 28.949 29.5419C29.0402 29.5419 29.1392 29.4516 29.2082 29.383L32.6025 26.0387C32.6957 25.946 32.6957 25.7958 32.6026 25.7032L31.9285 25.0322C31.8353 24.9397 31.6848 24.9397 31.5916 25.0325L28.9538 27.6236L27.7918 26.4673Z" fill="white"/>
<path fill-rule="evenodd" clip-rule="evenodd" d="M28.9835 30.9955C27.0312 30.9955 25.4485 29.4204 25.4485 27.4774C25.4485 25.5344 27.0312 23.9592 28.9835 23.9592C30.9357 23.9592 32.5184 25.5344 32.5184 27.4774C32.5184 29.4204 30.9357 30.9955 28.9835 30.9955ZM35.0732 26.818C35.0536 26.6411 34.9005 26.5102 34.7222 26.5162C34.1544 26.5366 33.6292 26.2008 33.4158 25.6817C33.2098 25.1799 33.3605 24.5345 33.7609 24.1716C33.8927 24.0511 33.9086 23.8518 33.7996 23.7114C33.5121 23.3466 33.1824 23.0149 32.8195 22.725C32.6791 22.6124 32.4749 22.6282 32.3539 22.7612C31.9678 23.1858 31.3533 23.3233 30.8255 23.1029C30.3409 22.9008 30.0138 22.4186 29.998 21.8949V19.7966C29.998 19.6964 29.941 19.6047 29.8509 19.56L28.385 18.8321C28.2084 18.7444 28.0008 18.8722 28.0008 19.0686V21.8206C27.9977 22.376 27.6694 22.8683 27.1618 23.0752C26.6396 23.2875 26.0306 23.1505 25.6469 22.7342C25.5264 22.6032 25.3248 22.5871 25.1847 22.6971C24.8198 22.9831 24.4901 23.3081 24.2044 23.6631C24.0925 23.802 24.1081 24.006 24.2421 24.1266C24.6466 24.49 24.7969 25.1429 24.5854 25.6474C24.3635 26.1723 23.8289 26.5035 23.2551 26.4709C23.0748 26.4603 22.9181 26.5916 22.8972 26.7704C22.8442 27.2258 22.8426 27.6854 22.8936 28.1422C22.9132 28.3188 23.0662 28.45 23.2443 28.4441C23.8124 28.4243 24.3376 28.7594 24.5515 29.2791C24.756 29.7775 24.6068 30.4259 24.2059 30.7887C24.0739 30.9085 24.0577 31.109 24.1673 31.2488C24.4554 31.6142 24.7853 31.9465 25.1473 32.2352C25.2879 32.3477 25.4919 32.3312 25.6127 32.1989C25.999 31.7744 26.6132 31.6375 27.1415 31.858C27.6343 32.0638 27.9856 32.5668 28.0008 33.1463V33.6003C28.0008 33.6937 28.0538 33.7792 28.1379 33.8209L29.6396 34.5666C29.8043 34.6483 29.998 34.5292 29.998 34.3461V33.1543C29.9982 33.1494 29.9992 33.1446 29.9992 33.1398C29.9856 32.6087 30.2819 32.099 30.8048 31.8849C31.327 31.6719 31.9357 31.8091 32.32 32.226C32.4405 32.3564 32.6417 32.3731 32.7815 32.263C33.1442 31.9798 33.474 31.6546 33.7621 31.2985C33.8753 31.1587 33.8594 30.9555 33.7252 30.8343C33.3199 30.4694 33.1697 29.8166 33.3817 29.3142C33.603 28.7878 34.1375 28.4567 34.7115 28.4891C34.8918 28.4997 35.049 28.3681 35.0695 28.1899C35.0968 27.9568 35.1104 27.7224 35.1104 27.4874C35.1104 27.2643 35.0981 27.0412 35.0732 26.818Z" fill="white"/>
<path fill-rule="evenodd" clip-rule="evenodd" d="M28.0008 16.1952C28.0008 16.2954 28.0578 16.3871 28.1478 16.4319L38.0423 21.3459V31.0717C38.0423 31.1719 38.0992 31.2635 38.1893 31.3081L39.7268 32.0715C39.9034 32.1593 40.1111 32.0315 40.1111 31.835V20.7089C40.1111 20.3187 39.8894 19.962 39.5383 19.7878L28.385 14.2504C28.2084 14.1627 28.0008 14.2906 28.0008 14.487V16.1952Z" fill="white"/>
<path fill-rule="evenodd" clip-rule="evenodd" d="M29.9993 37.2491C29.9993 37.149 29.9423 37.0574 29.8522 37.0126L19.9577 32.0985V22.3727C19.9577 22.2725 19.9008 22.1809 19.8107 22.1362L18.2732 21.3728C18.0966 21.2851 17.8889 21.4129 17.8889 21.6094V32.7354C17.8889 33.1257 18.1106 33.4824 18.4617 33.6566L29.6151 39.1941C29.7916 39.2818 29.9993 39.1539 29.9993 38.9574V37.2491Z" fill="white"/>
<defs>
<filter id="filter0_d" x="0" y="0" width="58" height="58" filterUnits="userSpaceOnUse" color-interpolation-filters="sRGB">
<feFlood flood-opacity="0" result="BackgroundImageFix"/>
<feColorMatrix in="SourceAlpha" type="matrix" values="0 0 0 0 0 0 0 0 0 0 0 0 0 0 0 0 0 0 127 0"/>
<feOffset dy="2"/>
<feGaussianBlur stdDeviation="2"/>
<feColorMatrix type="matrix" values="0 0 0 0 0 0 0 0 0 0 0 0 0 0 0 0 0 0 0.2 0"/>
<feBlend mode="normal" in2="BackgroundImageFix" result="effect1_dropShadow"/>
<feBlend mode="normal" in="SourceGraphic" in2="effect1_dropShadow" result="shape"/>
</filter>
</defs>
</svg>
