<svg width="270" height="160" viewBox="0 0 270 160" fill="none" xmlns="http://www.w3.org/2000/svg">
<g filter="url(#filter0_d)">
<rect x="10" y="6" width="250" height="140" rx="5" fill="#F7F7F7"/>
</g>
<rect x="37" y="13" width="50" height="4" rx="2" fill="#E1E1E1"/>
<rect x="37" y="20" width="90" height="4" rx="2" fill="#E1E1E1"/>
<line x1="10" y1="31.5" x2="260" y2="31.5" stroke="#E1E1E1"/>
<circle cx="24.5" cy="18.5" r="6.5" fill="#CFCDFE"/>
<rect x="18" y="39" width="234" height="102" fill="white"/>
<rect x="21" y="42" width="13" height="4" rx="2" fill="#E1E1E1"/>
<rect x="21" y="54" width="13" height="4" rx="2" fill="#D46E78"/>
<rect x="39" y="42" width="14" height="4" rx="2" fill="#E1E1E1"/>
<rect x="39" y="54" width="71" height="4" rx="2" fill="#E1E1E1"/>
<rect x="152" y="54" width="57" height="4" rx="2" fill="#E1E1E1"/>
<rect x="240.5" y="54.5" width="4" height="3" rx="1.5" stroke="#E1E1E1"/>
<rect x="120" y="54" width="25" height="4" rx="2" fill="#CFCDFE"/>
<rect x="218" y="54" width="8" height="4" rx="2" fill="#CFCDFE"/>
<rect x="21" y="65" width="13" height="4" rx="2" fill="#D46E78"/>
<rect x="39" y="65" width="71" height="4" rx="2" fill="#E1E1E1"/>
<rect x="152" y="65" width="57" height="4" rx="2" fill="#E1E1E1"/>
<rect x="240.5" y="65.5" width="4" height="3" rx="1.5" stroke="#E1E1E1"/>
<rect x="120" y="65" width="25" height="4" rx="2" fill="#CFCDFE"/>
<rect x="218" y="65" width="8" height="4" rx="2" fill="#CFCDFE"/>
<rect x="120" y="42" width="14" height="4" rx="2" fill="#E1E1E1"/>
<rect x="152" y="42" width="30" height="4" rx="2" fill="#E1E1E1"/>
<rect x="215" y="42" width="14" height="4" rx="2" fill="#E1E1E1"/>
<rect x="235" y="42" width="14" height="4" rx="2" fill="#E1E1E1"/>
<rect x="18" y="49" width="234" height="1" fill="#CFCDFE"/>
<rect x="21" y="76" width="13" height="4" rx="2" fill="#F0A571"/>
<rect x="39" y="76" width="71" height="4" rx="2" fill="#E1E1E1"/>
<rect x="152" y="76" width="57" height="4" rx="2" fill="#E1E1E1"/>
<rect x="240.5" y="76.5" width="4" height="3" rx="1.5" stroke="#E1E1E1"/>
<rect x="120" y="76" width="25" height="4" rx="2" fill="#CFCDFE"/>
<rect x="218" y="76" width="8" height="4" rx="2" fill="#CFCDFE"/>
<rect x="21" y="88" width="13" height="4" rx="2" fill="#F0A571"/>
<rect x="39" y="88" width="71" height="4" rx="2" fill="#E1E1E1"/>
<rect x="152" y="88" width="57" height="4" rx="2" fill="#E1E1E1"/>
<rect x="240.5" y="88.5" width="4" height="3" rx="1.5" stroke="#E1E1E1"/>
<rect x="120" y="88" width="25" height="4" rx="2" fill="#CFCDFE"/>
<rect x="218" y="88" width="8" height="4" rx="2" fill="#CFCDFE"/>
<rect x="21" y="99" width="13" height="4" rx="2" fill="#F4D377"/>
<rect x="39" y="99" width="71" height="4" rx="2" fill="#E1E1E1"/>
<rect x="152" y="99" width="57" height="4" rx="2" fill="#E1E1E1"/>
<rect x="240.5" y="99.5" width="4" height="3" rx="1.5" stroke="#E1E1E1"/>
<rect x="120" y="99" width="25" height="4" rx="2" fill="#CFCDFE"/>
<rect x="218" y="99" width="8" height="4" rx="2" fill="#CFCDFE"/>
<rect x="21" y="110" width="13" height="4" rx="2" fill="#F4D377"/>
<rect x="39" y="110" width="71" height="4" rx="2" fill="#E1E1E1"/>
<rect x="152" y="110" width="57" height="4" rx="2" fill="#E1E1E1"/>
<rect x="240.5" y="110.5" width="4" height="3" rx="1.5" stroke="#E1E1E1"/>
<rect x="120" y="110" width="25" height="4" rx="2" fill="#CFCDFE"/>
<rect x="218" y="110" width="8" height="4" rx="2" fill="#CFCDFE"/>
<rect x="21" y="121" width="13" height="4" rx="2" fill="#C0C1C2"/>
<rect x="39" y="121" width="71" height="4" rx="2" fill="#E1E1E1"/>
<rect x="152" y="121" width="57" height="4" rx="2" fill="#E1E1E1"/>
<rect x="240.5" y="121.5" width="4" height="3" rx="1.5" stroke="#E1E1E1"/>
<rect x="120" y="121" width="25" height="4" rx="2" fill="#CFCDFE"/>
<rect x="218" y="121" width="8" height="4" rx="2" fill="#CFCDFE"/>
<rect x="21" y="132" width="13" height="4" rx="2" fill="#C0C1C2"/>
<rect x="39" y="132" width="71" height="4" rx="2" fill="#E1E1E1"/>
<rect x="152" y="132" width="57" height="4" rx="2" fill="#E1E1E1"/>
<rect x="240.5" y="132.5" width="4" height="3" rx="1.5" stroke="#E1E1E1"/>
<rect x="120" y="132" width="25" height="4" rx="2" fill="#CFCDFE"/>
<rect x="218" y="132" width="8" height="4" rx="2" fill="#CFCDFE"/>
<defs>
<filter id="filter0_d" x="0" y="0" width="270" height="160" filterUnits="userSpaceOnUse" color-interpolation-filters="sRGB">
<feFlood flood-opacity="0" result="BackgroundImageFix"/>
<feColorMatrix in="SourceAlpha" type="matrix" values="0 0 0 0 0 0 0 0 0 0 0 0 0 0 0 0 0 0 127 0"/>
<feOffset dy="4"/>
<feGaussianBlur stdDeviation="5"/>
<feColorMatrix type="matrix" values="0 0 0 0 0 0 0 0 0 0 0 0 0 0 0 0 0 0 0.2 0"/>
<feBlend mode="normal" in2="BackgroundImageFix" result="effect1_dropShadow"/>
<feBlend mode="normal" in="SourceGraphic" in2="effect1_dropShadow" result="shape"/>
</filter>
</defs>
</svg>
