<svg
    width="110"
    height="65"
    viewBox="0 0 110 65"
    fill="none"
    xmlns="http://www.w3.org/2000/svg"
>
    <path
    d="M14.5849 7.09644C18.2971 7.09644 21.8573 8.56077 24.4823 11.1673C27.1074 13.7738 28.5819 17.3091 28.5819 20.9953V45.8094H14.5849C10.8727 45.8094 7.31248 44.3449 4.68752 41.7386C2.06257 39.132 0.587891 35.5967 0.587891 31.9106V20.9953C0.587891 17.3091 2.06257 13.7738 4.68752 11.1673C7.31248 8.56077 10.8727 7.09644 14.5849 7.09644Z"
    fill="#EB5D5E"
    />
    <path
    d="M50.8608 0V45.8094H36.8638V13.8988C36.8638 10.2126 38.3384 6.67741 40.9634 4.07087C43.5884 1.46434 47.1486 0 50.8608 0Z"
    fill="#EB5D5E"
    />
    <path
    d="M73.139 1.99182e-07V45.8094H59.1396V13.8988C59.1396 12.0734 59.5017 10.2659 60.2052 8.57944C60.9088 6.89299 61.94 5.36071 63.2399 4.07005C64.5401 2.77939 66.0834 1.75565 67.7817 1.05731C69.4802 0.358967 71.3007 -0.000308826 73.139 1.99182e-07Z"
    fill="#EB5D5E"
    />
    <path
    d="M28.5819 25.4494V45.8094H14.585V39.3482C14.585 35.6621 16.0596 32.1268 18.6846 29.5202C21.3095 26.9136 24.8698 25.4494 28.5819 25.4494Z"
    fill="#FFAF02"
    />
    <path
    d="M50.8608 25.4494H36.8638V45.8094H50.8608V25.4494Z"
    fill="#648FFF"
    />
    <path
    d="M109.412 7.09644C105.7 7.09644 102.14 8.56077 99.5149 11.1673C96.8899 13.7738 95.415 17.3091 95.415 20.9953V25.4494H109.412V7.09644Z"
    fill="#EB5D5E"
    />
    <path
    d="M73.1367 25.4494H59.1396V45.8094H73.1367V25.4494Z"
    fill="#785EF0"
    />
    <path
    d="M95.4155 20.9953C95.4155 17.3091 93.9409 13.7738 91.3159 11.1673C88.6909 8.56077 85.1309 7.09644 81.4185 7.09644V17.6682C81.4135 20.4432 82.25 23.1554 83.8188 25.4518H95.4155"
    fill="#785EF0"
    />
    <path
    d="M83.8164 25.4494C85.0974 27.3343 86.825 28.8781 88.8475 29.9449C90.8699 31.0115 93.1255 31.5687 95.4154 31.567V25.4494H83.8164Z"
    fill="#648FFF"
    />
    <path
    d="M95.4155 45.8094V25.4494H109.413V31.9106C109.413 35.5967 107.938 39.132 105.313 41.7386C102.688 44.3452 99.1277 45.8094 95.4155 45.8094Z"
    fill="#FFAF02"
    />
    <path
    d="M17.777 64.88H16.39L16.0073 63.7115H13.7211L13.348 64.88H11.9609L14.142 58.6868C14.2376 58.4715 14.3428 58.3226 14.4576 58.2402C14.5788 58.1579 14.7255 58.1169 14.8977 58.1169C15.0699 58.1169 15.207 58.1548 15.309 58.2308C15.4174 58.3068 15.5131 58.4588 15.596 58.6868L17.777 64.88ZM15.7012 62.6002L14.8977 59.9217L14.0559 62.6002H15.7012ZM21.0265 64.88H19.7256V59.3327L18.8933 59.0287V58.1073H20.0221C20.443 58.1073 20.714 58.1833 20.8352 58.3353C20.9627 58.4873 21.0265 58.788 21.0265 59.2377V64.88ZM25.221 64.88H23.92V59.3327L23.0878 59.0287V58.1073H24.2165C24.6374 58.1073 24.9084 58.1833 25.0298 58.3353C25.1572 58.4873 25.221 58.788 25.221 59.2377V64.88ZM31.7496 58.1169L29.7023 62.1064V64.88H28.3822V62.1064L26.3351 58.1169H27.7796L29.0519 60.8431L30.3051 58.1169H31.7496Z"
    fill="#333333"
    />
    <path
    d="M50.4424 61.6273V60.7913C50.4424 59.9111 50.6751 59.224 51.1407 58.7301C51.6061 58.2362 52.2504 57.9892 53.0728 57.9892C53.8955 57.9892 54.5557 58.2362 55.0531 58.7301C55.4038 59.0783 55.5791 59.6009 55.5791 60.2974H54.3356C54.3356 59.544 53.9306 59.1671 53.1207 59.1671C52.8785 59.1671 52.6712 59.2146 52.4989 59.3096C52.3333 59.3981 52.2089 59.5028 52.126 59.623C52.043 59.7433 51.9793 59.9207 51.9345 60.155C51.8899 60.3892 51.8644 60.5856 51.8582 60.744C51.8518 60.9021 51.8485 61.1143 51.8485 61.3802C51.8485 61.6463 51.8485 61.8268 51.8485 61.9216C51.8549 62.0103 51.8644 62.1593 51.8772 62.3682C51.8963 62.5708 51.9219 62.7165 51.9537 62.8052C51.9921 62.8939 52.043 63.0078 52.1068 63.147C52.1769 63.2863 52.2629 63.3845 52.365 63.4416C52.6266 63.6061 52.9231 63.6885 53.2548 63.6885C53.8095 63.6885 54.2017 63.4541 54.4313 62.9856V62.5296H53.6086V61.4278H55.5696V63.4701C55.372 63.9322 55.0595 64.2807 54.6322 64.5148C54.205 64.7492 53.7202 64.8663 53.1783 64.8663C52.2153 64.8663 51.517 64.6005 51.0834 64.0685C50.6559 63.5301 50.4424 62.7165 50.4424 61.6273ZM61.9473 61.1143V61.6273C61.9473 62.7607 61.7305 63.584 61.2969 64.0969C60.8697 64.6099 60.1811 64.8663 59.2306 64.8663C58.2804 64.8663 57.5918 64.6099 57.1644 64.0969C56.7435 63.584 56.5331 62.7513 56.5331 61.5988V61.1049C56.5331 60.0536 56.7468 59.2715 57.1741 58.7586C57.6077 58.2456 58.2901 57.9892 59.2211 57.9892C60.1585 57.9892 60.8474 58.2489 61.2874 58.7682C61.7274 59.2875 61.9473 60.0694 61.9473 61.1143ZM60.6178 61.5988V61.2473C60.6178 60.6395 60.5412 60.155 60.3882 59.7941C60.2097 59.376 59.827 59.1671 59.2403 59.1671C58.6472 59.1671 58.2615 59.376 58.0828 59.7941C57.9361 60.136 57.8629 60.6205 57.8629 61.2473V61.5988C57.8629 62.4158 57.9776 62.9666 58.2072 63.2515C58.2965 63.372 58.4271 63.4765 58.5994 63.5649C58.778 63.6473 58.9885 63.6885 59.2306 63.6885C59.4794 63.6885 59.6898 63.6473 59.8621 63.5649C60.0341 63.4828 60.1683 63.3814 60.2638 63.2612C60.3595 63.1407 60.4329 62.9823 60.4839 62.7861C60.5732 62.4758 60.6178 62.08 60.6178 61.5988ZM67.8454 58.0463L65.7026 64.4294C65.5877 64.7207 65.3837 64.8663 65.0903 64.8663C64.7842 64.8663 64.5738 64.7207 64.4591 64.4294L62.3449 58.0463H63.7224L65.0903 62.4536L66.4583 58.0463H67.8454ZM73.0976 59.224H71.2704V64.8094H69.9408V59.224H68.1234V58.0463H73.0976V59.224ZM78.6198 64.8094H76.2093C75.4439 64.8094 74.9051 64.6795 74.5928 64.42C74.2866 64.1539 74.1335 63.6885 74.1335 63.0235V58.0463H78.6198V59.224H75.4631V60.8103H77.6729L77.5772 61.9882H75.4631V62.9287C75.4631 63.1946 75.5238 63.3783 75.6448 63.4795C75.7662 63.5809 75.9861 63.6315 76.305 63.6315H78.6198V64.8094ZM83.3691 62.1878H84.603C84.603 63.0489 84.3862 63.7106 83.9525 64.1729C83.5189 64.6353 82.9068 64.8663 82.1159 64.8663C80.375 64.8663 79.5044 63.8501 79.5044 61.8172V61.2473C79.5044 59.6452 79.9508 58.6414 80.8437 58.2362C81.1944 58.0715 81.6185 57.9892 82.1159 57.9892C82.8429 57.9892 83.4329 58.1887 83.8857 58.5878C84.3447 58.9802 84.5743 59.5501 84.5743 60.2974H83.3308C83.2606 59.9238 83.1362 59.6421 82.9578 59.452C82.7791 59.2621 82.4986 59.1671 82.1159 59.1671C81.6695 59.1671 81.338 59.3063 81.1211 59.5849C80.9681 59.7814 80.8787 60.1169 80.8531 60.592C80.8406 60.744 80.8342 60.9496 80.8342 61.2094V61.7983C80.8342 62.5266 80.9361 63.0235 81.1403 63.2896C81.3508 63.5555 81.6759 63.6885 82.1159 63.6885C82.5623 63.6885 82.8685 63.5682 83.0343 63.3275C83.2064 63.0807 83.318 62.7007 83.3691 62.1878ZM90.7963 64.8094H89.4665V62.0736H86.9699V64.8094H85.6401V58.0463H86.9699V60.9054H89.4665V58.0463H90.7963V64.8094Z"
    fill="#333333"
    />
    <path
    d="M41.6714 62.9365C42.4815 62.9365 43.1381 62.2845 43.1381 61.48C43.1381 60.6755 42.4815 60.0235 41.6714 60.0235C40.8614 60.0235 40.2046 60.6755 40.2046 61.48C40.2046 62.2845 40.8614 62.9365 41.6714 62.9365Z"
    fill="#333333"
    />
</svg>