<svg width="1440" height="781" viewBox="0 0 1440 781" fill="none" xmlns="http://www.w3.org/2000/svg">
<rect width="1440" height="781" fill="#FCFBFE"/>
<g opacity="0.7" filter="url(#filter0_f)">
<path d="M1440 781C1214.27 781 1117.42 781 719.5 781C321.579 781 101.929 781 -1 781C124.551 657.338 321.579 523 719.5 523C1117.42 523 1288.58 653.779 1440 781Z" fill="#4E42DA" fill-opacity="0.1"/>
</g>
<g clip-path="url(#clip0)">
<path fill-rule="evenodd" clip-rule="evenodd" d="M406.624 573.866C393.503 566.89 383.889 562.312 377.782 560.129C367.325 556.393 358.095 553.463 354.628 552.644C346.358 550.693 344.944 562.632 348.985 564.5C355.1 567.327 373.598 572.324 404.478 579.492L406.624 573.866Z" fill="#F8B577"/>
<path fill-rule="evenodd" clip-rule="evenodd" d="M329.93 575.72C345.159 577.095 356.046 577.583 362.59 577.184C373.795 576.501 383.496 575.539 386.996 574.901C395.344 573.381 390.491 561.14 385.945 560.991C379.064 560.764 360.068 563.546 328.958 569.339L329.93 575.72Z" fill="#F8B577"/>
<path fill-rule="evenodd" clip-rule="evenodd" d="M393.823 420.49C398.43 415.081 401.549 408.453 401.028 401.025C399.527 379.625 369.736 384.333 363.941 395.134C358.147 405.935 361.941 431.052 369.5 433C372.487 433.77 375.5 433 382.149 430.244V459H402.085L393.823 420.49Z" fill="#F8B577"/>
<path fill-rule="evenodd" clip-rule="evenodd" d="M395.667 425.307C395.667 410.358 407.26 402.771 405.95 396.782C405.076 392.789 402.747 390.305 398.964 389.332C397.007 381.415 390.695 378.048 380.029 379.23C364.03 381.004 355.783 387.648 360 402.268C363.876 402.268 368.529 399.866 375 402.268C377.053 403.03 379.145 402.035 380.029 406L384.5 410.358C387.338 405.653 389.797 404.753 392.556 406C395.314 407.247 392.62 409.447 391.115 414.259L392.556 425.307H395.667Z" fill="#191847"/>
<path fill-rule="evenodd" clip-rule="evenodd" d="M397.431 568.882C398.439 566.884 399.316 565.51 400.062 564.763C400.969 563.853 402.425 562.658 404.431 561.178C405.354 562.099 413.655 570.379 429.334 586.016C427.543 589.105 425.854 590.052 424.265 588.856C422.677 587.66 421.343 586.681 420.264 585.918L402.811 580.268C402.475 580.159 402.328 579.784 402.482 579.431C402.485 579.425 402.488 579.419 402.491 579.413L403.803 576.609C403.198 574.634 402.492 573.244 401.685 572.439C401.03 571.785 399.823 571.185 398.064 570.637C397.389 570.427 397.087 569.682 397.389 568.973C397.402 568.943 397.416 568.912 397.431 568.882Z" fill="#8A8A8A"/>
<path fill-rule="evenodd" clip-rule="evenodd" d="M331.408 547.338C331.408 547.338 365.178 547.85 369.792 548.466C394.761 551.976 377.667 541.789 402.417 526.543L358.129 520.287C348.859 520.04 345.361 524.463 319.331 527.066C307.341 526.592 298.728 530.186 298.358 539.535L301.304 547.125L331.408 547.338Z" fill="#7F48F4"/>
<path fill-rule="evenodd" clip-rule="evenodd" d="M398.076 553.418C390.796 553.497 371.281 550.673 371.299 548.05L375.487 521.528L398.056 521.688C405.975 526.513 414.703 536.985 431.085 546.849C440.981 556.271 438.277 560.275 434.716 567.595L417.802 573.27C389.865 578.929 352.285 578.143 340.062 577.33L340.135 566.927L398.076 553.418Z" fill="#7F48F4"/>
<path fill-rule="evenodd" clip-rule="evenodd" d="M339.243 565.829C338.787 563.637 338.296 562.084 337.769 561.168C337.129 560.055 336.032 558.523 334.479 556.574C333.348 557.224 323.185 563.068 303.989 574.107C304.917 577.554 306.303 578.907 308.148 578.164C309.992 577.421 311.534 576.821 312.773 576.363L331.095 575.431C331.447 575.413 331.686 575.089 331.629 574.708C331.628 574.701 331.627 574.695 331.626 574.688L331.085 571.64C332.181 569.889 333.223 568.73 334.211 568.161C335.014 567.7 336.336 567.433 338.176 567.36C338.882 567.332 339.367 566.691 339.26 565.928C339.255 565.895 339.249 565.862 339.243 565.829Z" fill="#8A8A8A"/>
<path fill-rule="evenodd" clip-rule="evenodd" d="M393.192 563.79C371.293 552.358 355.409 544.968 345.538 541.618C328.636 535.884 313.83 531.504 308.352 530.381C295.289 527.705 296.762 549.982 303.421 552.984C313.499 557.527 342.91 564.684 391.654 574.456L393.192 563.79Z" fill="#6322EC"/>
<path fill-rule="evenodd" clip-rule="evenodd" d="M339.455 577.454C364.148 578.145 381.665 577.836 392.006 576.526C409.712 574.283 424.942 571.739 430.358 570.35C443.275 567.037 432.198 547.653 424.897 547.87C413.847 548.197 384.271 554.638 336.168 567.19L339.455 577.454Z" fill="#6426E8"/>
<path fill-rule="evenodd" clip-rule="evenodd" d="M343.289 506.174L321.468 524.004C315.517 525.823 310.552 528.059 306.575 530.712C305.639 531.661 304.516 533.573 308.437 533.201C312.358 532.83 316.498 532.631 317.056 534.081C317.613 535.532 315.257 537.299 316.374 539.252C317.118 540.554 320.529 537.231 326.608 529.284L348.3 519.208L343.289 506.174ZM427.822 505.849L413.4 506.07C422.65 537.248 427.641 553.79 428.372 555.696C430.016 559.984 426.709 566.579 425.303 570.119C430.035 572.359 429.44 563.878 435.41 566.818C440.86 569.501 445.038 574.426 451.253 570.154C452.017 569.629 452.839 567.673 450.784 566.175C445.665 562.443 438.274 555.894 437.261 553.722C435.88 550.761 432.734 534.804 427.822 505.849Z" fill="#F8B577"/>
<path fill-rule="evenodd" clip-rule="evenodd" d="M386.11 440.46L380.13 439.412C358.216 460.466 349.562 500.546 322.654 522.024L329.284 530.761C376.3 523.9 387.433 475.006 386.11 440.46Z" fill="#CDAAF9"/>
<path fill-rule="evenodd" clip-rule="evenodd" d="M413.025 521.768C389.096 522.031 371.494 522.225 360.22 522.35C357.807 522.376 358.22 518.58 358.547 516.664C362.33 494.544 377.782 470.574 377.435 439.15L392.638 436.384C405.48 458.289 410.136 485.382 413.025 521.768Z" fill="#D8D3FF"/>
<path fill-rule="evenodd" clip-rule="evenodd" d="M411.896 457.842C414.1 457.126 415.834 455.493 417.098 452.944C422.545 441.954 420.468 435.959 414.496 434.046C408.525 432.134 403.264 436.266 393.785 436.371C393.27 436.377 392.798 436.417 392.37 436.492L387.605 436.841C374.48 487.435 371.078 521.131 377.398 537.93L418.96 537.472C421.492 543.692 423.906 548.922 426.203 553.162L437.528 553.037C438.181 515.533 429.637 483.801 411.896 457.842Z" fill="#CDAAF9"/>
<path fill-rule="evenodd" clip-rule="evenodd" d="M409.624 511.665C408.448 523.578 406.419 532.237 403.536 537.642L418.96 537.472C416.007 530.217 412.896 521.614 409.624 511.665Z" fill="black" fill-opacity="0.1"/>
<path d="M278.533 579L331.5 586.5V591.698L294.55 611L246.5 591.698L278.533 579Z" fill="#636363"/>
<path d="M358.314 409.137C357.775 407.637 359.12 406.14 360.669 406.516L368.411 408.398C369.531 408.67 370.19 409.83 369.85 410.931L368.82 414.267C368.513 415.264 367.49 415.857 366.472 415.629L361.212 414.45C360.545 414.3 360 413.819 359.768 413.176L358.314 409.137Z" fill="#274158"/>
<path d="M370.61 410.978C370.3 409.718 371.254 408.5 372.552 408.5H381.568C382.827 408.5 383.773 409.651 383.53 410.886L382.762 414.786C382.578 415.724 381.755 416.4 380.8 416.4H373.512C372.591 416.4 371.79 415.772 371.57 414.878L370.61 410.978Z" fill="#274158"/>
<path d="M375.5 410H365.5V411H375.5V410Z" fill="#274158"/>
<path d="M245.257 565.5L285 584L294.117 597V610.95L245.257 591.147L245.257 565.5Z" fill="#535252"/>
<path d="M277.156 574L331.5 586.698L292.985 606L245.5 586.698L277.156 574Z" fill="#535252"/>
<path d="M358.008 590L381.508 598L350.992 616L327.5 606L358.008 590Z" fill="#716F6F"/>
<path d="M340 601.5L359 609L351.5 613.5L332 605.5L340 601.5Z" fill="#AEABAB"/>
<path d="M239 541.5L288 561.5L293.117 605.95L245.5 587.5L239 541.5Z" fill="#716F6F"/>
<path d="M327.5 605.9L351.204 615.914L351.297 620.413L327.593 610.399L327.5 605.9Z" fill="#535252"/>
<path d="M381.5 598L351 616V620.5L381.5 602.5V598Z" fill="#636363"/>
<path d="M360.61 606.109C362.265 606.047 363.583 605.326 363.552 604.499C363.521 603.671 362.154 603.05 360.498 603.111C358.843 603.173 357.525 603.894 357.556 604.721C357.587 605.549 358.954 606.17 360.61 606.109Z" fill="#C4C4C4"/>
<path d="M354.21 603.587C355.865 603.525 357.183 602.804 357.152 601.977C357.121 601.149 355.754 600.528 354.098 600.589C352.443 600.651 351.125 601.372 351.156 602.199C351.187 603.027 352.554 603.648 354.21 603.587Z" fill="#C4C4C4"/>
<path d="M347.61 601.109C349.265 601.047 350.583 600.326 350.552 599.499C350.521 598.671 349.154 598.05 347.498 598.111C345.843 598.173 344.525 598.894 344.556 599.721C344.587 600.549 345.954 601.17 347.61 601.109Z" fill="#C4C4C4"/>
<path d="M371.61 600.109C373.265 600.047 374.583 599.326 374.552 598.499C374.521 597.671 373.154 597.05 371.498 597.111C369.843 597.173 368.525 597.894 368.556 598.721C368.587 599.549 369.954 600.17 371.61 600.109Z" fill="#C4C4C4"/>
<path d="M365.21 597.587C366.865 597.525 368.183 596.804 368.152 595.977C368.121 595.149 366.754 594.528 365.098 594.589C363.443 594.651 362.125 595.372 362.156 596.199C362.187 597.027 363.554 597.648 365.21 597.587Z" fill="#C4C4C4"/>
<path d="M358.61 595.109C360.265 595.047 361.583 594.326 361.552 593.499C361.521 592.671 360.154 592.05 358.498 592.111C356.843 592.173 355.525 592.894 355.556 593.721C355.587 594.549 356.954 595.17 358.61 595.109Z" fill="#C4C4C4"/>
<path d="M366.61 603.109C368.265 603.047 369.583 602.326 369.552 601.499C369.521 600.671 368.154 600.05 366.498 600.111C364.843 600.173 363.525 600.894 363.556 601.721C363.587 602.549 364.954 603.17 366.61 603.109Z" fill="#C4C4C4"/>
<path d="M360.21 600.587C361.865 600.525 363.183 599.804 363.152 598.977C363.121 598.149 361.754 597.528 360.098 597.589C358.443 597.651 357.125 598.372 357.156 599.199C357.187 600.027 358.554 600.648 360.21 600.587Z" fill="#C4C4C4"/>
<path d="M353.61 598.109C355.265 598.047 356.583 597.326 356.552 596.499C356.521 595.671 355.154 595.05 353.498 595.111C351.843 595.173 350.525 595.894 350.556 596.721C350.587 597.549 351.954 598.17 353.61 598.109Z" fill="#C4C4C4"/>
</g>
<path fill-rule="evenodd" clip-rule="evenodd" d="M1058.08 404.916C1061.1 415.97 1065.03 440.815 1061.02 444.713H1035.65C1035.65 444.668 1035.64 444.623 1035.64 444.579C1026.24 443.544 1018.92 435.613 1018.92 425.984V407.709C1018.92 397.377 1027.34 389 1037.73 389H1039.48C1048.92 389 1056.73 395.908 1058.08 404.916Z" fill="#191847"/>
<path fill-rule="evenodd" clip-rule="evenodd" d="M1028.78 422.494C1024.74 417.788 1022.02 412.019 1022.47 405.556C1023.78 386.933 1049.85 391.03 1054.92 400.429C1059.99 409.828 1059.39 433.67 1052.83 435.35C1050.22 436.02 1044.65 434.379 1038.99 430.983L1042.54 456.006H1021.55L1028.78 422.494Z" fill="#F8B577"/>
<path fill-rule="evenodd" clip-rule="evenodd" d="M1034.45 419.348C1035.42 429.685 1035.03 441.489 1032.15 444.29H1006.78C1005.36 419.861 1019.02 429.321 1019.02 406.319C1019.88 405.492 1020.68 404.672 1021.48 403.966L1021.45 403.289C1025.84 394.343 1031.42 389.87 1038.17 389.87C1048.3 389.87 1051.5 394.559 1054.22 398.54C1052.19 405.489 1044.29 406.519 1037.27 410.85C1036.44 410.182 1035.38 409.781 1034.23 409.781C1031.58 409.781 1029.42 411.924 1029.42 414.567C1029.42 417.21 1031.58 419.353 1034.23 419.353C1034.31 419.353 1034.38 419.351 1034.45 419.348Z" fill="#191847"/>
<path d="M1090.2 477.966L1090.08 478.576L1101.87 481.118L1101.98 480.507L1090.2 477.966Z" fill="#CDCDCD"/>
<path fill-rule="evenodd" clip-rule="evenodd" d="M1083 589.5C1093.28 575.796 1098.97 563.153 1103.35 551.85C1107.74 540.548 1099.26 529.581 1096.5 517C1086.24 530.32 1088.48 540.938 1084.65 550.802C1080.83 560.667 1078 575.5 1083 589.5Z" fill="#6322EC"/>
<path fill-rule="evenodd" clip-rule="evenodd" d="M1101.66 566.148C1101.39 566.107 1101.11 566.033 1100.84 565.924C1095.22 563.667 1027.1 548.084 1016.55 543L1042.24 512.748C1050.27 516.614 1097.56 544.486 1106.54 550.586C1122.43 558.172 1169.81 587.543 1173.51 589.088C1177.4 590.714 1175.08 599.908 1170.04 598.213C1162.02 595.515 1140.71 587.02 1128.59 580.775C1117.23 574.921 1107.2 569.426 1101.66 566.148Z" fill="#F8AC66"/>
<path fill-rule="evenodd" clip-rule="evenodd" d="M1127.77 528.013C1136.88 541.009 1162.22 591.618 1164.65 594.826C1167.15 598.127 1159.16 604.94 1155.67 601.02C1150.1 594.78 1136.16 577.055 1129.14 565.756C1123.49 556.668 1118.57 548.287 1115.43 542.596C1095.59 550.827 1048.34 571.708 1037.46 574.149L1027 542.214C1037.43 539.872 1114.14 524.512 1122.17 524.056C1125.01 523.8 1126.88 525.578 1127.77 528.013Z" fill="#F8B577"/>
<path fill-rule="evenodd" clip-rule="evenodd" d="M1154.44 601.878C1154.24 604.137 1154.27 605.772 1154.53 606.782C1154.85 608.011 1155.5 609.743 1156.5 611.98C1157.85 611.559 1169.99 607.785 1192.93 600.657C1193.03 597.061 1192.02 595.449 1189.92 595.819C1187.81 596.19 1186.05 596.479 1184.65 596.687L1165.67 593.987C1165.3 593.935 1164.96 594.208 1164.9 594.597C1164.9 594.603 1164.9 594.61 1164.9 594.617L1164.53 597.74C1162.88 599.256 1161.46 600.197 1160.28 600.565C1159.32 600.862 1157.89 600.866 1155.99 600.573C1155.26 600.462 1154.57 601.001 1154.45 601.777C1154.45 601.81 1154.44 601.844 1154.44 601.878Z" fill="#8A8A8A"/>
<path fill-rule="evenodd" clip-rule="evenodd" d="M1168.27 598.602C1169.27 600.599 1170.14 601.947 1170.88 602.644C1171.79 603.493 1173.24 604.572 1175.25 605.881C1176.19 604.773 1184.66 594.813 1200.65 576.001C1198.87 572.945 1197.18 572.163 1195.56 573.654C1193.95 575.145 1192.59 576.371 1191.49 577.331L1173.82 585.721C1173.48 585.883 1173.33 586.302 1173.48 586.659C1173.48 586.665 1173.49 586.671 1173.49 586.677L1174.78 589.493C1174.15 591.682 1173.42 593.262 1172.6 594.23C1171.93 595.017 1170.71 595.821 1168.93 596.643C1168.24 596.958 1167.93 597.795 1168.23 598.511C1168.24 598.542 1168.26 598.572 1168.27 598.602Z" fill="#8A8A8A"/>
<path fill-rule="evenodd" clip-rule="evenodd" d="M1017.35 557.972C1010.98 542.968 1019.36 528.223 1026.88 516.388C1050.3 517.966 1061.72 509.348 1096.48 516.799C1103.25 542.132 1076.66 563.598 1083 589.5C1065.36 591.576 1023.72 572.977 1017.35 557.972Z" fill="#7F48F4"/>
<path d="M1081.52 435.82C1082.79 433.031 1085.48 431.183 1088.5 431.016L1104.14 430.154C1110.1 429.825 1114.39 435.876 1112.18 441.504L1104.17 461.965C1102.47 466.31 1097.56 468.371 1093.33 466.521L1079.53 460.487C1075.3 458.64 1073.41 453.623 1075.34 449.386L1081.52 435.82Z" fill="#525151"/>
<path d="M1080.99 436.43C1081.62 434.894 1083.11 433.895 1084.75 433.895H1101.88C1104.72 433.895 1106.7 436.766 1105.72 439.473L1099.14 457.648C1098.36 459.803 1096.01 460.906 1093.88 460.109L1078.22 454.232C1076.1 453.435 1075.02 451.037 1075.81 448.885L1075.91 448.638L1080.99 436.43Z" fill="#716F6F"/>
<path fill-rule="evenodd" clip-rule="evenodd" d="M1043.91 476.279L1064.91 459.186C1068.02 453.877 1071.23 449.601 1074.54 446.358C1075.6 445.664 1077.54 444.996 1076.2 448.67C1074.86 452.344 1073.62 456.264 1074.72 457.106C1075.83 457.949 1077.96 456.07 1079.35 457.554C1080.28 458.543 1076.54 461.101 1068.12 465.229L1053.83 483.848L1043.91 476.279ZM1081.57 480.115L1090.79 472.59C1091.36 466.881 1092.63 463.821 1094.59 463.411C1096 462.411 1094.43 469.786 1097.21 468.642C1099.98 467.498 1106.17 460.905 1107.54 461.742C1109.57 462.979 1108.73 468.129 1107.23 470.898C1104.43 476.074 1101.77 478.17 1094.92 481.558C1091.33 483.33 1087.61 486.219 1083.74 490.227L1081.57 480.115Z" fill="#F8B577"/>
<path fill-rule="evenodd" clip-rule="evenodd" d="M1035.85 475.76C1040.26 476.817 1046.11 476.177 1052.25 468.447L1054.9 482.056C1050.72 491.038 1044.75 497.749 1039.43 495.988C1035.23 494.6 1032.91 482.073 1035.85 475.76Z" fill="#D5B9F9"/>
<path fill-rule="evenodd" clip-rule="evenodd" d="M1059.92 495.934C1049.09 472.1 1069.87 523.96 1059.92 495.934C1066.51 505.805 1074.94 512.329 1074.94 512.329L1070.06 517.546L1059.03 525.191C1059.03 525.191 1025.47 544.31 1013.77 548.939C1008.14 523.274 1016.46 511.756 1014.11 495.499C1011.53 477.697 1021.35 447.815 1023.38 447.45L1041.9 444.118C1044.9 457.529 1053.54 481.892 1059.92 495.934Z" fill="#CDAAF9"/>
<path fill-rule="evenodd" clip-rule="evenodd" d="M1037.11 478.115C1040.66 484.176 1044.55 489.709 1057.35 491.13L1057.18 507.733C1043.23 507.903 1036.84 504.088 1026.34 491.508C1023.28 485.446 1028.75 479.427 1037.11 478.115Z" fill="#F8B577"/>
<path fill-rule="evenodd" clip-rule="evenodd" d="M1057.19 490.45C1062.91 492.524 1090.98 473.059 1099.45 465.991C1104.12 482.978 1109.83 466.769 1103.56 476.212C1094.8 501.779 1059.71 508.386 1059.71 508.386C1059.71 508.386 1059.71 508.386 1050.13 508.63L1057.19 490.45Z" fill="#E5E5E5"/>
<path fill-rule="evenodd" clip-rule="evenodd" d="M1040.35 470.839C1040.19 477.921 1043.49 480.312 1054.04 488.291L1034.93 502.914C1023.4 498.239 1022.76 485.308 1023.52 476.652C1024.11 469.831 1032.24 467.553 1040.35 470.839Z" fill="#D5B9F9"/>
<path d="M1090.24 472.315L1090.13 473.01L1105.27 475.669L1105.38 474.973L1090.24 472.315Z" fill="#A5A5A5"/>
<path d="M1069.73 497.728L1069.13 498.348L1074.52 504.197L1075.12 503.577L1069.73 497.728Z" fill="#A5A5A5"/>
<path d="M1072 484.219L1071.4 484.839L1084.19 498.71L1084.79 498.09L1072 484.219Z" fill="#A5A5A5"/>
<path d="M1087.26 475.197L1086.77 475.673L1097.49 488.047L1097.98 487.571L1087.26 475.197Z" fill="#A5A5A5"/>
<path d="M1081.31 479.282L1080.74 479.657L1089.8 494.902L1090.37 494.527L1081.31 479.282Z" fill="#A5A5A5"/>
<path d="M1068.57 486.734L1067.91 486.793L1069.36 505.241L1070.02 505.183L1068.57 486.734Z" fill="#A5A5A5"/>
<path d="M1060.19 489.549L1059.53 489.489L1058.02 508.042L1058.69 508.102L1060.19 489.549Z" fill="#A5A5A5"/>
<path d="M1066.73 487.746L1066.06 487.804L1067.51 506.253L1068.18 506.194L1066.73 487.746Z" fill="#A5A5A5"/>
<defs>
<filter id="filter0_f" x="-3" y="521" width="1445" height="262" filterUnits="userSpaceOnUse" color-interpolation-filters="sRGB">
<feFlood flood-opacity="0" result="BackgroundImageFix"/>
<feBlend mode="normal" in="SourceGraphic" in2="BackgroundImageFix" result="shape"/>
<feGaussianBlur stdDeviation="1" result="effect1_foregroundBlur"/>
</filter>
<clipPath id="clip0">
<rect width="215" height="244" fill="white" transform="translate(239 379)"/>
</clipPath>
</defs>
</svg>
