<svg width="24" height="24" viewBox="0 0 24 24" fill="none" xmlns="http://www.w3.org/2000/svg">
<path fill-rule="evenodd" clip-rule="evenodd" d="M21 12C21 11.8295 20.9323 11.666 20.8117 11.5455C20.6912 11.4249 20.5277 11.3572 20.3572 11.3572H5.19572L9.24161 7.31261C9.30137 7.25284 9.34878 7.18189 9.38113 7.1038C9.41347 7.02571 9.43012 6.94202 9.43012 6.8575C9.43012 6.77297 9.41347 6.68928 9.38113 6.61119C9.34878 6.5331 9.30137 6.46215 9.24161 6.40238C9.18184 6.34261 9.11089 6.29521 9.0328 6.26286C8.95471 6.23052 8.87102 6.21387 8.78649 6.21387C8.70197 6.21387 8.61828 6.23052 8.54019 6.26286C8.4621 6.29521 8.39115 6.34261 8.33138 6.40238L3.18885 11.5449C3.12899 11.6046 3.08149 11.6756 3.04909 11.7537C3.01668 11.8317 3 11.9155 3 12C3 12.0846 3.01668 12.1683 3.04909 12.2464C3.08149 12.3245 3.12899 12.3954 3.18885 12.4551L8.33138 17.5977C8.39115 17.6574 8.4621 17.7048 8.54019 17.7372C8.61828 17.7695 8.70197 17.7862 8.78649 17.7862C8.87102 17.7862 8.95471 17.7695 9.0328 17.7372C9.11089 17.7048 9.18184 17.6574 9.24161 17.5977C9.30137 17.5379 9.34878 17.4669 9.38113 17.3889C9.41347 17.3108 9.43012 17.2271 9.43012 17.1426C9.43012 17.058 9.41347 16.9743 9.38113 16.8962C9.34878 16.8182 9.30137 16.7472 9.24161 16.6874L5.19572 12.6428H20.3572C20.5277 12.6428 20.6912 12.5751 20.8117 12.4546C20.9323 12.334 21 12.1705 21 12Z" fill="#9021a6"/>
</svg>
