<svg width="24" height="24" viewBox="0 0 24 24" fill="none" xmlns="http://www.w3.org/2000/svg">
<path d="M16.1221 10.8336H20.7085C20.7639 10.8336 20.8182 10.8494 20.8649 10.8792C20.9117 10.9089 20.949 10.9514 20.9725 11.0015C20.996 11.0517 21.0047 11.1076 20.9976 11.1625C20.9905 11.2175 20.9679 11.2693 20.9325 11.3118L18.6393 14.0646C18.6119 14.0974 18.5777 14.1238 18.539 14.1419C18.5003 14.1601 18.458 14.1694 18.4153 14.1694C18.3726 14.1694 18.3304 14.1601 18.2917 14.1419C18.253 14.1238 18.2187 14.0974 18.1914 14.0646L15.8982 11.3118C15.8627 11.2693 15.8401 11.2175 15.833 11.1625C15.8259 11.1076 15.8347 11.0517 15.8582 11.0015C15.8817 10.9514 15.919 10.9089 15.9657 10.8792C16.0125 10.8494 16.0667 10.8336 16.1221 10.8336ZM3.2915 13.1665H7.87787C7.93328 13.1664 7.98753 13.1506 8.03428 13.1209C8.08103 13.0911 8.11834 13.0487 8.14184 12.9985C8.16534 12.9483 8.17405 12.8925 8.16697 12.8375C8.15988 12.7826 8.13728 12.7308 8.10182 12.6882L5.80863 9.93546C5.78127 9.90265 5.74702 9.87625 5.70832 9.85813C5.66962 9.84001 5.62741 9.83062 5.58468 9.83062C5.54195 9.83062 5.49974 9.84001 5.46104 9.85813C5.42234 9.87625 5.3881 9.90265 5.36073 9.93546L3.06754 12.6882C3.03208 12.7308 3.00948 12.7826 3.0024 12.8375C2.99531 12.8925 3.00402 12.9483 3.02752 12.9985C3.05102 13.0487 3.08833 13.0911 3.13508 13.1209C3.18183 13.1506 3.23609 13.1664 3.2915 13.1665Z" fill="#9021a6"/>
<path fill-rule="evenodd" clip-rule="evenodd" d="M12 6.168C10.1897 6.168 8.57071 6.99266 7.5011 8.28855C7.45334 8.35046 7.39362 8.40213 7.32548 8.44049C7.25735 8.47885 7.1822 8.50312 7.1045 8.51186C7.0268 8.52059 6.94814 8.51361 6.87319 8.49134C6.79824 8.46906 6.72854 8.43195 6.66822 8.38219C6.60791 8.33244 6.55821 8.27106 6.52209 8.20172C6.48597 8.13237 6.46417 8.05647 6.45797 7.97853C6.45177 7.90058 6.46131 7.82219 6.48602 7.74801C6.51072 7.67382 6.55009 7.60537 6.60179 7.54671C7.45583 6.51271 8.58889 5.74576 9.86621 5.3371C11.1435 4.92844 12.5113 4.89526 13.807 5.24149C15.1026 5.58773 16.2715 6.29883 17.1747 7.29019C18.0779 8.28156 18.6773 9.51149 18.9017 10.8337H17.7155C17.4462 9.51657 16.7303 8.33286 15.6888 7.48272C14.6474 6.63258 13.3443 6.16816 12 6.168ZM6.28452 13.1665C6.50534 14.245 7.02678 15.239 7.7886 16.0338C8.55042 16.8285 9.52153 17.3914 10.5897 17.6576C11.658 17.9237 12.7797 17.8823 13.8253 17.5379C14.8709 17.1936 15.7978 16.5605 16.4989 15.7117C16.5466 15.6498 16.6064 15.5981 16.6745 15.5597C16.7426 15.5214 16.8178 15.4971 16.8955 15.4884C16.9732 15.4796 17.0518 15.4866 17.1268 15.5089C17.2017 15.5311 17.2714 15.5683 17.3318 15.618C17.3921 15.6678 17.4418 15.7291 17.4779 15.7985C17.514 15.8678 17.5358 15.9437 17.542 16.0217C17.5482 16.0996 17.5387 16.178 17.514 16.2522C17.4893 16.3264 17.4499 16.3948 17.3982 16.4535C16.5441 17.4875 15.4111 18.2544 14.1338 18.6631C12.8564 19.0718 11.4886 19.105 10.193 18.7587C8.89736 18.4125 7.72844 17.7014 6.82526 16.71C5.92208 15.7186 5.32265 14.4887 5.09827 13.1665H6.28452Z" fill="#9021a6"/>
</svg>
