<svg width="24" height="24" viewBox="0 0 24 24" fill="none" xmlns="http://www.w3.org/2000/svg">
<path fill-rule="evenodd" clip-rule="evenodd" d="M3 12C3 11.8295 3.06773 11.666 3.18828 11.5455C3.30883 11.4249 3.47233 11.3572 3.64282 11.3572H18.8043L14.7584 7.31261C14.6377 7.19191 14.5699 7.0282 14.5699 6.8575C14.5699 6.68679 14.6377 6.52308 14.7584 6.40238C14.8791 6.28168 15.0428 6.21387 15.2135 6.21387C15.3842 6.21387 15.5479 6.28168 15.6686 6.40238L20.8111 11.5449C20.871 11.6046 20.9185 11.6756 20.9509 11.7537C20.9833 11.8317 21 11.9155 21 12C21 12.0846 20.9833 12.1683 20.9509 12.2464C20.9185 12.3245 20.871 12.3954 20.8111 12.4551L15.6686 17.5977C15.5479 17.7184 15.3842 17.7862 15.2135 17.7862C15.0428 17.7862 14.8791 17.7184 14.7584 17.5977C14.6377 17.477 14.5699 17.3133 14.5699 17.1426C14.5699 16.9719 14.6377 16.8081 14.7584 16.6874L18.8043 12.6428H3.64282C3.47233 12.6428 3.30883 12.5751 3.18828 12.4546C3.06773 12.334 3 12.1705 3 12Z" fill="white"/>
</svg>
