<svg width="48" height="48" viewBox="0 0 48 48" fill="none" xmlns="http://www.w3.org/2000/svg">
<circle cx="24" cy="24" r="24" fill="#DEDEDD"/>
<path d="M33.3912 16.6513L31.2797 14.5312C30.8957 14.175 30.3878 13.9845 29.8657 14.001C29.3399 14.0002 28.8349 14.2087 28.4615 14.5807L26.9975 16.0004L18.572 24.4598C18.1955 24.8356 17.9842 25.347 17.9842 25.8795V29.999H22.0871C22.6182 29.9997 23.1268 29.7867 23.501 29.4088L29.9344 22.9989L33.3905 19.5289C33.7797 19.1517 34 18.6319 34 18.089C34 17.546 33.7797 17.0263 33.3905 16.6491L33.3912 16.6513ZM22.0878 28.0004H19.9762V25.8802L27.1969 18.6304L29.3085 20.7506L22.0878 28.0004ZM31.9272 18.1212L30.7224 19.3414L28.6108 17.2213L29.8157 16.0011H29.9352L31.9765 18.0507L31.9265 18.1205L31.9272 18.1212Z" fill="#EB5D5E"/>
<path d="M29.9352 31.9999H15.9921V18.0005H22.1864L24.1785 16.0004H15.9921C14.8918 16.0004 14 16.8958 14 18.0005V31.9999C14 33.1046 14.8918 34 15.9921 34H29.9352C31.0354 34 31.9273 33.1046 31.9273 31.9999V23.7804L29.9352 25.7805V31.9999Z" fill="#EB5D5E"/>
</svg>
