<svg width="80" height="80" viewBox="0 0 80 80" fill="none" xmlns="http://www.w3.org/2000/svg">
<g clip-path="url(#clip0_4293_46919)">
<path d="M40.93 5.56455C40.3331 5.32533 39.6669 5.32533 39.07 5.56455L9.23 17.4996L21.25 22.3046L52.02 9.99955L40.93 5.56455ZM58.75 12.6946L27.98 24.9996L40 29.8046L70.77 17.4996L58.75 12.6946ZM75 21.1946L42.5 34.1946V73.8046L75 60.8046V21.1996V21.1946ZM37.5 73.8096V34.1896L5 21.1946V60.8096L37.5 73.8096ZM37.215 0.919554C39.0028 0.20455 40.9972 0.20455 42.785 0.919554L78.43 15.1796C78.8934 15.3653 79.2906 15.6855 79.5705 16.099C79.8503 16.5125 79.9999 17.0003 80 17.4996V60.8096C79.9994 61.8087 79.6994 62.7847 79.1389 63.6117C78.5783 64.4388 77.7828 65.0789 76.855 65.4496L40.93 79.8195C40.3331 80.0588 39.6669 80.0588 39.07 79.8195L3.15 65.4496C2.22126 65.0797 1.42471 64.4399 0.86321 63.6128C0.301709 62.7857 0.00103165 61.8092 0 60.8096L0 17.4996C0.0001162 17.0003 0.149719 16.5125 0.429535 16.099C0.709351 15.6855 1.10656 15.3653 1.57 15.1796L37.215 0.919554Z" fill="#9021A6"/>
</g>
<defs>
<clipPath id="clip0_4293_46919">
<rect width="80" height="80" fill="white"/>
</clipPath>
</defs>
</svg>
