<svg width="18" height="18" viewBox="0 0 18 18" fill="none" xmlns="http://www.w3.org/2000/svg">
<path fill-rule="evenodd" clip-rule="evenodd" d="M9.7155 3.9375C9.7155 3.78832 9.65624 3.64524 9.55075 3.53975C9.44526 3.43426 9.30218 3.375 9.153 3.375H1.6875C1.23995 3.375 0.810725 3.55279 0.494257 3.86926C0.17779 4.18573 0 4.61495 0 5.0625L0 16.3125C0 16.7601 0.17779 17.1893 0.494257 17.5057C0.810725 17.8222 1.23995 18 1.6875 18H12.9375C13.3851 18 13.8143 17.8222 14.1307 17.5057C14.4472 17.1893 14.625 16.7601 14.625 16.3125V8.847C14.625 8.69781 14.5657 8.55474 14.4602 8.44925C14.3548 8.34376 14.2117 8.2845 14.0625 8.2845C13.9133 8.2845 13.7702 8.34376 13.6648 8.44925C13.5593 8.55474 13.5 8.69781 13.5 8.847V16.3125C13.5 16.4617 13.4407 16.6048 13.3352 16.7102C13.2298 16.8157 13.0867 16.875 12.9375 16.875H1.6875C1.53832 16.875 1.39524 16.8157 1.28975 16.7102C1.18426 16.6048 1.125 16.4617 1.125 16.3125V5.0625C1.125 4.91332 1.18426 4.77024 1.28975 4.66475C1.39524 4.55926 1.53832 4.5 1.6875 4.5H9.153C9.30218 4.5 9.44526 4.44074 9.55075 4.33525C9.65624 4.22976 9.7155 4.08668 9.7155 3.9375Z" fill="white"/>
<path fill-rule="evenodd" clip-rule="evenodd" d="M18 0.5625C18 0.413316 17.9407 0.270242 17.8352 0.164752C17.7298 0.0592632 17.5867 0 17.4375 0L11.8125 0C11.6633 0 11.5202 0.0592632 11.4147 0.164752C11.3093 0.270242 11.25 0.413316 11.25 0.5625C11.25 0.711684 11.3093 0.854758 11.4147 0.960248C11.5202 1.06574 11.6633 1.125 11.8125 1.125H16.0796L6.91425 10.2892C6.86195 10.3415 6.82046 10.4036 6.79216 10.472C6.76385 10.5403 6.74929 10.6135 6.74929 10.6875C6.74929 10.7615 6.76385 10.8347 6.79216 10.903C6.82046 10.9714 6.86195 11.0335 6.91425 11.0858C6.96655 11.138 7.02863 11.1795 7.09697 11.2078C7.1653 11.2361 7.23854 11.2507 7.3125 11.2507C7.38646 11.2507 7.4597 11.2361 7.52803 11.2078C7.59636 11.1795 7.65845 11.138 7.71075 11.0858L16.875 1.92038V6.1875C16.875 6.33668 16.9343 6.47976 17.0397 6.58525C17.1452 6.69074 17.2883 6.75 17.4375 6.75C17.5867 6.75 17.7298 6.69074 17.8352 6.58525C17.9407 6.47976 18 6.33668 18 6.1875V0.5625Z" fill="white"/>
</svg>
