<svg width="20" height="20" viewBox="0 0 24 24" fill="none" xmlns="http://www.w3.org/2000/svg">
<path fill-rule="evenodd" clip-rule="evenodd" d="M12.7155 6.9375C12.7155 6.78832 12.6562 6.64524 12.5507 6.53975C12.4453 6.43426 12.3022 6.375 12.153 6.375H4.6875C4.23995 6.375 3.81072 6.55279 3.49426 6.86926C3.17779 7.18573 3 7.61495 3 8.0625V19.3125C3 19.7601 3.17779 20.1893 3.49426 20.5057C3.81072 20.8222 4.23995 21 4.6875 21H15.9375C16.3851 21 16.8143 20.8222 17.1307 20.5057C17.4472 20.1893 17.625 19.7601 17.625 19.3125V11.847C17.625 11.6978 17.5657 11.5547 17.4602 11.4493C17.3548 11.3438 17.2117 11.2845 17.0625 11.2845C16.9133 11.2845 16.7702 11.3438 16.6648 11.4493C16.5593 11.5547 16.5 11.6978 16.5 11.847V19.3125C16.5 19.4617 16.4407 19.6048 16.3352 19.7102C16.2298 19.8157 16.0867 19.875 15.9375 19.875H4.6875C4.53832 19.875 4.39524 19.8157 4.28975 19.7102C4.18426 19.6048 4.125 19.4617 4.125 19.3125V8.0625C4.125 7.91332 4.18426 7.77024 4.28975 7.66475C4.39524 7.55926 4.53832 7.5 4.6875 7.5H12.153C12.3022 7.5 12.4453 7.44074 12.5507 7.33525C12.6562 7.22976 12.7155 7.08668 12.7155 6.9375Z" fill="#9021a6"/>
<path fill-rule="evenodd" clip-rule="evenodd" d="M21 3.5625C21 3.41332 20.9407 3.27024 20.8352 3.16475C20.7298 3.05926 20.5867 3 20.4375 3H14.8125C14.6633 3 14.5202 3.05926 14.4147 3.16475C14.3093 3.27024 14.25 3.41332 14.25 3.5625C14.25 3.71168 14.3093 3.85476 14.4147 3.96025C14.5202 4.06574 14.6633 4.125 14.8125 4.125H19.0796L9.91425 13.2892C9.86195 13.3415 9.82046 13.4036 9.79216 13.472C9.76385 13.5403 9.74929 13.6135 9.74929 13.6875C9.74929 13.7615 9.76385 13.8347 9.79216 13.903C9.82046 13.9714 9.86195 14.0335 9.91425 14.0858C9.96655 14.138 10.0286 14.1795 10.097 14.2078C10.1653 14.2361 10.2385 14.2507 10.3125 14.2507C10.3865 14.2507 10.4597 14.2361 10.528 14.2078C10.5964 14.1795 10.6584 14.138 10.7107 14.0858L19.875 4.92038V9.1875C19.875 9.33668 19.9343 9.47976 20.0397 9.58525C20.1452 9.69074 20.2883 9.75 20.4375 9.75C20.5867 9.75 20.7298 9.69074 20.8352 9.58525C20.9407 9.47976 21 9.33668 21 9.1875V3.5625Z" fill="#9021a6"/>
</svg>
