<svg width="56" height="56" viewBox="0 0 56 56" fill="none" xmlns="http://www.w3.org/2000/svg">
<g clip-path="url(#clip0_2193_15038)">
<path d="M28 52.5C21.5022 52.5 15.2705 49.9188 10.6759 45.3241C6.08124 40.7295 3.5 34.4978 3.5 28C3.5 21.5022 6.08124 15.2705 10.6759 10.6759C15.2705 6.08124 21.5022 3.5 28 3.5C34.4978 3.5 40.7295 6.08124 45.3241 10.6759C49.9188 15.2705 52.5 21.5022 52.5 28C52.5 34.4978 49.9188 40.7295 45.3241 45.3241C40.7295 49.9188 34.4978 52.5 28 52.5ZM28 56C35.4261 56 42.548 53.05 47.799 47.799C53.05 42.548 56 35.4261 56 28C56 20.5739 53.05 13.452 47.799 8.20101C42.548 2.94999 35.4261 0 28 0C20.5739 0 13.452 2.94999 8.20101 8.20101C2.94999 13.452 0 20.5739 0 28C0 35.4261 2.94999 42.548 8.20101 47.799C13.452 53.05 20.5739 56 28 56Z" fill="#3aa566"/>
<path d="M38.395 17.395C38.37 17.4192 38.3466 17.4449 38.325 17.472L26.1695 32.9595L18.844 25.6305C18.3464 25.1668 17.6882 24.9144 17.0081 24.9264C16.3281 24.9384 15.6792 25.2139 15.1983 25.6948C14.7173 26.1758 14.4419 26.8246 14.4299 27.5047C14.4179 28.1847 14.6703 28.8429 15.134 29.3405L24.395 38.605C24.6445 38.854 24.9415 39.0503 25.2685 39.182C25.5955 39.3137 25.9456 39.3782 26.2981 39.3717C26.6505 39.3652 26.998 39.2877 27.3199 39.144C27.6418 39.0002 27.9314 38.7931 28.1715 38.535L42.1435 21.07C42.6192 20.5707 42.8793 19.9041 42.8676 19.2145C42.8558 18.5249 42.5731 17.8677 42.0807 17.3848C41.5882 16.902 40.9254 16.6324 40.2357 16.6343C39.546 16.6362 38.8848 16.9095 38.395 17.395Z" fill="#3aa566"/>
</g>
<defs>
<clipPath id="clip0_2193_15038">
<rect width="56" height="56" fill="white"/>
</clipPath>
</defs>
</svg>
