<svg width="15" height="15" viewBox="0 0 15 15" fill="none" xmlns="http://www.w3.org/2000/svg">
<path fill-rule="evenodd" clip-rule="evenodd" d="M7.2141 5.14793C7.25161 5.11032 7.29618 5.08049 7.34523 5.06013C7.39429 5.03978 7.44689 5.0293 7.5 5.0293C7.55311 5.0293 7.60571 5.03978 7.65477 5.06013C7.70382 5.08049 7.74838 5.11032 7.7859 5.14793L12.6316 9.99361C12.7074 10.0694 12.75 10.1723 12.75 10.2795C12.75 10.3867 12.7074 10.4896 12.6316 10.5654C12.5558 10.6412 12.4529 10.6838 12.3457 10.6838C12.2385 10.6838 12.1356 10.6412 12.0598 10.5654L7.5 6.00481L2.94021 10.5654C2.86439 10.6412 2.76155 10.6838 2.65432 10.6838C2.54709 10.6838 2.44425 10.6412 2.36842 10.5654C2.2926 10.4896 2.25 10.3867 2.25 10.2795C2.25 10.1723 2.2926 10.0694 2.36842 9.99361L7.2141 5.14793Z" fill="#785EF0"/>
</svg>
