<svg width="15" height="15" viewBox="0 0 15 15" fill="none" xmlns="http://www.w3.org/2000/svg">
<path fill-rule="evenodd" clip-rule="evenodd" d="M2.63889 5.14768C2.6764 5.11008 2.72096 5.08024 2.77002 5.05989C2.81908 5.03953 2.87167 5.02905 2.92478 5.02905C2.9779 5.02905 3.03049 5.03953 3.07955 5.05989C3.1286 5.08024 3.17316 5.11008 3.21067 5.14768L7.77037 9.70819L12.3301 5.14768C12.3676 5.11014 12.4122 5.08036 12.4612 5.06004C12.5103 5.03972 12.5629 5.02926 12.616 5.02926C12.6691 5.02926 12.7216 5.03972 12.7707 5.06004C12.8197 5.08036 12.8643 5.11014 12.9018 5.14768C12.9394 5.18523 12.9692 5.2298 12.9895 5.27885C13.0098 5.3279 13.0203 5.38048 13.0203 5.43357C13.0203 5.48667 13.0098 5.53924 12.9895 5.5883C12.9692 5.63735 12.9394 5.68192 12.9018 5.71946L8.05626 10.565C8.01875 10.6027 7.97419 10.6325 7.92513 10.6528C7.87607 10.6732 7.82348 10.6837 7.77037 10.6837C7.71726 10.6837 7.66466 10.6732 7.61561 10.6528C7.56655 10.6325 7.52199 10.6027 7.48448 10.565L2.63889 5.71946C2.60129 5.68195 2.57146 5.63739 2.5511 5.58834C2.53074 5.53928 2.52026 5.48669 2.52026 5.43357C2.52026 5.38046 2.53074 5.32787 2.5511 5.27881C2.57146 5.22975 2.60129 5.18519 2.63889 5.14768Z" fill="#333333"/>
</svg>
