<svg width="24" height="24" viewBox="0 0 24 24" fill="none" xmlns="http://www.w3.org/2000/svg">
<path fill-rule="evenodd" clip-rule="evenodd" d="M11.5425 8.23668C11.6026 8.17651 11.6739 8.12878 11.7523 8.0962C11.8308 8.06364 11.915 8.04688 12 8.04688C12.085 8.04688 12.1691 8.06364 12.2476 8.0962C12.3261 8.12878 12.3974 8.17651 12.4574 8.23668L20.2105 15.9898C20.3318 16.111 20.4 16.2757 20.4 16.4472C20.4 16.6187 20.3318 16.7834 20.2105 16.9046C20.0893 17.0259 19.9246 17.0941 19.7531 17.0941C19.5816 17.0941 19.4169 17.0259 19.2957 16.9046L12 9.60769L4.70431 16.9046C4.583 17.0259 4.41846 17.0941 4.24689 17.0941C4.07532 17.0941 3.91078 17.0259 3.78945 16.9046C3.66814 16.7834 3.59998 16.6187 3.59998 16.4472C3.59998 16.2757 3.66814 16.111 3.78945 15.9898L11.5425 8.23668Z" fill="#9021a6"/>
</svg>
