<svg width="24" height="24" viewBox="0 0 24 24" fill="currentColor" xmlns="http://www.w3.org/2000/svg">
<path fill-rule="evenodd" clip-rule="evenodd" d="M4.22228 8.23632C4.28229 8.17616 4.35359 8.12841 4.43209 8.09585C4.51058 8.06328 4.59473 8.04651 4.6797 8.04651C4.76469 8.04651 4.84884 8.06328 4.92733 8.09585C5.00581 8.12841 5.07711 8.17616 5.13713 8.23632L12.4326 15.5331L19.7282 8.23632C19.7882 8.17625 19.8596 8.1286 19.938 8.09609C20.0165 8.06358 20.1007 8.04685 20.1857 8.04685C20.2706 8.04685 20.3546 8.06358 20.4332 8.09609C20.5116 8.1286 20.5829 8.17625 20.6429 8.23632C20.7031 8.2964 20.7508 8.36771 20.7833 8.44619C20.8157 8.52467 20.8325 8.6088 20.8325 8.69374C20.8325 8.7787 20.8157 8.86281 20.7833 8.94131C20.7508 9.01979 20.7031 9.0911 20.6429 9.15117L12.8901 16.904C12.8301 16.9643 12.7588 17.012 12.6803 17.0445C12.6018 17.0771 12.5176 17.0939 12.4326 17.0939C12.3477 17.0939 12.2635 17.0771 12.185 17.0445C12.1065 17.012 12.0352 16.9643 11.9752 16.904L4.22228 9.15117C4.16212 9.09115 4.11439 9.01985 4.08181 8.94137C4.04924 8.86288 4.03247 8.77873 4.03247 8.69374C4.03247 8.60876 4.04924 8.52462 4.08181 8.44613C4.11439 8.36763 4.16212 8.29633 4.22228 8.23632Z"/>
</svg>
