<svg width="29" height="28" viewBox="0 0 29 28" fill="none" xmlns="http://www.w3.org/2000/svg">
<g clip-path="url(#clip0_2749_23200)">
<path d="M14.5 26.25C11.2511 26.25 8.13526 24.9594 5.83794 22.6621C3.54062 20.3647 2.25 17.2489 2.25 14C2.25 10.7511 3.54062 7.63526 5.83794 5.33794C8.13526 3.04062 11.2511 1.75 14.5 1.75C17.7489 1.75 20.8647 3.04062 23.1621 5.33794C25.4594 7.63526 26.75 10.7511 26.75 14C26.75 17.2489 25.4594 20.3647 23.1621 22.6621C20.8647 24.9594 17.7489 26.25 14.5 26.25ZM14.5 28C18.213 28 21.774 26.525 24.3995 23.8995C27.025 21.274 28.5 17.713 28.5 14C28.5 10.287 27.025 6.72601 24.3995 4.10051C21.774 1.475 18.213 0 14.5 0C10.787 0 7.22601 1.475 4.60051 4.10051C1.975 6.72601 0.5 10.287 0.5 14C0.5 17.713 1.975 21.274 4.60051 23.8995C7.22601 26.525 10.787 28 14.5 28Z" fill="#D7260F"/>
<path d="M19.4497 9.05027C19.6138 9.21437 19.706 9.43693 19.706 9.66899C19.706 9.90106 19.6138 10.1236 19.4497 10.2877L15.7374 14L19.4497 17.7123C19.6138 17.8764 19.706 18.099 19.706 18.331C19.706 18.5631 19.6138 18.7857 19.4497 18.9498C19.2857 19.1139 19.0631 19.206 18.831 19.206C18.599 19.206 18.3764 19.1139 18.2123 18.9498L14.5 15.2375L10.7877 18.9498C10.6236 19.1139 10.401 19.206 10.169 19.206C9.93691 19.206 9.71435 19.1139 9.55025 18.9498C9.38616 18.7857 9.29397 18.5631 9.29397 18.331C9.29397 18.099 9.38616 17.8764 9.55025 17.7123L13.2626 14L9.55025 10.2877C9.38616 10.1236 9.29397 9.90106 9.29397 9.66899C9.29397 9.43693 9.38616 9.21437 9.55025 9.05027C9.71435 8.88618 9.93691 8.79399 10.169 8.79399C10.401 8.79399 10.6236 8.88618 10.7877 9.05027L14.5 12.7626L18.2123 9.05027C18.3764 8.88618 18.599 8.79399 18.831 8.79399C19.0631 8.79399 19.2857 8.88618 19.4497 9.05027Z" fill="#D7260F"/>
</g>
<defs>
<clipPath id="clip0_2749_23200">
<rect width="28" height="28" fill="white" transform="translate(0.5)"/>
</clipPath>
</defs>
</svg>
