<svg width="19" height="18" viewBox="0 0 19 18" fill="none" xmlns="http://www.w3.org/2000/svg">
<path d="M14.1813 9.12669C14.1507 9.16418 14.1163 9.19793 14.0794 9.22856L7.83648 15.4734C7.72773 15.5828 7.58774 15.6565 7.43586 15.6834L2.8916 16.4971C2.84785 16.5009 2.80411 16.5009 2.76036 16.4971C2.53661 16.5009 2.32287 16.404 2.1785 16.2334C2.03413 16.0628 1.97225 15.8365 2.01163 15.6159L2.82473 11.0641C2.8516 10.9123 2.92473 10.7716 3.03473 10.6629L11.8608 1.82999C12.072 1.61812 12.3595 1.49938 12.6589 1.5C12.9582 1.49938 13.2451 1.61812 13.457 1.82999L16.6675 5.04304C16.88 5.25428 17 5.54178 17 5.84177C17 6.14176 16.88 6.42925 16.6675 6.6405L14.1819 9.12731L14.1813 9.12669ZM9.85393 5.95989L4.25907 11.5591L3.68596 14.8209L6.94525 14.2472L12.5401 8.64795L9.85393 5.95989V5.95989ZM10.9145 4.89867L13.6007 7.58672L15.3444 5.84177L12.6582 3.15371L10.9145 4.89867V4.89867Z" fill="#785EF0"/>
</svg>
