<svg width="24" height="24" viewBox="0 0 24 24" fill="none" xmlns="http://www.w3.org/2000/svg">
<path d="M16.9934 12.1352C16.9608 12.1752 16.9241 12.2112 16.8847 12.2438L10.2256 18.905C10.1096 19.0217 9.96027 19.1003 9.79827 19.129L4.95104 19.997C4.90437 20.001 4.85772 20.001 4.81105 19.997C4.57238 20.001 4.34439 19.8977 4.1904 19.7157C4.0364 19.5337 3.9704 19.2923 4.0124 19.057L4.87971 14.2017C4.90837 14.0398 4.98638 13.8897 5.10371 13.7738L14.5182 4.35199C14.7435 4.126 15.0502 3.99934 15.3695 4C15.6888 3.99934 15.9948 4.126 16.2208 4.35199L19.6454 7.77926C19.872 8.00458 20 8.31125 20 8.63124C20 8.95123 19.872 9.25789 19.6454 9.48322L16.9934 12.1352ZM12.3775 8.75723L6.40968 14.7297L5.79836 18.209L9.27495 17.5971L15.2428 11.6245L12.3775 8.75723ZM13.5088 7.62526L16.3741 10.4925L18.2341 8.63124L15.3688 5.76397L13.5088 7.62526Z" fill="#9021a6"/>
</svg>
