<svg width="24" height="24" viewBox="0 0 24 24" fill="none" xmlns="http://www.w3.org/2000/svg">
<path d="M11.9283 5.27001C11.9504 5.25791 11.9751 5.25172 12.0003 5.25201C12.0251 5.25191 12.0495 5.2581 12.0712 5.27001C12.0969 5.28543 12.1179 5.3076 12.1319 5.33412L19.8447 18.4572C19.8852 18.5246 19.8841 18.5966 19.847 18.663C19.8327 18.6902 19.8117 18.7135 19.7862 18.7305C19.7639 18.7442 19.738 18.7508 19.712 18.7496H4.28869C4.26258 18.7509 4.23669 18.7442 4.21445 18.7305C4.18887 18.7135 4.16798 18.6902 4.15371 18.663C4.13517 18.6318 4.12558 18.596 4.12598 18.5598C4.12637 18.5234 4.13674 18.488 4.15596 18.4572L11.8676 5.33412C11.8816 5.30764 11.9026 5.28547 11.9283 5.27001ZM13.1026 4.76385C12.9913 4.56988 12.8307 4.40874 12.6372 4.29668C12.4437 4.18462 12.224 4.12561 12.0003 4.12561C11.7767 4.12561 11.557 4.18462 11.3635 4.29668C11.1699 4.40874 11.0094 4.56988 10.8981 4.76385L3.18525 17.8869C2.67123 18.762 3.28761 19.8744 4.28757 19.8744H19.712C20.7119 19.8744 21.3294 18.7609 20.8143 17.8869L13.1026 4.76385Z" fill="#9021a6"/>
<path d="M10.8755 16.5C10.8755 16.3524 10.9046 16.2061 10.9611 16.0697C11.0176 15.9331 11.1005 15.8092 11.205 15.7047C11.3094 15.6003 11.4334 15.5174 11.5699 15.4609C11.7063 15.4044 11.8526 15.3753 12.0003 15.3753C12.148 15.3753 12.2943 15.4044 12.4308 15.4609C12.5672 15.5174 12.6912 15.6003 12.7957 15.7047C12.9001 15.8092 12.9829 15.9331 13.0395 16.0697C13.096 16.2061 13.1251 16.3524 13.1251 16.5C13.1251 16.7984 13.0066 17.0845 12.7957 17.2955C12.5847 17.5064 12.2986 17.6249 12.0003 17.6249C11.7019 17.6249 11.4159 17.5064 11.205 17.2955C10.994 17.0845 10.8755 16.7984 10.8755 16.5ZM10.9857 9.74568C10.9707 9.60374 10.9858 9.46025 11.0299 9.32456C11.0738 9.18888 11.146 9.06391 11.2414 8.95779C11.3369 8.85176 11.4535 8.76699 11.5839 8.70888C11.7143 8.65085 11.8554 8.62085 11.9981 8.62085C12.1407 8.62085 12.2818 8.65085 12.4122 8.70888C12.5425 8.76699 12.6592 8.85176 12.7547 8.95779C12.8502 9.06391 12.9223 9.18888 12.9663 9.32456C13.0103 9.46025 13.0254 9.60374 13.0104 9.74568L12.6167 13.6903C12.6035 13.8453 12.5325 13.9896 12.418 14.0948C12.3034 14.2001 12.1536 14.2584 11.9981 14.2584C11.8425 14.2584 11.6927 14.2001 11.5781 14.0948C11.4636 13.9896 11.3926 13.8453 11.3794 13.6903L10.9857 9.74568Z" fill="#9021a6"/>
</svg>
