<svg width="80" height="80" viewBox="0 0 80 80" fill="none" xmlns="http://www.w3.org/2000/svg">
<g clip-path="url(#clip0_2163_14813)">
<path d="M40 75C30.7174 75 21.815 71.3125 15.2513 64.7487C8.68749 58.185 5 49.2826 5 40C5 30.7174 8.68749 21.815 15.2513 15.2513C21.815 8.68749 30.7174 5 40 5C49.2826 5 58.185 8.68749 64.7487 15.2513C71.3125 21.815 75 30.7174 75 40C75 49.2826 71.3125 58.185 64.7487 64.7487C58.185 71.3125 49.2826 75 40 75ZM40 80C50.6087 80 60.7828 75.7857 68.2843 68.2843C75.7857 60.7828 80 50.6087 80 40C80 29.3913 75.7857 19.2172 68.2843 11.7157C60.7828 4.21427 50.6087 0 40 0C29.3913 0 19.2172 4.21427 11.7157 11.7157C4.21427 19.2172 0 29.3913 0 40C0 50.6087 4.21427 60.7828 11.7157 68.2843C19.2172 75.7857 29.3913 80 40 80Z" fill="#D7260F"/>
<path d="M35.0098 55.0005C35.0098 54.3439 35.1391 53.6937 35.3904 53.0871C35.6416 52.4804 36.0099 51.9292 36.4742 51.465C36.9385 51.0007 37.4897 50.6324 38.0963 50.3811C38.703 50.1298 39.3532 50.0005 40.0098 50.0005C40.6664 50.0005 41.3166 50.1298 41.9232 50.3811C42.5298 50.6324 43.081 51.0007 43.5453 51.465C44.0096 51.9292 44.3779 52.4804 44.6292 53.0871C44.8804 53.6937 45.0098 54.3439 45.0098 55.0005C45.0098 56.3266 44.483 57.5983 43.5453 58.536C42.6076 59.4737 41.3358 60.0005 40.0098 60.0005C38.6837 60.0005 37.4119 59.4737 36.4742 58.536C35.5366 57.5983 35.0098 56.3266 35.0098 55.0005ZM35.4998 24.9755C35.4332 24.3447 35.5 23.707 35.6958 23.1036C35.8916 22.5003 36.212 21.9449 36.6364 21.4734C37.0607 21.002 37.5794 20.625 38.1588 20.3669C38.7383 20.1088 39.3655 19.9755 39.9998 19.9755C40.6341 19.9755 41.2613 20.1088 41.8407 20.3669C42.4201 20.625 42.9388 21.002 43.3632 21.4734C43.7875 21.9449 44.108 22.5003 44.3038 23.1036C44.4996 23.707 44.5663 24.3447 44.4998 24.9755L42.7498 42.5105C42.691 43.1993 42.3758 43.8411 41.8665 44.3087C41.3573 44.7763 40.6911 45.0358 39.9998 45.0358C39.3084 45.0358 38.6422 44.7763 38.133 44.3087C37.6238 43.8411 37.3086 43.1993 37.2498 42.5105L35.4998 24.9755Z" fill="#D7260F"/>
</g>
<defs>
<clipPath id="clip0_2163_14813">
<rect width="80" height="80" fill="white"/>
</clipPath>
</defs>
</svg>
