<svg width="28" height="28" viewBox="0 0 28 28" fill="none" xmlns="http://www.w3.org/2000/svg">
<path d="M13.9164 6.14836C13.9421 6.13425 13.971 6.12702 14.0004 6.12736C14.0293 6.12725 14.0577 6.13447 14.0831 6.14836C14.1131 6.16635 14.1376 6.19222 14.1539 6.22316L23.1521 21.5334C23.1994 21.6121 23.1981 21.6961 23.1548 21.7735C23.1381 21.8053 23.1137 21.8324 23.0839 21.8523C23.0579 21.8682 23.0277 21.876 22.9973 21.8746H5.00347C4.97301 21.8761 4.94281 21.8683 4.91686 21.8523C4.88701 21.8324 4.86264 21.8053 4.846 21.7735C4.82437 21.7371 4.81318 21.6954 4.81364 21.6531C4.8141 21.6107 4.8262 21.5693 4.84862 21.5334L13.8455 6.22316C13.8619 6.19226 13.8864 6.1664 13.9164 6.14836ZM15.2864 5.55784C15.1565 5.33155 14.9692 5.14355 14.7434 5.01281C14.5176 4.88208 14.2613 4.81323 14.0004 4.81323C13.7395 4.81323 13.4832 4.88208 13.2574 5.01281C13.0316 5.14355 12.8443 5.33155 12.7144 5.55784L3.71613 20.8681C3.11643 21.889 3.83555 23.1868 5.00216 23.1868H22.9973C24.1639 23.1868 24.8843 21.8877 24.2833 20.8681L15.2864 5.55784Z" fill="#785EF0"/>
<path d="M12.6881 19.25C12.6881 19.0777 12.7221 18.9071 12.788 18.7479C12.8539 18.5886 12.9506 18.444 13.0725 18.3221C13.1943 18.2003 13.339 18.1036 13.4982 18.0377C13.6574 17.9717 13.8281 17.9378 14.0004 17.9378C14.1727 17.9378 14.3434 17.9717 14.5026 18.0377C14.6618 18.1036 14.8064 18.2003 14.9283 18.3221C15.0501 18.444 15.1468 18.5886 15.2128 18.7479C15.2787 18.9071 15.3126 19.0777 15.3126 19.25C15.3126 19.5981 15.1744 19.9319 14.9283 20.178C14.6822 20.4241 14.3484 20.5623 14.0004 20.5623C13.6523 20.5623 13.3186 20.4241 13.0725 20.178C12.8264 19.9319 12.6881 19.5981 12.6881 19.25ZM12.8167 11.3699C12.7992 11.2043 12.8168 11.0369 12.8682 10.8786C12.9195 10.7203 13.0037 10.5745 13.115 10.4507C13.2264 10.327 13.3625 10.2281 13.5146 10.1603C13.6667 10.0926 13.8313 10.0576 13.9978 10.0576C14.1642 10.0576 14.3288 10.0926 14.4809 10.1603C14.633 10.2281 14.7691 10.327 14.8805 10.4507C14.9919 10.5745 15.076 10.7203 15.1274 10.8786C15.1787 11.0369 15.1963 11.2043 15.1788 11.3699L14.7195 15.972C14.7041 16.1528 14.6213 16.3212 14.4877 16.4439C14.354 16.5667 14.1792 16.6348 13.9978 16.6348C13.8163 16.6348 13.6415 16.5667 13.5078 16.4439C13.3742 16.3212 13.2914 16.1528 13.276 15.972L12.8167 11.3699Z" fill="#785EF0"/>
</svg>
