<svg width="386" height="160" viewBox="0 0 386 160" fill="none" xmlns="http://www.w3.org/2000/svg">
<path fill-rule="evenodd" clip-rule="evenodd" d="M153.3 36H160.6V45.4957C160.6 49.5297 163.868 52.8 167.9 52.8H197.1C201.132 52.8 204.4 49.5297 204.4 45.4957V36H211.7C215.732 36 219 39.2703 219 43.3043V112.696C219 116.73 215.732 120 211.7 120H153.3C149.268 120 146 116.73 146 112.696V43.3043C146 39.2703 149.268 36 153.3 36ZM159.87 66.6783C157.048 66.6783 154.76 68.9674 154.76 71.7913C154.76 74.6152 157.048 76.9043 159.87 76.9043H178.85C181.672 76.9043 183.96 74.6152 183.96 71.7913C183.96 68.9674 181.672 66.6783 178.85 66.6783H159.87ZM154.76 87.8609C154.76 85.037 157.048 82.7478 159.87 82.7478H204.4C207.222 82.7478 209.51 85.037 209.51 87.8609C209.51 90.6847 207.222 92.9739 204.4 92.9739H159.87C157.048 92.9739 154.76 90.6847 154.76 87.8609ZM159.87 98.8174C157.048 98.8174 154.76 101.107 154.76 103.93C154.76 106.754 157.048 109.043 159.87 109.043H190.53C193.352 109.043 195.64 106.754 195.64 103.93C195.64 101.107 193.352 98.8174 190.53 98.8174H159.87Z" fill="#DEDEDD"/>
<rect x="165" y="28" width="35" height="21" rx="10" fill="#DEDEDD"/>
<circle cx="219.5" cy="111.5" r="20.5" fill="#E55C39"/>
<path d="M209.859 113.968C210.021 113.968 210.176 114.035 210.29 114.153C210.405 114.272 210.469 114.433 210.469 114.601V117.765C210.469 118.1 210.597 118.422 210.826 118.66C211.054 118.897 211.364 119.03 211.688 119.03H226.312C226.636 119.03 226.946 118.897 227.174 118.66C227.403 118.422 227.531 118.1 227.531 117.765V114.601C227.531 114.433 227.595 114.272 227.71 114.153C227.824 114.035 227.979 113.968 228.141 113.968C228.302 113.968 228.457 114.035 228.572 114.153C228.686 114.272 228.75 114.433 228.75 114.601V117.765C228.75 118.436 228.493 119.08 228.036 119.555C227.579 120.029 226.959 120.296 226.312 120.296H211.688C211.041 120.296 210.421 120.029 209.964 119.555C209.507 119.08 209.25 118.436 209.25 117.765V114.601C209.25 114.433 209.314 114.272 209.428 114.153C209.543 114.035 209.698 113.968 209.859 113.968Z" fill="white"/>
<path d="M218.569 116.441C218.625 116.5 218.692 116.547 218.766 116.579C218.84 116.611 218.92 116.627 219 116.627C219.08 116.627 219.16 116.611 219.234 116.579C219.308 116.547 219.375 116.5 219.431 116.441L223.088 112.644C223.202 112.525 223.266 112.364 223.266 112.196C223.266 112.028 223.202 111.867 223.088 111.748C222.973 111.629 222.818 111.562 222.656 111.562C222.494 111.562 222.339 111.629 222.225 111.748L219.609 114.465V103.337C219.609 103.169 219.545 103.008 219.431 102.889C219.317 102.771 219.162 102.704 219 102.704C218.838 102.704 218.683 102.771 218.569 102.889C218.455 103.008 218.391 103.169 218.391 103.337V114.465L215.775 111.748C215.661 111.629 215.506 111.562 215.344 111.562C215.182 111.562 215.027 111.629 214.912 111.748C214.798 111.867 214.734 112.028 214.734 112.196C214.734 112.364 214.798 112.525 214.912 112.644L218.569 116.441Z" fill="white"/>
</svg>
