<svg width="386" height="160" viewBox="0 0 386 160" fill="none" xmlns="http://www.w3.org/2000/svg">
<path d="M195.897 65.6945L179.008 66.4403L178.889 80.7017L189.534 91.4722L196.611 75.0031L195.897 65.6945Z" fill="white"/>
<path d="M174.052 62.4722C168.213 59.2453 164.36 52.7626 164.389 46.1646C164.418 39.5666 168.33 33.1127 174.198 29.9434C180.065 26.7741 188.677 27.1198 194.194 31.3552" fill="white"/>
<path fill-rule="evenodd" clip-rule="evenodd" d="M193.816 31.8611C188.519 27.7953 180.183 27.4503 174.525 30.5062C168.862 33.5647 165.078 39.8079 165.05 46.1724C165.022 52.5367 168.749 58.808 174.385 61.9225C174.738 62.1178 174.864 62.5588 174.666 62.9075C174.468 63.2563 174.021 63.3807 173.668 63.1854C167.57 59.8155 163.553 53.0601 163.584 46.1661C163.614 39.2723 167.692 32.5466 173.821 29.2365C179.955 25.9239 188.926 26.2735 194.717 30.7186C195.037 30.964 195.094 31.4187 194.845 31.7341C194.597 32.0496 194.136 32.1065 193.816 31.8611Z" fill="#333333"/>
<path d="M189.715 39.9394L179.618 43.8273C178.643 44.1946 177.553 43.6742 177.208 42.6028L174.971 36.021C174.627 34.9801 175.114 33.8168 176.118 33.4495L186.215 29.5616C187.191 29.1943 188.281 29.7147 188.625 30.7862L190.862 37.3679C191.207 38.4088 190.719 39.5721 189.715 39.9394Z" fill="#333333"/>
<path d="M174.056 45.5556L199.78 42.5766C199.78 42.5766 205.032 34.9248 204.646 32.5008C204.053 29.0254 198.326 24.2065 174.056 45.5556Z" fill="white"/>
<path fill-rule="evenodd" clip-rule="evenodd" d="M202.719 29.3815C203.916 30.13 204.466 31.302 204.637 32.3357L204.638 32.3438C204.707 32.7875 204.644 33.2841 204.531 33.7668C204.415 34.2611 204.231 34.801 204.008 35.3549C203.563 36.4631 202.939 37.6873 202.314 38.8164C201.687 39.9488 201.049 41.0016 200.568 41.7703C200.328 42.155 200.126 42.4695 199.984 42.6882C199.914 42.7975 199.858 42.883 199.819 42.9414C199.8 42.9706 199.785 42.9931 199.775 43.0084L199.763 43.0259L199.759 43.0322C199.759 43.0323 199.759 43.0324 199.158 42.6201L199.759 43.0322C199.641 43.2098 199.452 43.3265 199.242 43.3515L174.061 46.356C173.746 46.3936 173.444 46.22 173.314 45.9271C173.184 45.6342 173.256 45.2896 173.492 45.0756C185.382 34.2996 192.841 30.0177 197.477 28.9344C199.814 28.3884 201.525 28.6344 202.719 29.3815ZM198.739 41.9286C198.749 41.9128 198.76 41.8964 198.771 41.8793C198.909 41.6664 199.106 41.3588 199.342 40.9818C199.813 40.2271 200.437 39.1977 201.048 38.0951C201.66 36.9892 202.251 35.8256 202.663 34.7991C202.87 34.2857 203.025 33.8215 203.118 33.4258C203.213 33.0215 203.229 32.7431 203.204 32.5753C203.084 31.8576 202.715 31.1097 201.957 30.635C201.194 30.1578 199.91 29.8773 197.803 30.3696C193.763 31.3136 187.039 35.0215 176.196 44.6183L198.739 41.9286Z" fill="#333333"/>
<path d="M182.937 68.9167C179.542 67.703 176.528 65.3939 174.48 62.4041C172.432 59.4142 171.583 55.3882 171.642 51.747C171.993 52.5167 172.373 53.3456 173.046 53.8784C173.719 54.4113 174.802 54.5001 175.387 53.8784C175.943 53.2568 175.797 52.3095 175.621 51.4806C175.212 49.5268 174.802 47.573 174.392 45.6193L199.85 42.3333L201.723 51.0662C202.396 54.5889 202.513 56.6611 201.548 60.1246C200.582 63.5882 198.036 66.7853 194.583 67.6141" fill="white"/>
<path fill-rule="evenodd" clip-rule="evenodd" d="M199.092 42.3392C199.461 42.2918 199.804 42.5364 199.883 42.9025L201.718 51.4254C201.719 51.4307 201.72 51.4361 201.721 51.4414C202.394 54.9517 202.52 57.0943 201.535 60.6152C200.542 64.1639 197.898 67.5441 194.189 68.4313C193.804 68.5234 193.418 68.2834 193.327 67.8953C193.235 67.5072 193.473 67.1179 193.858 67.0258C196.913 66.2951 199.257 63.4348 200.156 60.2231C201.061 56.9861 200.959 55.0844 200.315 51.7236L198.622 43.856L175.109 46.8798L176.151 51.8316C176.151 51.8319 176.151 51.8322 176.152 51.8324C176.238 52.24 176.334 52.7467 176.321 53.2481C176.308 53.7594 176.179 54.3331 175.753 54.8077C175.749 54.8123 175.745 54.8168 175.74 54.8213C175.282 55.3061 174.659 55.4825 174.089 55.4677C173.52 55.453 172.941 55.2503 172.487 54.8919C172.452 54.8647 172.418 54.8369 172.385 54.8086C172.672 57.4785 173.486 60.1444 174.922 62.2323C176.841 65.0238 179.67 67.184 182.855 68.3188C183.228 68.4517 183.424 68.8644 183.292 69.2405C183.16 69.6166 182.751 69.8137 182.377 69.6808C178.913 68.4464 175.837 66.0997 173.744 63.0552C171.628 59.9775 170.777 55.8859 170.836 52.2313C170.842 51.8943 171.078 51.6059 171.405 51.5363C171.732 51.4667 172.063 51.6343 172.203 51.9403C172.562 52.7242 172.871 53.3605 173.37 53.7544C173.575 53.916 173.856 54.0167 174.126 54.0236C174.389 54.0304 174.58 53.9499 174.696 53.8315C174.811 53.6996 174.881 53.5091 174.888 53.2097C174.897 52.8953 174.835 52.5356 174.75 52.1343L174.75 52.1329L173.546 46.4124C173.504 46.215 173.547 46.009 173.663 45.8444C173.779 45.6798 173.958 45.5717 174.156 45.5461L199.092 42.3392Z" fill="#333333"/>
<path fill-rule="evenodd" clip-rule="evenodd" d="M174.811 45.2086C174.96 45.5757 174.764 45.9866 174.372 46.1263C171.762 47.0581 170.128 48.608 169.224 50.4561C168.313 52.3205 168.122 54.5393 168.514 56.814C168.581 57.2018 168.3 57.567 167.887 57.6297C167.474 57.6924 167.084 57.4288 167.018 57.041C166.591 54.5642 166.779 52.0459 167.846 49.863C168.921 47.6639 170.865 45.8565 173.833 44.7967C174.225 44.657 174.663 44.8414 174.811 45.2086Z" fill="#333333"/>
<path fill-rule="evenodd" clip-rule="evenodd" d="M178.856 66.514C179.372 66.4331 179.87 66.7101 179.969 67.1328C180.677 70.1592 180.677 73.313 179.969 76.3395C179.87 76.7621 179.372 77.0391 178.856 76.9582C178.34 76.8772 178.002 76.469 178.1 76.0464C178.763 73.2135 178.763 70.2587 178.1 67.4258C178.002 67.0032 178.34 66.595 178.856 66.514Z" fill="#333333"/>
<path fill-rule="evenodd" clip-rule="evenodd" d="M196.366 66.5287C196.801 66.6381 197.051 67.0293 196.923 67.4025C196.604 68.3345 196.588 69.3507 196.726 70.4301C196.836 71.2963 197.039 72.1619 197.244 73.0394C197.297 73.2643 197.35 73.49 197.401 73.7167C197.488 74.0984 197.197 74.4681 196.752 74.5424C196.307 74.6168 195.875 74.3676 195.788 73.9859C195.741 73.7771 195.691 73.5635 195.64 73.3462C195.433 72.4629 195.211 71.5183 195.092 70.5832C194.942 69.4095 194.942 68.1865 195.346 67.0061C195.474 66.633 195.931 66.4192 196.366 66.5287Z" fill="#333333"/>
<path d="M236.741 35.3079L222.595 42.9299C221.654 43.4245 221.301 44.5882 221.83 45.5191L223.948 49.3884C224.448 50.3193 225.624 50.6684 226.565 50.1447L240.711 42.5227C241.652 42.0281 242.005 40.8644 241.475 39.9335L239.358 36.0934C238.829 35.1624 237.652 34.8133 236.741 35.3079Z" fill="#333333"/>
<path fill-rule="evenodd" clip-rule="evenodd" d="M236.518 35.3288C237.523 34.7873 238.807 35.1732 239.382 36.1776L239.383 36.1801L241.452 39.906C241.452 39.9065 241.452 39.907 241.453 39.9074C242.031 40.9202 241.645 42.1863 240.614 42.7248C240.614 42.725 240.614 42.7252 240.613 42.7254L226.79 50.1232C226.79 50.1235 226.79 50.1237 226.789 50.124C225.758 50.6927 224.469 50.3127 223.921 49.3001C223.921 49.2998 223.921 49.2996 223.921 49.2993L221.853 45.5457C221.274 44.5331 221.661 43.2671 222.691 42.7285C222.692 42.7283 222.692 42.7282 222.692 42.728L236.517 35.329C236.517 35.3289 236.518 35.3289 236.518 35.3288ZM238.987 36.3945C238.527 35.5923 237.511 35.3007 236.735 35.7191L236.734 35.7194L222.905 43.1209C222.097 43.5427 221.794 44.5348 222.248 45.3292L222.25 45.3324L224.321 49.0906C224.75 49.8847 225.76 50.1823 226.568 49.7355L226.571 49.734L240.399 42.3336L240.401 42.3325C241.209 41.9107 241.512 40.9186 241.057 40.1242L241.056 40.1216L238.987 36.3957C238.987 36.3953 238.987 36.3949 238.987 36.3945Z" fill="#333333"/>
<path d="M186.542 55.2222C187.209 55.2222 187.75 54.6812 187.75 54.0139C187.75 53.3465 187.209 52.8055 186.542 52.8055C185.874 52.8055 185.333 53.3465 185.333 54.0139C185.333 54.6812 185.874 55.2222 186.542 55.2222Z" fill="#333333"/>
<path d="M195.403 55.2222C196.07 55.2222 196.611 54.6812 196.611 54.0139C196.611 53.3465 196.07 52.8055 195.403 52.8055C194.735 52.8055 194.194 53.3465 194.194 54.0139C194.194 54.6812 194.735 55.2222 195.403 55.2222Z" fill="#333333"/>
<path fill-rule="evenodd" clip-rule="evenodd" d="M191.439 51.2116C191.731 51.1331 192.026 51.3312 192.097 51.6541C192.354 52.8216 192.52 54.8571 192.574 55.5671L192.574 55.5709L192.574 55.5709C192.639 56.5063 192.365 57.3484 191.822 57.8852C191.27 58.4322 190.498 58.6011 189.72 58.2885C189.437 58.175 189.291 57.8297 189.394 57.5174C189.497 57.2051 189.809 57.044 190.092 57.1576C190.513 57.3264 190.857 57.2245 191.095 56.9892C191.343 56.7441 191.531 56.2932 191.488 55.665C191.432 54.9295 191.271 52.9963 191.038 51.9385C190.967 51.6156 191.147 51.2902 191.439 51.2116Z" fill="#333333"/>
<path d="M189.247 59.251L192.807 59.5135C193.293 59.5398 193.481 60.0125 193.347 60.4588C192.807 62.1919 189.921 64.0825 188.6 60.17C188.438 59.7236 188.735 59.2247 189.247 59.251Z" fill="#333333"/>
<path d="M226.487 41.5278C225.993 40.2511 224.888 39.3089 223.754 38.5794C222.591 37.8802 221.34 37.3635 220.235 36.6036C219.654 36.1781 219.043 35.5398 219.188 34.8102C219.363 34.1111 220.177 33.8072 220.875 33.8984C221.573 33.9592 222.242 34.2631 222.911 34.2631C221.108 32.9865 219.799 30.9804 219.305 28.7614C219.217 28.3663 219.159 27.9408 219.247 27.576C219.334 27.2112 219.654 26.8465 220.061 26.8161C220.41 26.7857 220.73 27.0593 220.991 27.3024C221.776 28.0319 222.503 28.8526 223.114 29.7341C223.027 28.9134 222.503 28.2447 222.184 27.4848C221.864 26.7249 221.835 25.6611 222.532 25.2659C223.289 24.8404 224.19 25.5699 224.597 26.3906C225.004 27.2112 225.266 28.1535 225.993 28.6399C225.76 27.6368 225.615 26.5729 225.557 25.5395C225.528 25.1747 225.528 24.81 225.644 24.4756C225.76 24.1413 226.051 23.8373 226.4 23.8069C226.894 23.7765 227.243 24.2628 227.505 24.6884C228.261 26.0258 228.872 27.4544 229.308 28.9134C229.163 27.9104 229.279 26.8465 229.599 25.8738C229.686 25.6307 229.802 25.3571 230.035 25.2051C230.471 24.9619 231.024 25.3875 231.227 25.8738C231.663 26.8769 231.402 28.0623 231.605 29.1566C231.809 30.3116 232.448 31.2843 233.117 32.2266C234.106 33.6856 235.095 35.1446 236.083 36.6036" fill="white"/>
<path fill-rule="evenodd" clip-rule="evenodd" d="M226.444 24.4662C226.436 24.4704 226.423 24.4781 226.408 24.4921C226.369 24.5267 226.334 24.5775 226.316 24.627C226.255 24.7949 226.243 25.0152 226.27 25.3405C226.27 25.3464 226.271 25.3524 226.271 25.3583C226.327 26.3131 226.468 27.2939 226.692 28.2142C226.762 28.5046 226.649 28.8086 226.405 28.9822C226.161 29.1557 225.836 29.1639 225.584 29.0028C225.067 28.6724 224.744 28.2046 224.51 27.7735C224.393 27.5577 224.289 27.3352 224.196 27.1328C224.188 27.1173 224.181 27.102 224.174 27.0867C224.086 26.896 224.007 26.7233 223.921 26.5576C223.769 26.2655 223.527 26.0012 223.286 25.8573C223.051 25.7171 222.917 25.7391 222.838 25.7817C222.765 25.8209 222.682 25.9091 222.658 26.1486C222.632 26.3963 222.689 26.7082 222.808 26.9797C222.902 27.1925 223.002 27.3717 223.117 27.5779C223.186 27.7032 223.262 27.8385 223.345 27.9973C223.541 28.3737 223.745 28.8285 223.804 29.3594C223.841 29.6895 223.65 30.003 223.34 30.1227C223.029 30.2424 222.677 30.1384 222.482 29.8693C221.901 29.0682 221.204 28.3169 220.448 27.6456C220.317 27.5301 220.218 27.4497 220.13 27.3984C220.083 27.3709 220.057 27.3627 220.047 27.3604C220.039 27.3613 220.01 27.3675 219.969 27.4064C219.923 27.4499 219.895 27.5045 219.886 27.5396C219.844 27.7109 219.864 27.974 219.948 28.3384C220.405 30.2973 221.618 32.0707 223.282 33.1952C223.548 33.3755 223.666 33.7083 223.571 34.0156C223.477 34.3229 223.193 34.5327 222.87 34.5327C222.437 34.5327 222.024 34.4391 221.686 34.3594C221.655 34.3519 221.624 34.3446 221.593 34.3374C221.274 34.2617 221.016 34.2006 220.757 34.179C220.747 34.1781 220.737 34.1771 220.727 34.1758C220.498 34.1473 220.257 34.1839 220.078 34.2669C219.918 34.3414 219.855 34.4267 219.831 34.4957C219.819 34.5796 219.839 34.6983 219.967 34.8764C220.106 35.0711 220.328 35.269 220.584 35.4492C221.1 35.787 221.657 36.0763 222.252 36.3733C222.349 36.4216 222.447 36.4702 222.546 36.5193C223.049 36.7684 223.576 37.03 224.086 37.3227C224.093 37.3263 224.099 37.33 224.105 37.3338C225.283 38.0569 226.568 39.0677 227.157 40.5214C227.309 40.896 227.128 41.3225 226.753 41.4741C226.377 41.6257 225.95 41.445 225.798 41.0704C225.392 40.0685 224.452 39.2664 223.346 38.5858C222.881 38.3196 222.403 38.0827 221.905 37.8353C221.803 37.7848 221.7 37.7339 221.597 37.6822C220.993 37.3809 220.366 37.0573 219.769 36.6659C219.763 36.662 219.758 36.658 219.752 36.654C219.426 36.4261 219.05 36.1141 218.772 35.7255C218.491 35.3319 218.27 34.7962 218.399 34.1786C218.401 34.1667 218.404 34.1549 218.407 34.1431C218.564 33.5416 219.003 33.152 219.46 32.94C219.804 32.7804 220.188 32.7041 220.562 32.703C219.576 31.544 218.866 30.1529 218.52 28.6696L218.519 28.6681C218.428 28.2719 218.331 27.7157 218.464 27.1847C218.61 26.6013 219.146 25.9597 219.94 25.901C220.319 25.8707 220.639 26.0009 220.867 26.1333C220.983 26.2008 221.091 26.278 221.187 26.3531C221.183 26.2353 221.187 26.1172 221.199 26.0003C221.255 25.4505 221.508 24.8359 222.14 24.4945L222.142 24.4936C222.824 24.1267 223.526 24.2957 224.039 24.6014C224.322 24.7708 224.579 24.9966 224.794 25.2501C224.779 24.9125 224.796 24.5176 224.938 24.1269C225.122 23.6218 225.611 23.0636 226.329 23.0039C226.335 23.0034 226.341 23.003 226.347 23.0026C226.86 22.9725 227.256 23.2074 227.525 23.4489C227.786 23.6835 227.984 23.9744 228.121 24.1861C228.126 24.1938 228.131 24.2017 228.135 24.2096C228.403 24.6618 228.653 25.1245 228.885 25.5956C228.897 25.5587 228.91 25.522 228.922 25.4854C228.925 25.479 228.927 25.4726 228.929 25.4663C229.015 25.2382 229.201 24.7495 229.667 24.4589C229.681 24.45 229.696 24.4416 229.711 24.4337C230.235 24.1549 230.768 24.2983 231.122 24.5105C231.474 24.7214 231.765 25.0572 231.927 25.4249C232.211 26.0496 232.255 26.7022 232.27 27.2508C232.273 27.3787 232.275 27.5 232.277 27.616C232.284 28.0386 232.29 28.3924 232.359 28.7444L232.36 28.7515C232.531 29.6781 233.075 30.4918 233.753 31.4041C233.756 31.4084 233.759 31.4128 233.763 31.4172L236.754 35.6317C236.988 35.9614 236.91 36.4181 236.579 36.6517C236.249 36.8852 235.791 36.8073 235.557 36.4775L232.571 32.2695C231.902 31.3695 231.159 30.3132 230.919 29.0201C230.824 28.5296 230.816 28.0124 230.809 27.5776C230.808 27.4771 230.806 27.381 230.804 27.2906C230.789 26.765 230.745 26.3658 230.591 26.026L230.586 26.0165C230.567 25.9728 230.536 25.922 230.493 25.8732C230.458 25.8334 230.422 25.8019 230.389 25.7793C230.364 25.8263 230.337 25.8874 230.306 25.9708C230.02 26.8057 229.921 27.707 230.047 28.5403C230.105 28.9185 229.861 29.277 229.487 29.3629C229.114 29.4489 228.737 29.2333 228.623 28.8682C228.201 27.5229 227.611 26.203 226.88 24.9661C226.756 24.7738 226.648 24.6295 226.544 24.5366C226.496 24.4929 226.463 24.4745 226.446 24.4675C226.445 24.467 226.444 24.4666 226.444 24.4662ZM230.446 25.6989C230.446 25.6989 230.445 25.699 230.445 25.6992ZM220.044 27.3597C220.044 27.3597 220.044 27.3597 220.044 27.3597Z" fill="#333333"/>
<path d="M236.365 37.5C236.365 37.5292 236.365 37.5585 236.306 37.5877C235.398 38.4354 225.586 43.9311 224.678 44.3696C226.377 48.5498 228.076 52.7301 229.774 56.9103C230.477 58.635 231.18 60.4182 231.122 62.2891C230.946 67.5509 223.799 68.3402 219.904 69.451C217.239 70.211 214.544 70.9126 211.849 71.585C209.506 72.1404 206.431 73.3974 204 73.3097C201.276 73.222 196.121 73.105 196.121 73.105C193.924 78.5715 191.699 84.0379 189.502 89.5044C186.104 85.0903 182.531 79.2146 179.133 74.8005C176.468 75.2682 173.774 75.736 171.079 76.0575C159.187 77.5484 149.258 86.3181 145.012 98.0403C144.279 100.057 144.25 101.139 144.25 101.139H211.849L212.347 94.357C212.347 94.357 229.452 91.843 242.837 80.5593C246.967 77.0806 249.193 71.7019 249.691 66.4401C250.775 54.8348 241.432 46.7959 236.365 37.5Z" fill="#333333"/>
<path fill-rule="evenodd" clip-rule="evenodd" d="M236.137 37.5072C236.238 37.4811 236.345 37.5279 236.395 37.6209C237.649 39.9448 239.17 42.193 240.735 44.4471C240.954 44.7636 241.175 45.0803 241.396 45.3973C242.745 47.3346 244.104 49.2844 245.32 51.2879C248.152 55.9535 250.237 60.9428 249.69 66.8488C249.191 72.1828 246.955 77.6534 242.786 81.1994C236.094 86.8963 228.476 90.3761 222.536 92.4317C219.566 93.4597 217.012 94.1323 215.201 94.5481C214.295 94.7559 213.575 94.8996 213.08 94.9914C212.833 95.0373 212.642 95.0703 212.513 95.0918C212.507 95.0927 212.502 95.0936 212.496 95.0945L212.014 101.73C212.005 101.851 211.905 101.944 211.785 101.944H144.48C144.418 101.944 144.358 101.919 144.315 101.874C144.272 101.83 144.248 101.769 144.25 101.707L144.48 101.713C144.25 101.707 144.25 101.707 144.25 101.707L144.25 101.706L144.25 101.705L144.25 101.701L144.251 101.69C144.251 101.68 144.252 101.665 144.253 101.647C144.256 101.61 144.26 101.557 144.267 101.487C144.282 101.347 144.309 101.142 144.36 100.873C144.46 100.335 144.653 99.5443 145.022 98.5189C149.276 86.6636 159.226 77.7781 171.163 76.2669L171.165 76.2668C173.84 75.9443 176.517 75.4752 179.171 75.0049C179.256 74.9899 179.341 75.0234 179.393 75.0918C181.089 77.3163 182.827 79.9075 184.561 82.4911L184.563 82.4947C186.215 84.9574 187.863 87.4132 189.472 89.5516C190.516 86.9294 191.566 84.3073 192.617 81.6854L192.617 81.6842C193.718 78.9366 194.819 76.1893 195.912 73.4421C195.948 73.3525 196.035 73.2946 196.13 73.2968L196.125 73.5282C196.13 73.2968 196.13 73.2968 196.13 73.2968L196.553 73.3066C196.672 73.3094 196.814 73.3128 196.975 73.3166C197.498 73.329 198.225 73.3464 199.036 73.3666C200.658 73.407 202.62 73.4585 203.977 73.5026L203.978 73.5026C205.151 73.5454 206.493 73.26 207.849 72.8862C208.393 72.7363 208.944 72.5708 209.484 72.4083C210.272 72.1713 211.038 71.9408 211.731 71.775C214.412 71.0995 217.091 70.395 219.741 69.6319C220.336 69.4607 221.012 69.2957 221.722 69.1223C222.173 69.0122 222.637 68.8987 223.104 68.778C224.316 68.4648 225.56 68.0992 226.686 67.6069C228.942 66.6209 230.661 65.1571 230.744 62.6468C230.8 60.8223 230.122 59.0739 229.419 57.3335L224.345 44.7251C224.299 44.612 224.349 44.4828 224.458 44.4297C224.901 44.2137 227.561 42.7272 230.232 41.1824C231.566 40.4113 232.898 39.628 233.953 38.9846C234.48 38.6628 234.937 38.3768 235.29 38.1454C235.648 37.9097 235.882 37.7409 235.978 37.6506M196.279 73.7633C195.205 76.4619 194.124 79.1604 193.043 81.8587L193.042 81.8599C191.942 84.6075 190.841 87.3548 189.748 90.102C189.717 90.1792 189.648 90.2338 189.566 90.2451C189.484 90.2565 189.403 90.2228 189.352 90.1569C187.657 87.9324 185.918 85.3413 184.185 82.7577L184.183 82.754C182.476 80.2095 180.773 77.6724 179.114 75.4851C176.505 75.9471 173.863 76.4078 171.219 76.7263C159.477 78.2133 149.657 86.9615 145.454 98.6764C145.093 99.6787 144.907 100.446 144.811 100.959C144.769 101.181 144.745 101.356 144.73 101.482H211.571L212.052 94.8777C212.059 94.7695 212.141 94.6814 212.247 94.6656L212.281 94.8946C212.247 94.6656 212.247 94.6656 212.247 94.6656L212.248 94.6655L212.25 94.6652L212.259 94.6639C212.267 94.6627 212.279 94.6608 212.295 94.6583C212.326 94.6533 212.374 94.6456 212.438 94.6351C212.564 94.614 212.752 94.5816 212.997 94.5362C213.486 94.4455 214.2 94.3031 215.099 94.0967C216.897 93.684 219.434 93.0157 222.387 91.9939C228.294 89.9495 235.855 86.4933 242.49 80.8458C246.544 77.3971 248.741 72.0521 249.233 66.8059C249.766 61.0441 247.738 56.1585 244.928 51.5295C243.72 49.5395 242.371 47.6031 241.021 45.6651C240.8 45.3476 240.579 45.0302 240.358 44.7124C238.854 42.5455 237.379 40.3671 236.14 38.1153C235.994 38.2282 235.788 38.3705 235.54 38.5331C235.182 38.7687 234.72 39.0576 234.191 39.3806C233.131 40.0267 231.795 40.812 230.461 41.5839C228.051 42.9772 225.632 44.334 224.85 44.7477L229.845 57.1591M196.279 73.7633L196.346 73.7648C196.491 73.7682 196.702 73.7731 196.964 73.7793C197.487 73.7917 198.214 73.8092 199.025 73.8294C200.647 73.8698 202.607 73.9212 203.962 73.9653M236.137 37.5072C236.062 37.5263 236.004 37.5811 235.978 37.6506ZM235.964 37.7326C235.964 37.7358 235.963 37.7372 235.963 37.7371C235.963 37.737 235.963 37.7354 235.964 37.7326Z" fill="#333333"/>
<path fill-rule="evenodd" clip-rule="evenodd" d="M166.172 94.7136C166.614 94.8038 166.887 95.188 166.784 95.5716L165.205 101.394C165.102 101.778 164.659 102.016 164.217 101.925C163.775 101.835 163.501 101.451 163.605 101.067L165.183 95.2447C165.287 94.8611 165.73 94.6233 166.172 94.7136Z" fill="white"/>
<path fill-rule="evenodd" clip-rule="evenodd" d="M229.078 65.072C229.378 64.805 229.836 64.8333 230.101 65.1351C230.768 65.8939 231.885 67.1634 233.001 68.4331C234.118 69.7027 235.234 70.9724 235.901 71.7313C236.167 72.0331 236.139 72.4943 235.839 72.7613C235.539 73.0283 235.081 73.0001 234.815 72.6982C234.148 71.9395 233.032 70.6702 231.916 69.4006L231.915 69.4003C230.799 68.1307 229.682 66.861 229.015 66.102C228.75 65.8002 228.778 65.3391 229.078 65.072Z" fill="white"/>
<path d="M224.189 139H145.672C144.01 139 142.639 137.663 142.639 135.978V104.161C142.639 102.505 143.981 101.139 145.672 101.139H224.189C225.851 101.139 227.222 102.475 227.222 104.161V135.978C227.222 137.663 225.881 139 224.189 139Z" fill="#EB5E5E"/>
<path d="M146.101 128.364C146.101 128.364 150.513 129.214 150.302 127.044C150.181 125.782 148.337 125.548 147.189 125.46C148.186 125.254 149.455 125.606 150.12 124.814C150.694 124.169 150.362 123.113 149.667 122.614C148.972 122.086 148.065 121.969 147.219 121.881C148.065 121.969 150.694 121.91 150.694 120.414C150.694 118.684 148.821 118.86 147.521 118.977C148.216 118.948 148.912 118.948 149.516 118.654C150.12 118.361 150.604 117.686 150.453 117.041C150.241 116.22 149.244 115.926 148.398 115.78C146.343 115.428 144.228 115.222 142.142 115.193C142.142 113.932 142.233 112.67 142.233 111.438C142.233 110.94 142.203 110.382 141.78 110.118C141.478 109.942 141.085 109.972 140.783 110.148C140.48 110.294 140.239 110.558 140.027 110.852C139.241 111.82 138.667 113.345 138.244 114.489C138.244 114.46 135.011 128.54 146.101 128.364Z" fill="white"/>
<path fill-rule="evenodd" clip-rule="evenodd" d="M140.393 109.434C140.891 109.155 141.576 109.082 142.154 109.419C142.161 109.423 142.167 109.427 142.174 109.431C142.605 109.7 142.8 110.103 142.889 110.449C142.974 110.783 142.98 111.13 142.98 111.382C142.98 112.012 142.957 112.647 142.934 113.27L142.934 113.288C142.92 113.676 142.906 114.061 142.897 114.443C144.792 114.507 146.7 114.709 148.559 115.027L148.56 115.027C149.009 115.105 149.565 115.232 150.054 115.481C150.553 115.735 151.057 116.158 151.234 116.846C151.235 116.851 151.236 116.856 151.238 116.861C151.367 117.414 151.216 117.941 150.961 118.352C150.887 118.471 150.802 118.585 150.707 118.691C150.813 118.77 150.913 118.862 151.005 118.968C151.343 119.355 151.5 119.853 151.5 120.423C151.5 121.043 151.214 121.526 150.805 121.864C150.657 121.987 150.494 122.09 150.324 122.176C150.736 122.529 151.03 123.014 151.153 123.523C151.292 124.1 151.223 124.784 150.744 125.329C150.626 125.469 150.497 125.584 150.362 125.679C150.744 125.991 151.043 126.427 151.101 127.031C151.139 127.426 151.075 127.799 150.896 128.13C150.718 128.457 150.452 128.694 150.167 128.862C149.619 129.183 148.933 129.29 148.351 129.322C147.75 129.355 147.154 129.311 146.718 129.263C146.498 129.238 146.313 129.212 146.182 129.191C146.129 129.182 146.084 129.175 146.049 129.169C143.116 129.199 141.033 128.286 139.613 126.823C138.203 125.37 137.523 123.452 137.219 121.614C136.914 119.77 136.977 117.938 137.111 116.58C137.178 115.898 137.265 115.33 137.334 114.93C137.369 114.73 137.4 114.572 137.423 114.463C137.434 114.409 137.443 114.366 137.45 114.335C137.453 114.321 137.457 114.307 137.459 114.296C137.46 114.292 137.462 114.284 137.464 114.275C137.465 114.272 137.469 114.258 137.474 114.242C137.476 114.236 137.481 114.222 137.487 114.205L137.486 114.205C137.899 113.089 138.511 111.439 139.387 110.35C139.617 110.034 139.938 109.662 140.393 109.434ZM146.262 127.705L146.269 127.706C146.276 127.707 146.286 127.709 146.3 127.712C146.328 127.717 146.371 127.724 146.427 127.733C146.538 127.75 146.699 127.774 146.892 127.795C147.282 127.839 147.784 127.873 148.266 127.847C148.769 127.82 149.153 127.73 149.379 127.598C149.48 127.539 149.527 127.484 149.55 127.44C149.573 127.399 149.601 127.32 149.586 127.169L149.586 127.168C149.566 126.954 149.416 126.741 148.896 126.55C148.382 126.361 147.724 126.285 147.15 126.241C146.773 126.212 146.475 125.919 146.45 125.552C146.426 125.186 146.682 124.858 147.052 124.782C147.371 124.716 147.695 124.698 147.976 124.689C148.078 124.686 148.171 124.684 148.259 124.683C148.436 124.679 148.593 124.676 148.756 124.664C149.235 124.631 149.444 124.539 149.571 124.388C149.576 124.382 149.581 124.377 149.585 124.372C149.678 124.268 149.729 124.099 149.671 123.859C149.612 123.614 149.452 123.376 149.253 123.232C149.247 123.228 149.241 123.224 149.236 123.22C148.731 122.837 148.036 122.726 147.159 122.634C146.741 122.591 146.439 122.227 146.484 121.821C146.528 121.416 146.903 121.122 147.321 121.165C147.685 121.203 148.464 121.208 149.119 121.044C149.447 120.962 149.681 120.853 149.819 120.739C149.933 120.645 149.979 120.556 149.979 120.423C149.979 120.121 149.9 119.987 149.843 119.921C149.779 119.848 149.663 119.771 149.443 119.716C149.223 119.661 148.967 119.642 148.688 119.644C148.361 119.685 148.047 119.696 147.771 119.706C147.704 119.708 147.639 119.71 147.577 119.713C147.165 119.73 146.813 119.425 146.785 119.025C146.757 118.625 147.063 118.277 147.474 118.239C147.496 118.237 147.518 118.235 147.541 118.233C147.837 118.206 148.199 118.174 148.579 118.168C148.816 118.135 149.022 118.082 149.212 117.989C149.389 117.904 149.554 117.756 149.658 117.589C149.758 117.428 149.776 117.292 149.756 117.196C149.718 117.059 149.612 116.924 149.347 116.789C149.068 116.647 148.697 116.552 148.294 116.482C146.262 116.134 144.173 115.931 142.117 115.902C141.701 115.896 141.367 115.567 141.367 115.164C141.367 114.513 141.39 113.865 141.413 113.236L141.413 113.231C141.436 112.599 141.458 111.986 141.458 111.382C141.458 111.131 141.449 110.947 141.413 110.808C141.396 110.744 141.379 110.709 141.368 110.692C141.364 110.686 141.362 110.683 141.359 110.68C141.346 110.675 141.325 110.671 141.294 110.672C141.248 110.674 141.196 110.689 141.15 110.715C141.133 110.725 141.116 110.734 141.099 110.743C140.966 110.807 140.812 110.95 140.621 111.215C140.613 111.226 140.604 111.237 140.595 111.248C139.904 112.1 139.369 113.487 138.934 114.662C138.929 114.684 138.923 114.714 138.914 114.754C138.895 114.849 138.867 114.993 138.834 115.177C138.77 115.547 138.689 116.08 138.625 116.721C138.498 118.009 138.445 119.705 138.722 121.38C139 123.062 139.599 124.654 140.72 125.81C141.818 126.942 143.492 127.732 146.102 127.691C146.155 127.69 146.209 127.695 146.262 127.705C146.262 127.705 146.262 127.705 146.262 127.705Z" fill="#333333"/>
<path d="M169.097 127H166.595V121.816H161.897V127H159.395V114.184H161.897V119.602H166.595V114.184H169.097V127Z" fill="white"/>
<path d="M180.339 127H175.803C174.363 127 173.349 126.754 172.761 126.262C172.185 125.758 171.897 124.876 171.897 123.616V114.184H180.339V116.416H174.399V119.422H178.557L178.377 121.654H174.399V123.436C174.399 123.94 174.513 124.288 174.741 124.48C174.969 124.672 175.383 124.768 175.983 124.768H180.339V127Z" fill="white"/>
<path d="M190.698 127H186.882C185.442 127 184.398 126.724 183.75 126.172C183.114 125.608 182.796 124.696 182.796 123.436V114.184H185.298V123.436C185.298 123.94 185.412 124.288 185.64 124.48C185.868 124.672 186.282 124.768 186.882 124.768H190.698V127Z" fill="white"/>
<path d="M200.594 127H196.778C195.338 127 194.294 126.724 193.646 126.172C193.01 125.608 192.692 124.696 192.692 123.436V114.184H195.194V123.436C195.194 123.94 195.308 124.288 195.536 124.48C195.764 124.672 196.178 124.768 196.778 124.768H200.594V127Z" fill="white"/>
<path d="M211.985 119.998V120.97C211.985 123.118 211.577 124.678 210.761 125.65C209.957 126.622 208.661 127.108 206.873 127.108C205.085 127.108 203.789 126.622 202.985 125.65C202.193 124.678 201.797 123.1 201.797 120.916V119.98C201.797 117.988 202.199 116.506 203.003 115.534C203.819 114.562 205.103 114.076 206.855 114.076C208.619 114.076 209.915 114.568 210.743 115.552C211.571 116.536 211.985 118.018 211.985 119.998ZM209.483 120.916V120.25C209.483 119.098 209.339 118.18 209.051 117.496C208.715 116.704 207.995 116.308 206.891 116.308C205.775 116.308 205.049 116.704 204.713 117.496C204.437 118.144 204.299 119.062 204.299 120.25V120.916C204.299 122.464 204.515 123.508 204.947 124.048C205.115 124.276 205.361 124.474 205.685 124.642C206.021 124.798 206.417 124.876 206.873 124.876C207.341 124.876 207.737 124.798 208.061 124.642C208.385 124.486 208.637 124.294 208.817 124.066C208.997 123.838 209.135 123.538 209.231 123.166C209.399 122.578 209.483 121.828 209.483 120.916Z" fill="white"/>
<path d="M217.593 114.184L217.053 121.96C217.005 122.296 216.885 122.56 216.693 122.752C216.513 122.932 216.309 123.022 216.081 123.022C215.853 123.022 215.649 122.926 215.469 122.734C215.301 122.542 215.217 122.284 215.217 121.96L214.695 114.184H217.593ZM217.341 124.588C217.533 124.768 217.629 125.158 217.629 125.758C217.629 126.358 217.533 126.754 217.341 126.946C217.161 127.138 216.771 127.234 216.171 127.234C215.571 127.234 215.175 127.138 214.983 126.946C214.791 126.754 214.695 126.358 214.695 125.758C214.695 125.158 214.791 124.768 214.983 124.588C215.175 124.396 215.571 124.3 216.171 124.3C216.771 124.3 217.161 124.396 217.341 124.588Z" fill="white"/>
</svg>
