<svg class="input-box" width="213" height="72" viewBox="0 0 213 72" xmlns="http://www.w3.org/2000/svg">
    <path d="M6 21C6 9.40202 15.402 0 27 0H147C158.598 0 168 9.40202 168 21V21C168 32.598 158.598 42 147 42H27C15.402 42 6 32.598 6 21V21Z" fill="#DEDEDD"></path>
    <path d="M11 21C11 12.1634 18.1634 5 27 5H147C155.837 5 163 12.1634 163 21V21C163 29.8366 155.837 37 147 37H27C18.1634 37 11 29.8366 11 21V21Z" fill="white"></path>
    <path d="M36 49C36 48.4477 36.4477 48 37 48H51C51.5523 48 52 48.4477 52 49V49C52 49.5523 51.5523 50 51 50H37C36.4477 50 36 49.5523 36 49V49Z" fill="#DEDEDD"></path>
    <path d="M56 49C56 48.4477 56.4477 48 57 48H71C71.5523 48 72 48.4477 72 49V49C72 49.5523 71.5523 50 71 50H57C56.4477 50 56 49.5523 56 49V49Z" fill="#DEDEDD"></path>
    <path d="M131 49C131 48.4477 131.448 48 132 48H146C146.552 48 147 48.4477 147 49V49C147 49.5523 146.552 50 146 50H132C131.448 50 131 49.5523 131 49V49Z" fill="#DEDEDD"></path>
    <path d="M151 49C151 48.4477 151.448 48 152 48H166C166.552 48 167 48.4477 167 49V49C167 49.5523 166.552 50 166 50H152C151.448 50 151 49.5523 151 49V49Z" fill="#DEDEDD"></path>
    <path d="M174 49C174 48.4477 174.448 48 175 48H189C189.552 48 190 48.4477 190 49V49C190 49.5523 189.552 50 189 50H175C174.448 50 174 49.5523 174 49V49Z" fill="#DEDEDD"></path>
    <path d="M0 57C0 56.4477 0.447715 56 1 56H15C15.5523 56 16 56.4477 16 57V57C16 57.5523 15.5523 58 15 58H1C0.447715 58 0 57.5523 0 57V57Z" fill="#DEDEDD"></path>
    <path d="M19 57C19 56.4477 19.4477 56 20 56H212C212.552 56 213 56.4477 213 57V57C213 57.5523 212.552 58 212 58H20C19.4477 58 19 57.5523 19 57V57Z" fill="#DEDEDD"></path>
    <g filter="url(#filter0_d_2090_12315)">
        <path fill-rule="evenodd" clip-rule="evenodd" d="M183.821 36.7005L134 15L146.51 67.8822L156.572 55.0556L170.757 70.9884L184 59.1984L170.14 43.6301L183.821 36.7005Z" fill="#E55C39"></path>
    </g>
    <defs>
        <filter id="filter0_d_2090_12315" x="134" y="15" width="51.9999" height="56.9883" filterUnits="userSpaceOnUse" color-interpolation-filters="sRGB">
        <feFlood flood-opacity="0" result="BackgroundImageFix"></feFlood>
        <feColorMatrix in="SourceAlpha" type="matrix" values="0 0 0 0 0 0 0 0 0 0 0 0 0 0 0 0 0 0 127 0" result="hardAlpha"></feColorMatrix>
        <feOffset dx="2" dy="1"></feOffset>
        <feColorMatrix type="matrix" values="0 0 0 0 0.819608 0 0 0 0 0.858824 0 0 0 0 0.870588 0 0 0 1 0"></feColorMatrix>
        <feBlend mode="normal" in2="BackgroundImageFix" result="effect1_dropShadow_2090_12315"></feBlend>
        <feBlend mode="normal" in="SourceGraphic" in2="effect1_dropShadow_2090_12315" result="shape"></feBlend>
        </filter>
    </defs>
</svg>