<svg width="213" height="72" viewBox="0 0 213 72" fill="none" xmlns="http://www.w3.org/2000/svg">
<rect x="6" width="162" height="42" rx="21" fill="#D1DBDE"/>
<rect x="11" y="5" width="152" height="32" rx="16" fill="white"/>
<path d="M27.6562 14.8438V17.3203C27.6562 17.7526 27.6406 18.1641 27.6094 18.5547C27.5833 18.9453 27.5625 19.2214 27.5469 19.3828H27.6719C27.8594 19.0807 28.0807 18.8359 28.3359 18.6484C28.5964 18.4609 28.8828 18.3229 29.1953 18.2344C29.5078 18.1458 29.8438 18.1016 30.2031 18.1016C30.8333 18.1016 31.3828 18.2135 31.8516 18.4375C32.3203 18.6562 32.6849 19.0026 32.9453 19.4766C33.2057 19.9453 33.3359 20.5547 33.3359 21.3047V27H30.9531V21.8984C30.9531 21.2734 30.8385 20.8021 30.6094 20.4844C30.3802 20.1667 30.026 20.0078 29.5469 20.0078C29.0677 20.0078 28.6901 20.1198 28.4141 20.3438C28.138 20.5625 27.9427 20.888 27.8281 21.3203C27.7135 21.7474 27.6562 22.2708 27.6562 22.8906V27H25.2734V14.8438H27.6562ZM39.4688 25.2578C39.7292 25.2578 39.9818 25.2318 40.2266 25.1797C40.4766 25.1276 40.724 25.0625 40.9688 24.9844V26.7578C40.7135 26.8724 40.3958 26.9661 40.0156 27.0391C39.6406 27.1172 39.2292 27.1562 38.7812 27.1562C38.2604 27.1562 37.7917 27.0729 37.375 26.9062C36.9635 26.7344 36.638 26.4401 36.3984 26.0234C36.1641 25.6016 36.0469 25.0156 36.0469 24.2656V20.0547H34.9062V19.0469L36.2188 18.25L36.9062 16.4062H38.4297V18.2656H40.875V20.0547H38.4297V24.2656C38.4297 24.599 38.5234 24.849 38.7109 25.0156C38.9036 25.1771 39.1562 25.2578 39.4688 25.2578ZM46.4219 25.2578C46.6823 25.2578 46.9349 25.2318 47.1797 25.1797C47.4297 25.1276 47.6771 25.0625 47.9219 24.9844V26.7578C47.6667 26.8724 47.349 26.9661 46.9688 27.0391C46.5938 27.1172 46.1823 27.1562 45.7344 27.1562C45.2135 27.1562 44.7448 27.0729 44.3281 26.9062C43.9167 26.7344 43.5911 26.4401 43.3516 26.0234C43.1172 25.6016 43 25.0156 43 24.2656V20.0547H41.8594V19.0469L43.1719 18.25L43.8594 16.4062H45.3828V18.2656H47.8281V20.0547H45.3828V24.2656C45.3828 24.599 45.4766 24.849 45.6641 25.0156C45.8568 25.1771 46.1094 25.2578 46.4219 25.2578ZM54.5547 18.1016C55.5391 18.1016 56.3333 18.4844 56.9375 19.25C57.5469 20.0156 57.8516 21.138 57.8516 22.6172C57.8516 23.6068 57.7083 24.4401 57.4219 25.1172C57.1354 25.7891 56.7396 26.2969 56.2344 26.6406C55.7292 26.9844 55.1484 27.1562 54.4922 27.1562C54.0703 27.1562 53.7083 27.1042 53.4062 27C53.1042 26.8906 52.8464 26.7526 52.6328 26.5859C52.4193 26.4141 52.2344 26.2318 52.0781 26.0391H51.9531C51.9948 26.2474 52.026 26.4609 52.0469 26.6797C52.0677 26.8984 52.0781 27.112 52.0781 27.3203V30.8438H49.6953V18.2656H51.6328L51.9688 19.3984H52.0781C52.2344 19.1641 52.4245 18.9479 52.6484 18.75C52.8724 18.5521 53.1406 18.3958 53.4531 18.2812C53.7708 18.1615 54.138 18.1016 54.5547 18.1016ZM53.7891 20.0078C53.3724 20.0078 53.0417 20.0938 52.7969 20.2656C52.5521 20.4375 52.3724 20.6953 52.2578 21.0391C52.1484 21.3828 52.0885 21.8177 52.0781 22.3438V22.6016C52.0781 23.1641 52.1302 23.6406 52.2344 24.0312C52.3438 24.4219 52.5234 24.7188 52.7734 24.9219C53.0286 25.125 53.3776 25.2266 53.8203 25.2266C54.1849 25.2266 54.4844 25.125 54.7188 24.9219C54.9531 24.7188 55.1276 24.4219 55.2422 24.0312C55.362 23.6354 55.4219 23.1536 55.4219 22.5859C55.4219 21.7318 55.2891 21.0885 55.0234 20.6562C54.7578 20.224 54.3464 20.0078 53.7891 20.0078ZM65.9141 24.4062C65.9141 25 65.7734 25.5026 65.4922 25.9141C65.2161 26.3203 64.8021 26.6302 64.25 26.8438C63.6979 27.0521 63.0104 27.1562 62.1875 27.1562C61.5781 27.1562 61.0547 27.1172 60.6172 27.0391C60.1849 26.9609 59.7474 26.8307 59.3047 26.6484V24.6797C59.7786 24.8932 60.2865 25.0703 60.8281 25.2109C61.375 25.3464 61.8542 25.4141 62.2656 25.4141C62.7292 25.4141 63.0599 25.3464 63.2578 25.2109C63.4609 25.0703 63.5625 24.888 63.5625 24.6641C63.5625 24.5182 63.5208 24.388 63.4375 24.2734C63.3594 24.1536 63.1875 24.0208 62.9219 23.875C62.6562 23.724 62.2396 23.5286 61.6719 23.2891C61.125 23.0599 60.6745 22.8281 60.3203 22.5938C59.9714 22.3594 59.7109 22.0833 59.5391 21.7656C59.3724 21.4427 59.2891 21.0339 59.2891 20.5391C59.2891 19.7318 59.6016 19.125 60.2266 18.7188C60.8568 18.3073 61.6979 18.1016 62.75 18.1016C63.2917 18.1016 63.8073 18.1562 64.2969 18.2656C64.7917 18.375 65.2995 18.5495 65.8203 18.7891L65.1016 20.5078C64.6693 20.3203 64.2604 20.1667 63.875 20.0469C63.4948 19.9271 63.1068 19.8672 62.7109 19.8672C62.362 19.8672 62.099 19.9141 61.9219 20.0078C61.7448 20.1016 61.6562 20.2448 61.6562 20.4375C61.6562 20.5781 61.7005 20.7031 61.7891 20.8125C61.8828 20.9219 62.0599 21.0443 62.3203 21.1797C62.5859 21.3099 62.974 21.4792 63.4844 21.6875C63.9792 21.8906 64.4089 22.1042 64.7734 22.3281C65.138 22.5469 65.4193 22.8203 65.6172 23.1484C65.8151 23.4714 65.9141 23.8906 65.9141 24.4062ZM67.4375 25.8828C67.4375 25.3932 67.5703 25.0495 67.8359 24.8516C68.1068 24.6536 68.4323 24.5547 68.8125 24.5547C69.1823 24.5547 69.5 24.6536 69.7656 24.8516C70.0365 25.0495 70.1719 25.3932 70.1719 25.8828C70.1719 26.3516 70.0365 26.6901 69.7656 26.8984C69.5 27.1068 69.1823 27.2109 68.8125 27.2109C68.4323 27.2109 68.1068 27.1068 67.8359 26.8984C67.5703 26.6901 67.4375 26.3516 67.4375 25.8828ZM67.4375 19.4297C67.4375 18.9401 67.5703 18.5964 67.8359 18.3984C68.1068 18.2005 68.4323 18.1016 68.8125 18.1016C69.1823 18.1016 69.5 18.2005 69.7656 18.3984C70.0365 18.5964 70.1719 18.9401 70.1719 19.4297C70.1719 19.9036 70.0365 20.2448 69.7656 20.4531C69.5 20.6562 69.1823 20.7578 68.8125 20.7578C68.4323 20.7578 68.1068 20.6562 67.8359 20.4531C67.5703 20.2448 67.4375 19.9036 67.4375 19.4297ZM77.6172 15.5781L73.3594 27H71.1953L75.4531 15.5781H77.6172ZM84.2266 15.5781L79.9688 27H77.8047L82.0625 15.5781H84.2266ZM92.7344 27L92.0625 23.9453C92.026 23.763 91.9661 23.4948 91.8828 23.1406C91.7995 22.7812 91.7083 22.3984 91.6094 21.9922C91.5156 21.5807 91.4271 21.2005 91.3438 20.8516C91.2656 20.5026 91.2083 20.2474 91.1719 20.0859H91.1016C91.0651 20.2474 91.0078 20.5026 90.9297 20.8516C90.8516 21.2005 90.763 21.5807 90.6641 21.9922C90.5703 22.4036 90.4818 22.7917 90.3984 23.1562C90.3151 23.5156 90.2526 23.7891 90.2109 23.9766L89.5078 27H86.9453L84.4609 18.2656H86.8359L87.8438 22.1328C87.9115 22.4036 87.9766 22.7266 88.0391 23.1016C88.1016 23.4714 88.1562 23.8307 88.2031 24.1797C88.2552 24.5234 88.2943 24.7969 88.3203 25H88.3828C88.3932 24.849 88.4141 24.6484 88.4453 24.3984C88.4818 24.1484 88.5208 23.8906 88.5625 23.625C88.6094 23.3542 88.651 23.112 88.6875 22.8984C88.7292 22.6797 88.7604 22.5312 88.7812 22.4531L89.8594 18.2656H92.4844L93.5078 22.4531C93.5443 22.6042 93.5911 22.8438 93.6484 23.1719C93.7109 23.5 93.7656 23.8385 93.8125 24.1875C93.8594 24.5312 93.8854 24.8021 93.8906 25H93.9531C93.974 24.8229 94.0104 24.5599 94.0625 24.2109C94.1146 23.862 94.1745 23.4974 94.2422 23.1172C94.3151 22.7318 94.388 22.4036 94.4609 22.1328L95.5078 18.2656H97.8438L95.3281 27H92.7344ZM106.438 27L105.766 23.9453C105.729 23.763 105.669 23.4948 105.586 23.1406C105.503 22.7812 105.411 22.3984 105.312 21.9922C105.219 21.5807 105.13 21.2005 105.047 20.8516C104.969 20.5026 104.911 20.2474 104.875 20.0859H104.805C104.768 20.2474 104.711 20.5026 104.633 20.8516C104.555 21.2005 104.466 21.5807 104.367 21.9922C104.273 22.4036 104.185 22.7917 104.102 23.1562C104.018 23.5156 103.956 23.7891 103.914 23.9766L103.211 27H100.648L98.1641 18.2656H100.539L101.547 22.1328C101.615 22.4036 101.68 22.7266 101.742 23.1016C101.805 23.4714 101.859 23.8307 101.906 24.1797C101.958 24.5234 101.997 24.7969 102.023 25H102.086C102.096 24.849 102.117 24.6484 102.148 24.3984C102.185 24.1484 102.224 23.8906 102.266 23.625C102.312 23.3542 102.354 23.112 102.391 22.8984C102.432 22.6797 102.464 22.5312 102.484 22.4531L103.562 18.2656H106.188L107.211 22.4531C107.247 22.6042 107.294 22.8438 107.352 23.1719C107.414 23.5 107.469 23.8385 107.516 24.1875C107.562 24.5312 107.589 24.8021 107.594 25H107.656C107.677 24.8229 107.714 24.5599 107.766 24.2109C107.818 23.862 107.878 23.4974 107.945 23.1172C108.018 22.7318 108.091 22.4036 108.164 22.1328L109.211 18.2656H111.547L109.031 27H106.438ZM120.141 27L119.469 23.9453C119.432 23.763 119.372 23.4948 119.289 23.1406C119.206 22.7812 119.115 22.3984 119.016 21.9922C118.922 21.5807 118.833 21.2005 118.75 20.8516C118.672 20.5026 118.615 20.2474 118.578 20.0859H118.508C118.471 20.2474 118.414 20.5026 118.336 20.8516C118.258 21.2005 118.169 21.5807 118.07 21.9922C117.977 22.4036 117.888 22.7917 117.805 23.1562C117.721 23.5156 117.659 23.7891 117.617 23.9766L116.914 27H114.352L111.867 18.2656H114.242L115.25 22.1328C115.318 22.4036 115.383 22.7266 115.445 23.1016C115.508 23.4714 115.562 23.8307 115.609 24.1797C115.661 24.5234 115.701 24.7969 115.727 25H115.789C115.799 24.849 115.82 24.6484 115.852 24.3984C115.888 24.1484 115.927 23.8906 115.969 23.625C116.016 23.3542 116.057 23.112 116.094 22.8984C116.135 22.6797 116.167 22.5312 116.188 22.4531L117.266 18.2656H119.891L120.914 22.4531C120.951 22.6042 120.997 22.8438 121.055 23.1719C121.117 23.5 121.172 23.8385 121.219 24.1875C121.266 24.5312 121.292 24.8021 121.297 25H121.359C121.38 24.8229 121.417 24.5599 121.469 24.2109C121.521 23.862 121.581 23.4974 121.648 23.1172C121.721 22.7318 121.794 22.4036 121.867 22.1328L122.914 18.2656H125.25L122.734 27H120.141ZM126.328 25.8828C126.328 25.3932 126.461 25.0495 126.727 24.8516C126.997 24.6536 127.323 24.5547 127.703 24.5547C128.073 24.5547 128.391 24.6536 128.656 24.8516C128.927 25.0495 129.062 25.3932 129.062 25.8828C129.062 26.3516 128.927 26.6901 128.656 26.8984C128.391 27.1068 128.073 27.2109 127.703 27.2109C127.323 27.2109 126.997 27.1068 126.727 26.8984C126.461 26.6901 126.328 26.3516 126.328 25.8828Z" fill="#EB5D5E"/>
<rect x="36" y="48" width="16" height="2" rx="1" fill="#D1DBDE"/>
<rect x="56" y="48" width="16" height="2" rx="1" fill="#D1DBDE"/>
<rect x="131" y="48" width="16" height="2" rx="1" fill="#D1DBDE"/>
<rect x="151" y="48" width="16" height="2" rx="1" fill="#D1DBDE"/>
<rect x="174" y="48" width="16" height="2" rx="1" fill="#D1DBDE"/>
<rect y="56" width="16" height="2" rx="1" fill="#D1DBDE"/>
<rect x="19" y="56" width="194" height="2" rx="1" fill="#D1DBDE"/>
<g filter="url(#filter0_d_2133_18400)">
<path fill-rule="evenodd" clip-rule="evenodd" d="M183.821 36.7005L134 15L146.51 67.8822L156.572 55.0556L170.757 70.9884L184 59.1984L170.14 43.6301L183.821 36.7005Z" fill="#EB5D5E"/>
</g>
<defs>
<filter id="filter0_d_2133_18400" x="134" y="15" width="51.9999" height="56.9884" filterUnits="userSpaceOnUse" color-interpolation-filters="sRGB">
<feFlood flood-opacity="0" result="BackgroundImageFix"/>
<feColorMatrix in="SourceAlpha" type="matrix" values="0 0 0 0 0 0 0 0 0 0 0 0 0 0 0 0 0 0 127 0" result="hardAlpha"/>
<feOffset dx="2" dy="1"/>
<feColorMatrix type="matrix" values="0 0 0 0 0.819608 0 0 0 0 0.858824 0 0 0 0 0.870588 0 0 0 1 0"/>
<feBlend mode="normal" in2="BackgroundImageFix" result="effect1_dropShadow_2133_18400"/>
<feBlend mode="normal" in="SourceGraphic" in2="effect1_dropShadow_2133_18400" result="shape"/>
</filter>
</defs>
</svg>
