<svg width="113" height="116" viewBox="0 0 113 116" fill="none" xmlns="http://www.w3.org/2000/svg">
<path d="M58.8975 42.6945L42.0078 43.4403L41.8889 57.7017L52.5341 68.4722L59.6111 52.0031L58.8975 42.6945Z" fill="white"/>
<path d="M37.0517 39.4722C31.2133 36.2453 27.3599 29.7626 27.3891 23.1646C27.4182 16.5666 31.33 10.1127 37.1977 6.9434C43.0653 3.77407 51.6771 4.11982 57.1944 8.35519" fill="white"/>
<path fill-rule="evenodd" clip-rule="evenodd" d="M56.8164 8.86109C51.5194 4.79535 43.1835 4.45028 37.5251 7.50623C31.8619 10.5647 28.0783 16.8079 28.0502 23.1724C28.022 29.5367 31.7489 35.808 37.3846 38.9225C37.738 39.1178 37.8641 39.5588 37.6662 39.9075C37.4683 40.2563 37.0214 40.3807 36.668 40.1854C30.5702 36.8155 26.553 30.0601 26.5835 23.1661C26.614 16.2723 30.6919 9.54663 36.8209 6.23652C42.9547 2.92385 51.9257 3.27354 57.7169 7.71858C58.0366 7.96396 58.0941 8.41865 57.8455 8.73415C57.5968 9.04965 57.1361 9.10648 56.8164 8.86109Z" fill="#333333"/>
<path d="M52.715 16.9394L42.6179 20.8273C41.6426 21.1946 40.5526 20.6742 40.2083 19.6028L37.9709 13.021C37.6267 11.9801 38.1143 10.8168 39.1183 10.4495L49.2154 6.56164C50.1907 6.19428 51.2808 6.7147 51.625 7.78616L53.8624 14.3679C54.2066 15.4088 53.719 16.5721 52.715 16.9394Z" fill="#333333"/>
<path d="M37.0556 22.5556L62.7804 19.5766C62.7804 19.5766 68.0321 11.9248 67.6464 9.5008C67.053 6.02536 61.3265 1.20649 37.0556 22.5556Z" fill="white"/>
<path fill-rule="evenodd" clip-rule="evenodd" d="M65.7191 6.3815C66.9156 7.13005 67.4656 8.30202 67.6368 9.33567L67.6381 9.34377C67.7067 9.78753 67.6442 10.2841 67.5309 10.7668C67.4149 11.2611 67.2308 11.801 67.0082 12.3549C66.563 13.4631 65.9392 14.6873 65.3138 15.8164C64.6865 16.9488 64.0486 18.0016 63.5682 18.7703C63.3277 19.155 63.1262 19.4695 62.9845 19.6882C62.9136 19.7975 62.8577 19.883 62.8193 19.9414C62.8001 19.9706 62.7852 19.9931 62.7751 20.0084L62.7635 20.0259L62.7593 20.0322C62.7592 20.0323 62.7592 20.0324 62.1575 19.6201L62.7593 20.0322C62.641 20.2098 62.4522 20.3265 62.2424 20.3515L37.061 23.356C36.7464 23.3936 36.4442 23.22 36.3141 22.9271C36.184 22.6342 36.2561 22.2896 36.4923 22.0756C48.3821 11.2996 55.8406 7.01773 60.4769 5.93441C62.8136 5.38842 64.5249 5.63439 65.7191 6.3815ZM61.7389 18.9286C61.7492 18.9128 61.7598 18.8964 61.7709 18.8793C61.9088 18.6664 62.106 18.3588 62.3416 17.9818C62.8133 17.2271 63.4369 16.1977 64.0477 15.0951C64.6603 13.9892 65.251 12.8256 65.6634 11.7991C65.8697 11.2857 66.0253 10.8215 66.1181 10.4258C66.213 10.0215 66.2291 9.74313 66.204 9.57528C66.084 8.85765 65.7155 8.10974 64.9566 7.635C64.194 7.15784 62.9101 6.87728 60.803 7.36962C56.7632 8.31356 50.0395 12.0215 39.1964 21.6183L61.7389 18.9286Z" fill="#333333"/>
<path d="M45.9369 45.9167C42.5425 44.703 39.5285 42.3939 37.4801 39.4041C35.4318 36.4142 34.5832 32.3882 34.6417 28.747C34.9929 29.5167 35.3733 30.3456 36.0463 30.8784C36.7193 31.4113 37.802 31.5001 38.3873 30.8784C38.9432 30.2568 38.7969 29.3095 38.6213 28.4806C38.2117 26.5268 37.802 24.573 37.3923 22.6193L62.8503 19.3333L64.7231 28.0662C65.3961 31.5889 65.5132 33.6611 64.5475 37.1246C63.5819 40.5882 61.0361 43.7853 57.5831 44.6141" fill="white"/>
<path fill-rule="evenodd" clip-rule="evenodd" d="M62.0923 19.3392C62.461 19.2918 62.8044 19.5364 62.8832 19.9025L64.7176 28.4254C64.7188 28.4307 64.7198 28.4361 64.7209 28.4414C65.394 31.9517 65.5202 34.0943 64.535 37.6152C63.542 41.1639 60.8985 44.5441 57.1892 45.4313C56.8042 45.5234 56.4179 45.2834 56.3266 44.8953C56.2352 44.5072 56.4733 44.1179 56.8583 44.0258C59.9133 43.2951 62.257 40.4348 63.1557 37.2231C64.0615 33.9861 63.9593 32.0844 63.3153 28.7236L61.622 20.856L38.1093 23.8798L39.1513 28.8316C39.1514 28.8319 39.1515 28.8322 39.1515 28.8324C39.2381 29.24 39.3343 29.7467 39.3211 30.2481C39.3076 30.7594 39.1788 31.3331 38.7528 31.8077C38.7487 31.8123 38.7445 31.8168 38.7403 31.8213C38.2823 32.3061 37.6593 32.4825 37.0888 32.4677C36.5204 32.453 35.9411 32.2503 35.4868 31.8919C35.4523 31.8647 35.4185 31.8369 35.3853 31.8086C35.6721 34.4785 36.4862 37.1444 37.9218 39.2323C39.8412 42.0238 42.67 44.184 45.855 45.3188C46.2281 45.4517 46.4237 45.8644 46.2918 46.2405C46.16 46.6166 45.7506 46.8137 45.3774 46.6808C41.9129 45.4464 38.8373 43.0997 36.7439 40.0552C34.6278 36.9775 33.7772 32.8859 33.8362 29.2313C33.8416 28.8943 34.0775 28.6059 34.4046 28.5363C34.7317 28.4667 35.0631 28.6343 35.2033 28.9403C35.5622 29.7242 35.8708 30.3605 36.3701 30.7544C36.575 30.916 36.8555 31.0167 37.1255 31.0236C37.3887 31.0304 37.5804 30.9499 37.6963 30.8315C37.8112 30.6996 37.8806 30.5091 37.8885 30.2097C37.8967 29.8953 37.8354 29.5356 37.7501 29.1343L37.7497 29.1329L36.5459 23.4124C36.5044 23.215 36.5467 23.009 36.6626 22.8444C36.7786 22.6798 36.9576 22.5717 37.1562 22.5461L62.0923 19.3392Z" fill="#333333"/>
<path fill-rule="evenodd" clip-rule="evenodd" d="M37.8114 22.2086C37.9602 22.5757 37.7637 22.9866 37.3724 23.1263C34.7623 24.0581 33.1277 25.608 32.2243 27.4561C31.313 29.3205 31.1223 31.5393 31.5142 33.814C31.5811 34.2018 31.3002 34.567 30.8869 34.6297C30.4737 34.6924 30.0845 34.4288 30.0177 34.041C29.5909 31.5642 29.7793 29.0459 30.8464 26.863C31.9213 24.6639 33.8645 22.8565 36.8334 21.7967C37.2247 21.657 37.6625 21.8414 37.8114 22.2086Z" fill="#333333"/>
<path fill-rule="evenodd" clip-rule="evenodd" d="M41.856 43.514C42.372 43.4331 42.8705 43.7101 42.9693 44.1328C43.6769 47.1592 43.6769 50.313 42.9693 53.3395C42.8705 53.7621 42.372 54.0391 41.856 53.9582C41.3399 53.8772 41.0017 53.469 41.1005 53.0464C41.7628 50.2135 41.7628 47.2587 41.1005 44.4258C41.0017 44.0032 41.3399 43.595 41.856 43.514Z" fill="#333333"/>
<path fill-rule="evenodd" clip-rule="evenodd" d="M59.366 43.5287C59.8014 43.6381 60.0509 44.0293 59.9232 44.4025C59.6041 45.3345 59.5878 46.3507 59.7255 47.4301C59.8361 48.2963 60.0388 49.1619 60.2443 50.0394C60.297 50.2643 60.3498 50.49 60.4014 50.7167C60.4881 51.0984 60.1974 51.4681 59.7519 51.5424C59.3065 51.6168 58.8751 51.3676 58.7883 50.9859C58.7408 50.7771 58.6908 50.5635 58.6398 50.3462C58.4327 49.4629 58.2113 48.5183 58.0919 47.5832C57.9421 46.4095 57.9422 45.1865 58.3462 44.0061C58.474 43.633 58.9305 43.4192 59.366 43.5287Z" fill="#333333"/>
<path d="M99.7405 12.3079L85.5948 19.9299C84.6537 20.4245 84.3008 21.5882 84.8302 22.5191L86.9476 26.3884C87.4476 27.3193 88.6239 27.6684 89.565 27.1447L103.711 19.5227C104.652 19.0281 105.005 17.8644 104.475 16.9335L102.358 13.0934C101.829 12.1624 100.652 11.8133 99.7405 12.3079Z" fill="#333333"/>
<path fill-rule="evenodd" clip-rule="evenodd" d="M99.5177 12.3288C100.523 11.7873 101.807 12.1732 102.382 13.1776L102.383 13.1801L104.452 16.906C104.452 16.9065 104.452 16.907 104.453 16.9074C105.031 17.9202 104.645 19.1863 103.614 19.7248C103.614 19.725 103.614 19.7252 103.613 19.7254L89.7904 27.1232C89.79 27.1235 89.7895 27.1237 89.789 27.124C88.7582 27.6927 87.4694 27.3127 86.9214 26.3001C86.9212 26.2998 86.9211 26.2996 86.921 26.2993L84.8528 22.5457C84.2742 21.5331 84.6609 20.2671 85.6912 19.7285C85.6916 19.7283 85.6919 19.7282 85.6923 19.728L99.5173 12.329C99.5174 12.3289 99.5175 12.3289 99.5177 12.3288ZM101.987 13.3945C101.527 12.5923 100.511 12.3007 99.735 12.7191L99.7344 12.7194L85.9047 20.1209C85.0965 20.5427 84.7936 21.5348 85.2484 22.3292L85.2502 22.3324L87.3208 26.0906C87.7502 26.8847 88.7599 27.1823 89.5684 26.7355L89.5711 26.734L103.399 19.3336L103.401 19.3325C104.209 18.9107 104.512 17.9186 104.057 17.1242L104.056 17.1216L101.987 13.3957C101.987 13.3953 101.987 13.3949 101.987 13.3945Z" fill="#333333"/>
<path d="M49.5417 32.2222C50.209 32.2222 50.75 31.6812 50.75 31.0139C50.75 30.3465 50.209 29.8055 49.5417 29.8055C48.8743 29.8055 48.3333 30.3465 48.3333 31.0139C48.3333 31.6812 48.8743 32.2222 49.5417 32.2222Z" fill="#333333"/>
<path d="M58.4028 32.2222C59.0701 32.2222 59.6111 31.6812 59.6111 31.0139C59.6111 30.3465 59.0701 29.8055 58.4028 29.8055C57.7354 29.8055 57.1944 30.3465 57.1944 31.0139C57.1944 31.6812 57.7354 32.2222 58.4028 32.2222Z" fill="#333333"/>
<path fill-rule="evenodd" clip-rule="evenodd" d="M54.4389 28.2116C54.7312 28.1331 55.0259 28.3312 55.097 28.6541C55.3541 29.8216 55.5201 31.8571 55.5736 32.5671L55.5739 32.5709L55.5739 32.5709C55.639 33.5063 55.3645 34.3484 54.8224 34.8852C54.2701 35.4322 53.4981 35.6011 52.7199 35.2885C52.4371 35.175 52.2912 34.8297 52.3941 34.5174C52.4969 34.2051 52.8095 34.044 53.0922 34.1576C53.5126 34.3264 53.8574 34.2245 54.095 33.9892C54.3426 33.7441 54.531 33.2932 54.4877 32.665C54.4321 31.9295 54.2713 29.9963 54.0383 28.9385C53.9672 28.6156 54.1465 28.2902 54.4389 28.2116Z" fill="#333333"/>
<path d="M52.2471 36.251L55.8071 36.5135C56.2926 36.5398 56.4814 37.0125 56.3465 37.4588C55.8071 39.1919 52.9213 41.0825 51.5998 37.17C51.438 36.7236 51.7347 36.2247 52.2471 36.251Z" fill="#333333"/>
<path d="M89.4872 18.5278C88.9929 17.2511 87.8879 16.3089 86.7538 15.5794C85.5906 14.8802 84.3402 14.3635 83.2352 13.6036C82.6537 13.1781 82.043 12.5398 82.1884 11.8102C82.3629 11.1111 83.1771 10.8072 83.875 10.8984C84.5729 10.9592 85.2417 11.2631 85.9105 11.2631C84.1076 9.98649 82.799 7.98035 82.3047 5.76145C82.2175 5.3663 82.1593 4.94075 82.2466 4.576C82.3338 4.21125 82.6537 3.8465 83.0608 3.8161C83.4097 3.78571 83.7296 4.05927 83.9913 4.30244C84.7764 5.03194 85.5034 5.85263 86.1141 6.73412C86.0268 5.91343 85.5034 5.24471 85.1835 4.48481C84.8637 3.72491 84.8346 2.66105 85.5325 2.26591C86.2885 1.84036 87.19 2.56987 87.5971 3.39056C88.0042 4.21125 88.2659 5.15353 88.9929 5.63986C88.7603 4.63679 88.6149 3.57293 88.5567 2.53947C88.5276 2.17472 88.5276 1.80997 88.6439 1.47561C88.7603 1.14125 89.0511 0.837294 89.4 0.806898C89.8943 0.776502 90.2433 1.26284 90.505 1.68838C91.2611 3.02581 91.8717 4.45442 92.3079 5.91343C92.1625 4.91036 92.2788 3.8465 92.5987 2.87383C92.6859 2.63066 92.8023 2.35709 93.0349 2.20511C93.4711 1.96195 94.0236 2.38749 94.2271 2.87383C94.6633 3.87689 94.4016 5.06234 94.6052 6.15659C94.8087 7.31164 95.4484 8.28431 96.1173 9.22659C97.106 10.6856 98.0946 12.1446 99.0833 13.6036" fill="white"/>
<path fill-rule="evenodd" clip-rule="evenodd" d="M89.4435 1.46623C89.4355 1.47037 89.4233 1.47808 89.4075 1.49209C89.3686 1.52668 89.3342 1.57755 89.3162 1.62697C89.255 1.79495 89.2427 2.01519 89.2698 2.34051C89.2703 2.34644 89.2708 2.35237 89.2711 2.35831C89.3274 3.31309 89.4681 4.29393 89.6916 5.21416C89.7622 5.50459 89.6487 5.80864 89.4049 5.98219C89.1611 6.15575 88.8361 6.16391 88.5839 6.00282C88.0665 5.67239 87.7444 5.20459 87.5099 4.77346C87.3925 4.55765 87.289 4.33524 87.1955 4.13283C87.1884 4.11735 87.1813 4.10198 87.1743 4.08673C87.0863 3.89595 87.0066 3.7233 86.9205 3.55757C86.7688 3.26551 86.5271 3.00122 86.2859 2.85729C86.051 2.71707 85.9174 2.73911 85.8376 2.78166C85.7655 2.82095 85.6821 2.90905 85.6577 3.14856C85.6324 3.39627 85.6886 3.70817 85.8083 3.97971C85.9021 4.19247 86.0019 4.3717 86.1167 4.57787C86.1865 4.70321 86.2618 4.83851 86.3447 4.99734C86.5411 5.3737 86.7453 5.8285 86.8044 6.35937C86.8412 6.68952 86.6504 7.00296 86.3399 7.12268C86.0294 7.2424 85.6771 7.13836 85.4819 6.86931C84.9006 6.06824 84.2044 5.31687 83.4477 4.64565C83.3175 4.53013 83.2184 4.44967 83.1301 4.39841C83.0827 4.37092 83.0565 4.36268 83.0475 4.36043C83.0393 4.36134 83.0105 4.36753 82.9694 4.40643C82.9235 4.44993 82.8953 4.50446 82.8865 4.53965C82.8436 4.71095 82.8639 4.97401 82.9481 5.33839C83.4054 7.29728 84.6181 9.07067 86.2816 10.1952C86.5483 10.3755 86.6658 10.7083 86.5713 11.0156C86.4769 11.3229 86.1925 11.5327 85.8704 11.5327C85.4375 11.5327 85.0238 11.4391 84.6862 11.3594C84.6546 11.3519 84.6237 11.3446 84.5934 11.3374C84.2739 11.2617 84.0163 11.2006 83.7566 11.179C83.7466 11.1781 83.7366 11.1771 83.7266 11.1758C83.498 11.1473 83.2571 11.1839 83.0783 11.2669C82.9178 11.3414 82.8545 11.4267 82.831 11.4957C82.8191 11.5796 82.8395 11.6983 82.9666 11.8764C83.1056 12.0711 83.3276 12.269 83.5843 12.4492C84.1 12.787 84.6574 13.0763 85.2525 13.3733C85.3492 13.4216 85.4473 13.4702 85.5463 13.5193C86.0488 13.7684 86.5764 14.03 87.0864 14.3227C87.0927 14.3263 87.099 14.33 87.1052 14.3338C88.2825 15.0569 89.5677 16.0677 90.1573 17.5214C90.3092 17.896 90.1281 18.3225 89.7527 18.4741C89.3774 18.6257 88.95 18.445 88.798 18.0704C88.3917 17.0685 87.4521 16.2664 86.346 15.5858C85.8811 15.3196 85.4035 15.0827 84.9047 14.8353C84.803 14.7848 84.7003 14.7339 84.5967 14.6822C83.9929 14.3809 83.3655 14.0573 82.7693 13.6659C82.7635 13.662 82.7576 13.658 82.7519 13.654C82.4255 13.4261 82.0497 13.1141 81.7724 12.7255C81.4913 12.3319 81.2698 11.7962 81.3988 11.1786C81.4012 11.1667 81.404 11.1549 81.4071 11.1431C81.5643 10.5416 82.0031 10.152 82.4599 9.94002C82.8037 9.78041 83.188 9.70414 83.5616 9.70296C82.5764 8.54401 81.8659 7.15287 81.5198 5.66957L81.5194 5.66814C81.4278 5.27194 81.3309 4.71574 81.4639 4.18473C81.6101 3.60125 82.1456 2.95973 82.9399 2.90099C83.3191 2.87067 83.6389 3.00091 83.8671 3.13332C83.9834 3.20082 84.0912 3.27796 84.1866 3.35309C84.1831 3.23526 84.1869 3.11722 84.1989 3.00029C84.255 2.45045 84.5084 1.83591 85.14 1.49451L85.1416 1.49364C85.8244 1.12673 86.5265 1.29574 87.0386 1.60137C87.3224 1.7708 87.5786 1.99662 87.7944 2.25008C87.7786 1.91253 87.7958 1.51759 87.9381 1.12687C88.1222 0.621804 88.6111 0.0635665 89.3288 0.00388186C89.3347 0.0033879 89.3407 0.00296629 89.3466 0.00261705C89.8598 -0.0275051 90.2565 0.207416 90.5254 0.448931C90.7865 0.683473 90.9845 0.974396 91.1209 1.18613C91.1258 1.19385 91.1307 1.20166 91.1353 1.20956C91.4031 1.66177 91.6535 2.12454 91.8853 2.59557C91.8974 2.5587 91.9097 2.52196 91.9223 2.48536C91.9245 2.47898 91.9268 2.47263 91.9292 2.46631C92.0149 2.23816 92.2011 1.74945 92.667 1.45887C92.6812 1.45 92.6958 1.44161 92.7106 1.43373C93.2345 1.15487 93.7677 1.29832 94.122 1.51046C94.4743 1.72138 94.765 2.05718 94.9275 2.4249C95.2108 3.04958 95.2546 3.70222 95.2695 4.25082C95.273 4.37868 95.2751 4.49995 95.2771 4.61603C95.2843 5.03861 95.2904 5.39239 95.359 5.74443L95.3603 5.75154C95.5313 6.67809 96.0748 7.49183 96.7531 8.40412C96.7563 8.40844 96.7595 8.41278 96.7626 8.41717L99.7539 12.6317C99.988 12.9614 99.9099 13.4181 99.5794 13.6517C99.249 13.8852 98.7914 13.8073 98.5574 13.4775L95.5706 9.26955C94.9017 8.36949 94.1585 7.31317 93.9188 6.0201C93.8237 5.52963 93.8158 5.01242 93.8092 4.57757C93.8076 4.47708 93.8062 4.38098 93.8037 4.29063C93.7894 3.76497 93.7453 3.36579 93.5905 3.02599L93.5863 3.01649C93.5671 2.97282 93.5356 2.92201 93.493 2.87324C93.4582 2.83344 93.422 2.8019 93.3893 2.77929C93.3637 2.82633 93.3373 2.88735 93.3057 2.97078C93.0198 3.80568 92.9208 4.70696 93.0473 5.54034C93.1047 5.9185 92.8606 6.27699 92.4872 6.36293C92.1137 6.44887 91.7369 6.23326 91.6226 5.8682C91.2013 4.52285 90.6112 3.20304 89.88 1.96606C89.7556 1.77376 89.6478 1.62953 89.5444 1.53664C89.4957 1.49291 89.4628 1.47451 89.4465 1.46747C89.4454 1.46701 89.4444 1.4666 89.4435 1.46623ZM93.4455 2.69888C93.4455 2.69888 93.4454 2.69898 93.4451 2.69917L93.4455 2.69888ZM83.0438 4.35966C83.0438 4.35965 83.0439 4.35967 83.0442 4.35971L83.0438 4.35966Z" fill="#333333"/>
<path d="M99.3645 14.5C99.3645 14.5292 99.3645 14.5585 99.306 14.5877C98.398 15.4354 88.5861 20.9311 87.6781 21.3696C89.3769 25.5498 91.0757 29.7301 92.7745 33.9103C93.4774 35.635 94.1803 37.4182 94.1218 39.2891C93.946 44.5509 86.7995 45.3402 82.904 46.451C80.2387 47.211 77.5441 47.9126 74.8495 48.585C72.5063 49.1404 69.431 50.3974 67 50.3097C64.2761 50.222 59.1212 50.105 59.1212 50.105C56.9245 55.5715 54.6985 61.0379 52.5018 66.5044C49.1043 62.0903 45.531 56.2146 42.1334 51.8005C39.4681 52.2682 36.7735 52.736 34.0789 53.0575C22.1875 54.5484 12.2585 63.3181 8.01152 75.0403C7.27929 77.0573 7.25 78.1389 7.25 78.1389H74.8495L75.3474 71.357C75.3474 71.357 92.4523 68.843 105.837 57.5593C109.967 54.0806 112.193 48.7019 112.691 43.4401C113.775 31.8348 104.432 23.7959 99.3645 14.5Z" fill="#333333"/>
<path fill-rule="evenodd" clip-rule="evenodd" d="M29.1717 71.7136C29.6136 71.8038 29.8875 72.188 29.7835 72.5716L28.2055 78.3942C28.1015 78.7778 27.659 79.0156 27.2172 78.9253C26.7753 78.8351 26.5014 78.4509 26.6054 78.0673L28.1834 72.2447C28.2874 71.8611 28.7299 71.6233 29.1717 71.7136Z" fill="white"/>
<path fill-rule="evenodd" clip-rule="evenodd" d="M92.078 42.072C92.3779 41.805 92.8361 41.8333 93.1014 42.1351C93.7683 42.8939 94.8847 44.1634 96.0012 45.4331C97.1177 46.7027 98.2343 47.9724 98.9014 48.7313C99.1666 49.0331 99.1386 49.4943 98.8387 49.7613C98.5388 50.0283 98.0806 50.0001 97.8153 49.6982C97.1484 48.9395 96.0322 47.6702 94.9158 46.4006L94.9154 46.4003C93.799 45.1307 92.6824 43.861 92.0153 43.102C91.75 42.8002 91.7781 42.3391 92.078 42.072Z" fill="white"/>
<path d="M87.1889 116H8.67222C7.00972 116 5.63889 114.663 5.63889 112.978V81.1608C5.63889 79.5046 6.98055 78.1389 8.67222 78.1389H87.1889C88.8514 78.1389 90.2222 79.4755 90.2222 81.1608V112.978C90.2222 114.663 88.8806 116 87.1889 116Z" fill="#E55C39"/>
<path d="M9.10116 105.364C9.10116 105.364 13.5131 106.214 13.3016 104.044C13.1807 102.782 11.3374 102.548 10.189 102.46C11.1863 102.254 12.4555 102.606 13.1203 101.814C13.6944 101.169 13.362 100.113 12.667 99.6142C11.972 99.0862 11.0654 98.9689 10.2193 98.8809C11.0654 98.9689 13.6944 98.9102 13.6944 97.4142C13.6944 95.6836 11.8209 95.8596 10.5215 95.9769C11.2165 95.9476 11.9115 95.9476 12.5159 95.6542C13.1203 95.3609 13.6038 94.6862 13.4527 94.0409C13.2412 93.2196 12.2439 92.9262 11.3978 92.7796C9.34291 92.4276 7.22759 92.2222 5.14248 92.1929C5.14248 90.9316 5.23313 89.6702 5.23313 88.4382C5.23313 87.9396 5.20291 87.3822 4.77985 87.1182C4.47766 86.9422 4.08481 86.9716 3.78262 87.1476C3.48043 87.2942 3.23868 87.5582 3.02715 87.8516C2.24145 88.8196 1.66729 90.3449 1.24423 91.4889C1.24423 91.4596 -1.9892 105.54 9.10116 105.364Z" fill="white"/>
<path fill-rule="evenodd" clip-rule="evenodd" d="M3.39287 86.4338C3.89052 86.1548 4.57643 86.0824 5.15406 86.419C5.16078 86.4229 5.16744 86.4269 5.17404 86.431C5.60487 86.6999 5.79953 87.1032 5.88865 87.4493C5.97449 87.7827 5.97983 88.1302 5.97983 88.3818C5.97983 89.0117 5.95688 89.6467 5.93435 90.2702L5.93372 90.2875C5.91967 90.6763 5.90586 91.0608 5.89728 91.4432C7.79228 91.507 9.70049 91.7087 11.5589 92.0271L11.5604 92.0274C12.0087 92.1051 12.5652 92.2316 13.0544 92.4808C13.553 92.7349 14.0567 93.1578 14.2339 93.8458C14.2352 93.8509 14.2364 93.8561 14.2376 93.8612C14.3671 94.4145 14.2157 94.9412 13.961 95.3516C13.8869 95.4711 13.8017 95.5848 13.7075 95.6911C13.813 95.7705 13.9132 95.862 14.005 95.9676C14.3427 96.3554 14.5 96.8526 14.5 97.4226C14.5 98.0429 14.2142 98.5263 13.8053 98.8641C13.6567 98.9869 13.4935 99.0896 13.3239 99.1757C13.7365 99.5294 14.0303 100.014 14.1528 100.523C14.2921 101.1 14.2232 101.784 13.744 102.329C13.6256 102.469 13.4967 102.584 13.3616 102.679C13.7435 102.991 14.0432 103.427 14.1012 104.031C14.1394 104.426 14.0754 104.799 13.8957 105.13C13.7175 105.457 13.4521 105.694 13.1665 105.862C12.6191 106.183 11.9328 106.29 11.3514 106.322C10.7498 106.355 10.154 106.311 9.71791 106.263C9.49761 106.238 9.31295 106.212 9.18214 106.191C9.12852 106.182 9.08378 106.175 9.04915 106.169C6.1159 106.199 4.03275 105.286 2.61281 103.823C1.20339 102.37 0.523238 100.452 0.21932 98.6144C-0.0856079 96.7702 -0.0232649 94.9377 0.110959 93.58C0.178349 92.8983 0.264557 92.3296 0.334354 91.9302C0.36927 91.7304 0.400182 91.5724 0.422751 91.4632C0.434018 91.4087 0.443322 91.3658 0.450128 91.3354C0.453466 91.3205 0.45652 91.3073 0.459105 91.2964C0.460192 91.2919 0.462148 91.2838 0.464452 91.2749C0.465108 91.2724 0.468791 91.2583 0.473963 91.2416C0.475906 91.2355 0.480852 91.2219 0.487261 91.2052L0.486459 91.205C0.89888 90.0895 1.51111 88.4386 2.38689 87.3503C2.61696 87.0337 2.93837 86.6622 3.39287 86.4338ZM9.26224 104.705L9.26921 104.706C9.27561 104.707 9.28601 104.709 9.30011 104.712C9.32833 104.717 9.37132 104.724 9.42689 104.733C9.53821 104.75 9.69897 104.774 9.89184 104.795C10.2821 104.839 10.7837 104.873 11.2661 104.847C11.7688 104.82 12.1532 104.73 12.3788 104.598C12.4798 104.539 12.5265 104.484 12.5505 104.44C12.5728 104.399 12.6011 104.32 12.5863 104.169L12.5862 104.168C12.5657 103.954 12.4164 103.741 11.8956 103.55C11.3819 103.361 10.7244 103.285 10.1496 103.241C9.77279 103.212 9.47497 102.919 9.45037 102.552C9.42577 102.186 9.68186 101.858 10.0516 101.782C10.3715 101.716 10.6951 101.698 10.9762 101.689C11.0778 101.686 11.1711 101.684 11.2594 101.683C11.4362 101.679 11.5929 101.676 11.7562 101.664C12.2351 101.631 12.4441 101.539 12.5714 101.388C12.576 101.382 12.5806 101.377 12.5854 101.372C12.6778 101.268 12.7293 101.099 12.6715 100.859C12.6122 100.614 12.4521 100.376 12.2525 100.232C12.2469 100.228 12.2413 100.224 12.2358 100.22C11.7311 99.8366 11.0361 99.7255 10.1589 99.6343C9.74113 99.5908 9.43876 99.2268 9.48352 98.8212C9.52827 98.4156 9.90321 98.122 10.321 98.1654C10.685 98.2033 11.4636 98.2081 12.1195 98.0442C12.4475 97.9622 12.6809 97.8534 12.8193 97.739C12.9334 97.6448 12.9785 97.5557 12.9785 97.4226C12.9785 97.1211 12.9001 96.9867 12.843 96.9212C12.7791 96.8477 12.6629 96.7711 12.4427 96.716C12.223 96.6611 11.9672 96.6421 11.688 96.6437C11.3612 96.6846 11.0471 96.6957 10.7709 96.7055C10.704 96.7079 10.6393 96.7102 10.5773 96.7128C10.1648 96.7302 9.81334 96.4251 9.78524 96.0252C9.75715 95.6252 10.0627 95.2766 10.4737 95.2394C10.4958 95.2374 10.5184 95.2354 10.5413 95.2333C10.8366 95.2065 11.1985 95.1736 11.5793 95.1676C11.8162 95.1347 12.0215 95.0819 12.2123 94.9893C12.3886 94.9037 12.554 94.7565 12.6579 94.5892C12.7581 94.4276 12.7758 94.2924 12.7557 94.196C12.7179 94.0595 12.6119 93.9237 12.3474 93.7889C12.0684 93.6468 11.6972 93.5518 11.2938 93.4818C9.26221 93.1337 7.17296 92.9311 5.11679 92.9021C4.701 92.8963 4.36709 92.5674 4.36709 92.1636C4.36709 91.5133 4.39045 90.8653 4.4132 90.2357L4.41336 90.2313C4.43621 89.5989 4.45837 88.9857 4.45837 88.3818C4.45837 88.1312 4.4485 87.9469 4.41262 87.8076C4.3962 87.7438 4.37877 87.7089 4.36793 87.692C4.36437 87.6865 4.36151 87.6827 4.35913 87.6801C4.34609 87.6754 4.32494 87.6707 4.29363 87.6721C4.24793 87.674 4.19578 87.6885 4.1499 87.7152C4.1332 87.725 4.11613 87.7341 4.09871 87.7425C3.96637 87.8068 3.81192 87.9497 3.62099 88.2145C3.61276 88.2259 3.6042 88.2371 3.59532 88.2481C2.9042 89.0998 2.36877 90.4874 1.93404 91.6619C1.92926 91.6836 1.92263 91.7144 1.91448 91.7538C1.89481 91.849 1.86667 91.9925 1.83437 92.1774C1.76973 92.5472 1.68882 93.0802 1.62546 93.7211C1.49818 95.0086 1.44451 96.7048 1.72154 98.3802C1.99958 100.062 2.59935 101.654 3.72031 102.81C4.8183 103.942 6.49185 104.732 9.1016 104.691C9.15532 104.69 9.20898 104.695 9.26169 104.705C9.26179 104.705 9.26214 104.705 9.26224 104.705Z" fill="#333333"/>
<path d="M32.0971 104H29.5951V98.816H24.8971V104H22.3951V91.184H24.8971V96.602H29.5951V91.184H32.0971V104Z" fill="white"/>
<path d="M43.3393 104H38.8033C37.3633 104 36.3493 103.754 35.7613 103.262C35.1853 102.758 34.8973 101.876 34.8973 100.616V91.184H43.3393V93.416H37.3993V96.422H41.5573L41.3773 98.654H37.3993V100.436C37.3993 100.94 37.5133 101.288 37.7413 101.48C37.9693 101.672 38.3833 101.768 38.9833 101.768H43.3393V104Z" fill="white"/>
<path d="M53.6978 104H49.8818C48.4418 104 47.3978 103.724 46.7498 103.172C46.1138 102.608 45.7958 101.696 45.7958 100.436V91.184H48.2978V100.436C48.2978 100.94 48.4118 101.288 48.6398 101.48C48.8678 101.672 49.2818 101.768 49.8818 101.768H53.6978V104Z" fill="white"/>
<path d="M63.5942 104H59.7782C58.3382 104 57.2942 103.724 56.6462 103.172C56.0102 102.608 55.6922 101.696 55.6922 100.436V91.184H58.1942V100.436C58.1942 100.94 58.3082 101.288 58.5362 101.48C58.7642 101.672 59.1782 101.768 59.7782 101.768H63.5942V104Z" fill="white"/>
<path d="M74.9847 96.998V97.97C74.9847 100.118 74.5767 101.678 73.7607 102.65C72.9567 103.622 71.6607 104.108 69.8727 104.108C68.0847 104.108 66.7887 103.622 65.9847 102.65C65.1927 101.678 64.7967 100.1 64.7967 97.916V96.98C64.7967 94.988 65.1987 93.506 66.0027 92.534C66.8187 91.562 68.1027 91.076 69.8547 91.076C71.6187 91.076 72.9147 91.568 73.7427 92.552C74.5707 93.536 74.9847 95.018 74.9847 96.998ZM72.4827 97.916V97.25C72.4827 96.098 72.3387 95.18 72.0507 94.496C71.7147 93.704 70.9947 93.308 69.8907 93.308C68.7747 93.308 68.0487 93.704 67.7127 94.496C67.4367 95.144 67.2987 96.062 67.2987 97.25V97.916C67.2987 99.464 67.5147 100.508 67.9467 101.048C68.1147 101.276 68.3607 101.474 68.6847 101.642C69.0207 101.798 69.4167 101.876 69.8727 101.876C70.3407 101.876 70.7367 101.798 71.0607 101.642C71.3847 101.486 71.6367 101.294 71.8167 101.066C71.9967 100.838 72.1347 100.538 72.2307 100.166C72.3987 99.578 72.4827 98.828 72.4827 97.916Z" fill="white"/>
<path d="M80.5927 91.184L80.0527 98.96C80.0047 99.296 79.8847 99.56 79.6927 99.752C79.5127 99.932 79.3087 100.022 79.0807 100.022C78.8527 100.022 78.6487 99.926 78.4687 99.734C78.3007 99.542 78.2167 99.284 78.2167 98.96L77.6947 91.184H80.5927ZM80.3407 101.588C80.5327 101.768 80.6287 102.158 80.6287 102.758C80.6287 103.358 80.5327 103.754 80.3407 103.946C80.1607 104.138 79.7707 104.234 79.1707 104.234C78.5707 104.234 78.1747 104.138 77.9827 103.946C77.7907 103.754 77.6947 103.358 77.6947 102.758C77.6947 102.158 77.7907 101.768 77.9827 101.588C78.1747 101.396 78.5707 101.3 79.1707 101.3C79.7707 101.3 80.1607 101.396 80.3407 101.588Z" fill="white"/>
</svg>
