<svg width="386" height="160" viewBox="0 0 386 160" fill="none" xmlns="http://www.w3.org/2000/svg">
<rect x="112" y="46" width="162" height="42" rx="21" fill="#D1DBDE"/>
<rect x="117" y="51" width="152" height="32" rx="16" fill="white"/>
<path d="M133.656 60.8438V63.3203C133.656 63.7526 133.641 64.1641 133.609 64.5547C133.583 64.9453 133.562 65.2214 133.547 65.3828H133.672C133.859 65.0807 134.081 64.8359 134.336 64.6484C134.596 64.4609 134.883 64.3229 135.195 64.2344C135.508 64.1458 135.844 64.1016 136.203 64.1016C136.833 64.1016 137.383 64.2135 137.852 64.4375C138.32 64.6562 138.685 65.0026 138.945 65.4766C139.206 65.9453 139.336 66.5547 139.336 67.3047V73H136.953V67.8984C136.953 67.2734 136.839 66.8021 136.609 66.4844C136.38 66.1667 136.026 66.0078 135.547 66.0078C135.068 66.0078 134.69 66.1198 134.414 66.3438C134.138 66.5625 133.943 66.888 133.828 67.3203C133.714 67.7474 133.656 68.2708 133.656 68.8906V73H131.273V60.8438H133.656ZM145.469 71.2578C145.729 71.2578 145.982 71.2318 146.227 71.1797C146.477 71.1276 146.724 71.0625 146.969 70.9844V72.7578C146.714 72.8724 146.396 72.9661 146.016 73.0391C145.641 73.1172 145.229 73.1562 144.781 73.1562C144.26 73.1562 143.792 73.0729 143.375 72.9062C142.964 72.7344 142.638 72.4401 142.398 72.0234C142.164 71.6016 142.047 71.0156 142.047 70.2656V66.0547H140.906V65.0469L142.219 64.25L142.906 62.4062H144.43V64.2656H146.875V66.0547H144.43V70.2656C144.43 70.599 144.523 70.849 144.711 71.0156C144.904 71.1771 145.156 71.2578 145.469 71.2578ZM152.422 71.2578C152.682 71.2578 152.935 71.2318 153.18 71.1797C153.43 71.1276 153.677 71.0625 153.922 70.9844V72.7578C153.667 72.8724 153.349 72.9661 152.969 73.0391C152.594 73.1172 152.182 73.1562 151.734 73.1562C151.214 73.1562 150.745 73.0729 150.328 72.9062C149.917 72.7344 149.591 72.4401 149.352 72.0234C149.117 71.6016 149 71.0156 149 70.2656V66.0547H147.859V65.0469L149.172 64.25L149.859 62.4062H151.383V64.2656H153.828V66.0547H151.383V70.2656C151.383 70.599 151.477 70.849 151.664 71.0156C151.857 71.1771 152.109 71.2578 152.422 71.2578ZM160.555 64.1016C161.539 64.1016 162.333 64.4844 162.938 65.25C163.547 66.0156 163.852 67.138 163.852 68.6172C163.852 69.6068 163.708 70.4401 163.422 71.1172C163.135 71.7891 162.74 72.2969 162.234 72.6406C161.729 72.9844 161.148 73.1562 160.492 73.1562C160.07 73.1562 159.708 73.1042 159.406 73C159.104 72.8906 158.846 72.7526 158.633 72.5859C158.419 72.4141 158.234 72.2318 158.078 72.0391H157.953C157.995 72.2474 158.026 72.4609 158.047 72.6797C158.068 72.8984 158.078 73.112 158.078 73.3203V76.8438H155.695V64.2656H157.633L157.969 65.3984H158.078C158.234 65.1641 158.424 64.9479 158.648 64.75C158.872 64.5521 159.141 64.3958 159.453 64.2812C159.771 64.1615 160.138 64.1016 160.555 64.1016ZM159.789 66.0078C159.372 66.0078 159.042 66.0938 158.797 66.2656C158.552 66.4375 158.372 66.6953 158.258 67.0391C158.148 67.3828 158.089 67.8177 158.078 68.3438V68.6016C158.078 69.1641 158.13 69.6406 158.234 70.0312C158.344 70.4219 158.523 70.7188 158.773 70.9219C159.029 71.125 159.378 71.2266 159.82 71.2266C160.185 71.2266 160.484 71.125 160.719 70.9219C160.953 70.7188 161.128 70.4219 161.242 70.0312C161.362 69.6354 161.422 69.1536 161.422 68.5859C161.422 67.7318 161.289 67.0885 161.023 66.6562C160.758 66.224 160.346 66.0078 159.789 66.0078ZM171.914 70.4062C171.914 71 171.773 71.5026 171.492 71.9141C171.216 72.3203 170.802 72.6302 170.25 72.8438C169.698 73.0521 169.01 73.1562 168.188 73.1562C167.578 73.1562 167.055 73.1172 166.617 73.0391C166.185 72.9609 165.747 72.8307 165.305 72.6484V70.6797C165.779 70.8932 166.286 71.0703 166.828 71.2109C167.375 71.3464 167.854 71.4141 168.266 71.4141C168.729 71.4141 169.06 71.3464 169.258 71.2109C169.461 71.0703 169.562 70.888 169.562 70.6641C169.562 70.5182 169.521 70.388 169.438 70.2734C169.359 70.1536 169.188 70.0208 168.922 69.875C168.656 69.724 168.24 69.5286 167.672 69.2891C167.125 69.0599 166.674 68.8281 166.32 68.5938C165.971 68.3594 165.711 68.0833 165.539 67.7656C165.372 67.4427 165.289 67.0339 165.289 66.5391C165.289 65.7318 165.602 65.125 166.227 64.7188C166.857 64.3073 167.698 64.1016 168.75 64.1016C169.292 64.1016 169.807 64.1562 170.297 64.2656C170.792 64.375 171.299 64.5495 171.82 64.7891L171.102 66.5078C170.669 66.3203 170.26 66.1667 169.875 66.0469C169.495 65.9271 169.107 65.8672 168.711 65.8672C168.362 65.8672 168.099 65.9141 167.922 66.0078C167.745 66.1016 167.656 66.2448 167.656 66.4375C167.656 66.5781 167.701 66.7031 167.789 66.8125C167.883 66.9219 168.06 67.0443 168.32 67.1797C168.586 67.3099 168.974 67.4792 169.484 67.6875C169.979 67.8906 170.409 68.1042 170.773 68.3281C171.138 68.5469 171.419 68.8203 171.617 69.1484C171.815 69.4714 171.914 69.8906 171.914 70.4062ZM173.438 71.8828C173.438 71.3932 173.57 71.0495 173.836 70.8516C174.107 70.6536 174.432 70.5547 174.812 70.5547C175.182 70.5547 175.5 70.6536 175.766 70.8516C176.036 71.0495 176.172 71.3932 176.172 71.8828C176.172 72.3516 176.036 72.6901 175.766 72.8984C175.5 73.1068 175.182 73.2109 174.812 73.2109C174.432 73.2109 174.107 73.1068 173.836 72.8984C173.57 72.6901 173.438 72.3516 173.438 71.8828ZM173.438 65.4297C173.438 64.9401 173.57 64.5964 173.836 64.3984C174.107 64.2005 174.432 64.1016 174.812 64.1016C175.182 64.1016 175.5 64.2005 175.766 64.3984C176.036 64.5964 176.172 64.9401 176.172 65.4297C176.172 65.9036 176.036 66.2448 175.766 66.4531C175.5 66.6562 175.182 66.7578 174.812 66.7578C174.432 66.7578 174.107 66.6562 173.836 66.4531C173.57 66.2448 173.438 65.9036 173.438 65.4297ZM183.617 61.5781L179.359 73H177.195L181.453 61.5781H183.617ZM190.227 61.5781L185.969 73H183.805L188.062 61.5781H190.227ZM198.734 73L198.062 69.9453C198.026 69.763 197.966 69.4948 197.883 69.1406C197.799 68.7812 197.708 68.3984 197.609 67.9922C197.516 67.5807 197.427 67.2005 197.344 66.8516C197.266 66.5026 197.208 66.2474 197.172 66.0859H197.102C197.065 66.2474 197.008 66.5026 196.93 66.8516C196.852 67.2005 196.763 67.5807 196.664 67.9922C196.57 68.4036 196.482 68.7917 196.398 69.1562C196.315 69.5156 196.253 69.7891 196.211 69.9766L195.508 73H192.945L190.461 64.2656H192.836L193.844 68.1328C193.911 68.4036 193.977 68.7266 194.039 69.1016C194.102 69.4714 194.156 69.8307 194.203 70.1797C194.255 70.5234 194.294 70.7969 194.32 71H194.383C194.393 70.849 194.414 70.6484 194.445 70.3984C194.482 70.1484 194.521 69.8906 194.562 69.625C194.609 69.3542 194.651 69.112 194.688 68.8984C194.729 68.6797 194.76 68.5312 194.781 68.4531L195.859 64.2656H198.484L199.508 68.4531C199.544 68.6042 199.591 68.8438 199.648 69.1719C199.711 69.5 199.766 69.8385 199.812 70.1875C199.859 70.5312 199.885 70.8021 199.891 71H199.953C199.974 70.8229 200.01 70.5599 200.062 70.2109C200.115 69.862 200.174 69.4974 200.242 69.1172C200.315 68.7318 200.388 68.4036 200.461 68.1328L201.508 64.2656H203.844L201.328 73H198.734ZM212.438 73L211.766 69.9453C211.729 69.763 211.669 69.4948 211.586 69.1406C211.503 68.7812 211.411 68.3984 211.312 67.9922C211.219 67.5807 211.13 67.2005 211.047 66.8516C210.969 66.5026 210.911 66.2474 210.875 66.0859H210.805C210.768 66.2474 210.711 66.5026 210.633 66.8516C210.555 67.2005 210.466 67.5807 210.367 67.9922C210.273 68.4036 210.185 68.7917 210.102 69.1562C210.018 69.5156 209.956 69.7891 209.914 69.9766L209.211 73H206.648L204.164 64.2656H206.539L207.547 68.1328C207.615 68.4036 207.68 68.7266 207.742 69.1016C207.805 69.4714 207.859 69.8307 207.906 70.1797C207.958 70.5234 207.997 70.7969 208.023 71H208.086C208.096 70.849 208.117 70.6484 208.148 70.3984C208.185 70.1484 208.224 69.8906 208.266 69.625C208.312 69.3542 208.354 69.112 208.391 68.8984C208.432 68.6797 208.464 68.5312 208.484 68.4531L209.562 64.2656H212.188L213.211 68.4531C213.247 68.6042 213.294 68.8438 213.352 69.1719C213.414 69.5 213.469 69.8385 213.516 70.1875C213.562 70.5312 213.589 70.8021 213.594 71H213.656C213.677 70.8229 213.714 70.5599 213.766 70.2109C213.818 69.862 213.878 69.4974 213.945 69.1172C214.018 68.7318 214.091 68.4036 214.164 68.1328L215.211 64.2656H217.547L215.031 73H212.438ZM226.141 73L225.469 69.9453C225.432 69.763 225.372 69.4948 225.289 69.1406C225.206 68.7812 225.115 68.3984 225.016 67.9922C224.922 67.5807 224.833 67.2005 224.75 66.8516C224.672 66.5026 224.615 66.2474 224.578 66.0859H224.508C224.471 66.2474 224.414 66.5026 224.336 66.8516C224.258 67.2005 224.169 67.5807 224.07 67.9922C223.977 68.4036 223.888 68.7917 223.805 69.1562C223.721 69.5156 223.659 69.7891 223.617 69.9766L222.914 73H220.352L217.867 64.2656H220.242L221.25 68.1328C221.318 68.4036 221.383 68.7266 221.445 69.1016C221.508 69.4714 221.562 69.8307 221.609 70.1797C221.661 70.5234 221.701 70.7969 221.727 71H221.789C221.799 70.849 221.82 70.6484 221.852 70.3984C221.888 70.1484 221.927 69.8906 221.969 69.625C222.016 69.3542 222.057 69.112 222.094 68.8984C222.135 68.6797 222.167 68.5312 222.188 68.4531L223.266 64.2656H225.891L226.914 68.4531C226.951 68.6042 226.997 68.8438 227.055 69.1719C227.117 69.5 227.172 69.8385 227.219 70.1875C227.266 70.5312 227.292 70.8021 227.297 71H227.359C227.38 70.8229 227.417 70.5599 227.469 70.2109C227.521 69.862 227.581 69.4974 227.648 69.1172C227.721 68.7318 227.794 68.4036 227.867 68.1328L228.914 64.2656H231.25L228.734 73H226.141ZM232.328 71.8828C232.328 71.3932 232.461 71.0495 232.727 70.8516C232.997 70.6536 233.323 70.5547 233.703 70.5547C234.073 70.5547 234.391 70.6536 234.656 70.8516C234.927 71.0495 235.062 71.3932 235.062 71.8828C235.062 72.3516 234.927 72.6901 234.656 72.8984C234.391 73.1068 234.073 73.2109 233.703 73.2109C233.323 73.2109 232.997 73.1068 232.727 72.8984C232.461 72.6901 232.328 72.3516 232.328 71.8828Z" fill="#EB5D5E"/>
<rect x="142" y="94" width="16" height="2" rx="1" fill="#D1DBDE"/>
<rect x="162" y="94" width="16" height="2" rx="1" fill="#D1DBDE"/>
<rect x="237" y="94" width="16" height="2" rx="1" fill="#D1DBDE"/>
<rect x="257" y="94" width="16" height="2" rx="1" fill="#D1DBDE"/>
<rect x="280" y="94" width="16" height="2" rx="1" fill="#D1DBDE"/>
<rect x="106" y="102" width="16" height="2" rx="1" fill="#D1DBDE"/>
<rect x="125" y="102" width="194" height="2" rx="1" fill="#D1DBDE"/>
<g filter="url(#filter0_d_2133_18369)">
<path fill-rule="evenodd" clip-rule="evenodd" d="M289.821 82.7005L240 61L252.51 113.882L262.572 101.056L276.757 116.988L290 105.198L276.14 89.6301L289.821 82.7005Z" fill="#EB5D5E"/>
</g>
<defs>
<filter id="filter0_d_2133_18369" x="240" y="61" width="51.9999" height="56.9884" filterUnits="userSpaceOnUse" color-interpolation-filters="sRGB">
<feFlood flood-opacity="0" result="BackgroundImageFix"/>
<feColorMatrix in="SourceAlpha" type="matrix" values="0 0 0 0 0 0 0 0 0 0 0 0 0 0 0 0 0 0 127 0" result="hardAlpha"/>
<feOffset dx="2" dy="1"/>
<feColorMatrix type="matrix" values="0 0 0 0 0.819608 0 0 0 0 0.858824 0 0 0 0 0.870588 0 0 0 1 0"/>
<feBlend mode="normal" in2="BackgroundImageFix" result="effect1_dropShadow_2133_18369"/>
<feBlend mode="normal" in="SourceGraphic" in2="effect1_dropShadow_2133_18369" result="shape"/>
</filter>
</defs>
</svg>
