<svg width="24" height="24" viewBox="0 0 24 24" fill="none" xmlns="http://www.w3.org/2000/svg">
<path d="M3.40374 8.31154L3.35765 7.30769C3.35765 6.69565 3.60046 6.10868 4.03266 5.67591C4.46487 5.24313 5.05107 5 5.6623 5H9.89365C10.5048 5.00013 11.091 5.24335 11.523 5.67615L12.4771 6.63154C12.9093 7.06435 13.4954 7.30756 14.1065 7.30769H18.6951C19.0154 7.30766 19.3321 7.37446 19.6252 7.50384C19.9182 7.63321 20.1811 7.82232 20.3971 8.0591C20.613 8.29588 20.7773 8.57514 20.8795 8.87905C20.9817 9.18296 21.0196 9.50487 20.9905 9.82423L20.2565 17.9012C20.2045 18.4745 19.9403 19.0077 19.5158 19.396C19.0913 19.7844 18.5372 19.9998 17.9622 20H6.03796C5.46299 19.9998 4.90888 19.7844 4.48439 19.396C4.0599 19.0077 3.79571 18.4745 3.74367 17.9012L3.00965 9.82423C2.96054 9.28975 3.09998 8.75493 3.40374 8.31269V8.31154ZM5.30508 8.46154C5.145 8.46153 4.98669 8.49492 4.84021 8.55957C4.69374 8.62422 4.56232 8.71872 4.45434 8.83705C4.34636 8.95538 4.26419 9.09493 4.21306 9.24682C4.16192 9.39871 4.14296 9.55959 4.15736 9.71923L4.89139 17.7962C4.91727 18.0828 5.04922 18.3495 5.26136 18.5438C5.47349 18.738 5.75048 18.8458 6.03796 18.8462H17.9622C18.2497 18.8458 18.5267 18.738 18.7388 18.5438C18.951 18.3495 19.083 18.0828 19.1088 17.7962L19.8428 9.71923C19.8572 9.55959 19.8383 9.39871 19.7871 9.24682C19.736 9.09493 19.6538 8.95538 19.5459 8.83705C19.4379 8.71872 19.3064 8.62422 19.16 8.55957C19.0135 8.49492 18.8552 8.46153 18.6951 8.46154H5.30508ZM10.7095 6.49192C10.6024 6.38463 10.4752 6.29955 10.3352 6.24154C10.1952 6.18352 10.0451 6.15372 9.89365 6.15385H5.6623C5.36044 6.15379 5.07061 6.27235 4.85512 6.48402C4.63965 6.69568 4.51571 6.98357 4.50997 7.28577L4.51689 7.44615C4.76348 7.35615 5.02852 7.30769 5.30508 7.30769H11.523L10.7083 6.49192H10.7095Z" fill="#93928D"/>
</svg>
