<svg width="24" height="20" viewBox="0 0 24 20" fill="none" xmlns="http://www.w3.org/2000/svg">
<path d="M0.810468 4.805L0.750468 3.5C0.750468 2.70435 1.06654 1.94129 1.62915 1.37868C2.19176 0.816071 2.95482 0.5 3.75047 0.5H9.25847C10.0541 0.50017 10.817 0.816352 11.3795 1.379L12.6215 2.621C13.1839 3.18365 13.9469 3.49983 14.7425 3.5H20.7155C21.1324 3.49996 21.5447 3.5868 21.9261 3.75499C22.3076 3.92317 22.6498 4.16902 22.9309 4.47683C23.212 4.78465 23.4259 5.14768 23.559 5.54276C23.692 5.93785 23.7412 6.35633 23.7035 6.7715L22.748 17.2715C22.6802 18.0169 22.3363 18.71 21.7838 19.2148C21.2312 19.7197 20.5099 19.9997 19.7615 20H4.23947C3.49102 19.9997 2.76972 19.7197 2.21716 19.2148C1.66461 18.71 1.3207 18.0169 1.25297 17.2715L0.297468 6.7715C0.233548 6.07667 0.415059 5.38141 0.810468 4.8065V4.805ZM3.28547 5C3.0771 4.99999 2.87101 5.04339 2.68034 5.12744C2.48967 5.21149 2.31861 5.33434 2.17805 5.48816C2.03749 5.64199 1.93052 5.82341 1.86396 6.02086C1.7974 6.21832 1.77272 6.42747 1.79147 6.635L2.74697 17.135C2.78065 17.5077 2.95242 17.8543 3.22855 18.1069C3.50469 18.3594 3.86526 18.4996 4.23947 18.5H19.7615C20.1357 18.4996 20.4962 18.3594 20.7724 18.1069C21.0485 17.8543 21.2203 17.5077 21.254 17.135L22.2095 6.635C22.2282 6.42747 22.2035 6.21832 22.137 6.02086C22.0704 5.82341 21.9634 5.64199 21.8229 5.48816C21.6823 5.33434 21.5113 5.21149 21.3206 5.12744C21.1299 5.04339 20.9238 4.99999 20.7155 5H3.28547ZM10.3205 2.4395C10.181 2.30002 10.0155 2.18941 9.83323 2.114C9.651 2.03858 9.45569 1.99984 9.25847 2H3.75047C3.35753 1.99993 2.98026 2.15405 2.69976 2.42922C2.41926 2.70439 2.25793 3.07864 2.25047 3.4715L2.25947 3.68C2.58047 3.563 2.92547 3.5 3.28547 3.5H11.3795L10.319 2.4395H10.3205Z" fill="#785EF0"/>
</svg>
