<svg width="25" height="24" viewBox="0 0 25 24" fill="none" xmlns="http://www.w3.org/2000/svg">
<g clip-path="url(#clip0_2569_23966)">
<path d="M1.04313 5.805L0.983134 4.5C0.983134 3.70435 1.2992 2.94129 1.86181 2.37868C2.42442 1.81607 3.18748 1.5 3.98313 1.5H9.49114C10.2867 1.50017 11.0497 1.81635 11.6121 2.379L12.8541 3.621C13.4166 4.18365 14.1796 4.49983 14.9751 4.5H20.9481C21.365 4.49996 21.7773 4.5868 22.1588 4.75499C22.5402 4.92317 22.8824 5.16902 23.1636 5.47683C23.4447 5.78465 23.6586 6.14768 23.7916 6.54276C23.9246 6.93785 23.9739 7.35633 23.9361 7.7715L22.9806 18.2715C22.9129 19.0169 22.569 19.71 22.0164 20.2148C21.4639 20.7197 20.7426 20.9997 19.9941 21H4.47213C3.72369 20.9997 3.00239 20.7197 2.44983 20.2148C1.89727 19.71 1.55337 19.0169 1.48563 18.2715L0.530134 7.7715C0.466214 7.07667 0.647725 6.38141 1.04313 5.8065V5.805ZM3.51813 6C3.30976 5.99999 3.10368 6.04339 2.91301 6.12744C2.72234 6.21149 2.55127 6.33434 2.41071 6.48816C2.27016 6.64199 2.16319 6.82341 2.09663 7.02086C2.03007 7.21832 2.00538 7.42747 2.02413 7.635L2.97963 18.135C3.01331 18.5077 3.18508 18.8543 3.46122 19.1069C3.73736 19.3594 4.09792 19.4996 4.47213 19.5H19.9941C20.3683 19.4996 20.7289 19.3594 21.005 19.1069C21.2812 18.8543 21.453 18.5077 21.4866 18.135L22.4421 7.635C22.4609 7.42747 22.4362 7.21832 22.3696 7.02086C22.3031 6.82341 22.1961 6.64199 22.0556 6.48816C21.915 6.33434 21.7439 6.21149 21.5533 6.12744C21.3626 6.04339 21.1565 5.99999 20.9481 6H3.51813ZM10.5531 3.4395C10.4137 3.30002 10.2481 3.18941 10.0659 3.114C9.88367 3.03858 9.68835 2.99984 9.49114 3H3.98313C3.5902 2.99993 3.21292 3.15405 2.93242 3.42922C2.65193 3.70439 2.4906 4.07864 2.48313 4.4715L2.49213 4.68C2.81313 4.563 3.15813 4.5 3.51813 4.5H11.6121L10.5516 3.4395H10.5531Z" fill="#97ADB5"/>
</g>
<defs>
<clipPath id="clip0_2569_23966">
<rect width="24" height="24" fill="white" transform="translate(0.232422)"/>
</clipPath>
</defs>
</svg>
