<svg width="32" height="32" viewBox="0 0 32 32" fill="none" xmlns="http://www.w3.org/2000/svg">
<circle cx="16" cy="16" r="16" fill="#9021a6"/>
<g clip-path="url(#clip0_2333_21324)">
<path d="M16 30C12.287 30 8.72601 28.525 6.1005 25.8995C3.475 23.274 2 19.713 2 16C2 12.287 3.475 8.72601 6.1005 6.1005C8.72601 3.475 12.287 2 16 2C19.713 2 23.274 3.475 25.8995 6.1005C28.525 8.72601 30 12.287 30 16C30 19.713 28.525 23.274 25.8995 25.8995C23.274 28.525 19.713 30 16 30ZM16 32C20.2435 32 24.3131 30.3143 27.3137 27.3137C30.3143 24.3131 32 20.2435 32 16C32 11.7565 30.3143 7.68687 27.3137 4.68629C24.3131 1.68571 20.2435 0 16 0C11.7565 0 7.68687 1.68571 4.68629 4.68629C1.68571 7.68687 0 11.7565 0 16C0 20.2435 1.68571 24.3131 4.68629 27.3137C7.68687 30.3143 11.7565 32 16 32Z" fill="#9021a6"/>
<path d="M21.9397 9.94007C21.9255 9.95388 21.9121 9.96858 21.8997 9.98407L14.9537 18.8341L10.7677 14.6461C10.4834 14.3811 10.1073 14.2369 9.71866 14.2437C9.33005 14.2506 8.95928 14.408 8.68446 14.6828C8.40963 14.9577 8.25221 15.3284 8.24535 15.717C8.23849 16.1056 8.38274 16.4817 8.6477 16.7661L13.9397 22.0601C14.0823 22.2024 14.252 22.3145 14.4389 22.3898C14.6257 22.4651 14.8258 22.5019 15.0272 22.4982C15.2286 22.4945 15.4272 22.4502 15.6111 22.3681C15.795 22.2859 15.9605 22.1676 16.0977 22.0201L24.0817 12.0401C24.3536 11.7547 24.5022 11.3739 24.4955 10.9798C24.4888 10.5858 24.3272 10.2102 24.0458 9.93426C23.7644 9.65835 23.3857 9.50429 22.9916 9.50538C22.5975 9.50646 22.2196 9.66262 21.9397 9.94007Z" fill="white"/>
</g>
<defs>
<clipPath id="clip0_2333_21324">
<rect width="32" height="32" fill="white"/>
</clipPath>
</defs>
</svg>
