<svg xmlns="http://www.w3.org/2000/svg" width="16" height="16" viewBox="0 0 16 16" fill="none">
    <path d="M12.681 8.12669C12.6503 8.16418 12.616 8.19793 12.5791 8.22856L6.33611 14.4734C6.22737 14.5828 6.08737 14.6565 5.9355 14.6834L1.39124 15.4971C1.34749 15.5009 1.30374 15.5009 1.25999 15.4971C1.03625 15.5009 0.822502 15.404 0.67813 15.2334C0.533759 15.0628 0.471886 14.8365 0.51126 14.6159L1.32436 10.0641C1.35124 9.91227 1.42436 9.77164 1.53436 9.6629L10.3604 0.829994C10.5716 0.618124 10.8591 0.499377 11.1585 0.500002C11.4579 0.499377 11.7447 0.618124 11.9566 0.829994L15.1671 4.04304C15.3796 4.25428 15.4996 4.54178 15.4996 4.84177C15.4996 5.14176 15.3796 5.42925 15.1671 5.6405L12.6816 8.12731L12.681 8.12669ZM8.35356 4.95989L2.7587 10.5591L2.18559 13.8209L5.44489 13.2472L11.0397 7.64795L8.35356 4.95989ZM9.41416 3.89867L12.1003 6.58672L13.8441 4.84177L11.1579 2.15371L9.41416 3.89867Z" fill="#97ADB5"/>
</svg>