<svg width="24" height="24" viewBox="0 0 24 24" fill="none" xmlns="http://www.w3.org/2000/svg">
<path d="M12.7205 3.05277C11.6258 2.77911 10.609 3.60696 10.5357 4.67871C10.4533 5.88214 10.2724 6.9871 10.0457 7.64435C9.90254 8.05656 9.4972 8.80427 8.85483 9.52105C8.21705 10.2344 7.3869 10.8699 6.41477 11.1355C5.64531 11.3451 4.86096 12.0115 4.86096 12.9848V17.566C4.86096 18.5336 5.64187 19.2424 6.51897 19.3351C7.74415 19.4657 8.3098 19.8103 8.88689 20.163L8.94186 20.1973C9.2533 20.3863 9.60368 20.5958 10.0525 20.7515C10.5071 20.9073 11.0384 21 11.7312 21H15.7388C16.8117 21 17.5697 20.4538 17.9533 19.7817C18.1387 19.4645 18.2388 19.1048 18.2441 18.7374C18.2441 18.5634 18.2178 18.3802 18.1559 18.2061C18.3861 17.905 18.591 17.5443 18.7147 17.1744C18.8407 16.7966 18.9116 16.3019 18.7193 15.8588C18.7983 15.71 18.8567 15.5508 18.9013 15.3974C18.9895 15.0882 19.0307 14.747 19.0307 14.4161C19.0307 14.0863 18.9895 13.7462 18.9013 13.4359C18.8613 13.2933 18.8084 13.1545 18.7433 13.0214C18.9438 12.7362 19.0728 12.4069 19.1195 12.0614C19.1661 11.7158 19.129 11.3641 19.0113 11.0359C18.7754 10.3581 18.2304 9.7764 17.6372 9.57945C16.6674 9.25655 15.5727 9.26342 14.7563 9.33785C14.5868 9.3531 14.4177 9.37219 14.2491 9.3951C14.6463 7.69402 14.6219 5.92166 14.1781 4.23215C14.1009 3.96145 13.9527 3.7163 13.749 3.52204C13.5453 3.32778 13.2934 3.19146 13.0193 3.12719L12.7205 3.05277ZM15.7388 19.8561H11.7312C11.1472 19.8561 10.743 19.7771 10.4258 19.6683C10.1041 19.5573 9.84643 19.4073 9.53727 19.2183L9.49147 19.1909C8.85598 18.8027 8.11972 18.3538 6.64034 18.197C6.25905 18.1557 6.00599 17.8649 6.00599 17.5672V12.9848C6.00599 12.6939 6.26477 12.363 6.71591 12.2405C7.96972 11.897 8.97964 11.1001 9.70903 10.2848C10.4361 9.47182 10.9273 8.59587 11.1266 8.01992C11.4048 7.21839 11.5926 5.9955 11.6785 4.75658C11.7071 4.34207 12.0907 4.07643 12.4422 4.16345L12.7422 4.23902C12.9254 4.28482 13.0376 4.40276 13.072 4.531C13.5396 6.3127 13.4819 8.19161 12.906 9.94128C12.8734 10.0386 12.8675 10.1429 12.889 10.2432C12.9106 10.3436 12.9587 10.4363 13.0283 10.5117C13.098 10.5871 13.1866 10.6423 13.2849 10.6717C13.3832 10.7011 13.4877 10.7035 13.5873 10.6787L13.5907 10.6775L13.6067 10.6741L13.6731 10.6581C14.0647 10.5749 14.4608 10.5149 14.8594 10.4783C15.6185 10.4096 16.5277 10.4165 17.2754 10.6661C17.4758 10.7325 17.7907 11.0096 17.9281 11.4104C18.0506 11.763 18.0277 12.1775 17.6235 12.5806L17.2193 12.9848L17.6235 13.3901C17.6727 13.4394 17.7437 13.5516 17.7998 13.7508C17.8548 13.942 17.8857 14.1745 17.8857 14.4161C17.8857 14.6588 17.8548 14.8901 17.7998 15.0825C17.7426 15.2817 17.6727 15.3939 17.6235 15.4432L17.2193 15.8474L17.6235 16.2527C17.6773 16.3065 17.7483 16.4554 17.6292 16.8115C17.5051 17.1568 17.3079 17.4712 17.051 17.7332L16.6468 18.1374L17.051 18.5428C17.0578 18.5485 17.0979 18.6 17.0979 18.7374C17.0928 18.9054 17.0452 19.0693 16.9594 19.2138C16.7704 19.5435 16.3834 19.855 15.7388 19.855V19.8561Z" fill="#9021a6"/>
</svg>
