<svg width="24" height="24" viewBox="0 0 24 24" fill="none" xmlns="http://www.w3.org/2000/svg">
<path fill-rule="evenodd" clip-rule="evenodd" d="M4.8006 18.4752V12.1252L6.0005 10.9251V18.4752C6.0005 18.6343 6.06371 18.7869 6.17622 18.8995C6.28873 19.012 6.44133 19.0752 6.60045 19.0752H17.3995C17.5587 19.0752 17.7113 19.012 17.8238 18.8995C17.9363 18.7869 17.9995 18.6343 17.9995 18.4752V10.9251L19.041 11.9668L19.1994 18.4752C19.1994 18.9526 19.0098 19.4104 18.6722 19.7479C18.3347 20.0854 17.8769 20.2751 17.3995 20.2751H6.60045C6.1231 20.2751 5.6653 20.0854 5.32776 19.7479C4.99022 19.4104 4.8006 18.9526 4.8006 18.4752ZM17.9995 5.27633V9.22679L15.5997 6.827V5.27633C15.5997 5.11722 15.6629 4.96462 15.7754 4.85211C15.8879 4.73959 16.0405 4.67639 16.1996 4.67639H17.3995C17.5587 4.67639 17.7113 4.73959 17.8238 4.85211C17.9363 4.96462 17.9995 5.11722 17.9995 5.27633Z" fill="#9021a6"/>
<path fill-rule="evenodd" clip-rule="evenodd" d="M11.1517 4.07641C11.3767 3.85147 11.6818 3.7251 12 3.7251C12.3182 3.7251 12.6233 3.85147 12.8483 4.07641L20.8241 12.0509C20.9367 12.1636 21 12.3164 21 12.4757C21 12.635 20.9367 12.7878 20.8241 12.9005C20.7114 13.0131 20.5586 13.0764 20.3993 13.0764C20.24 13.0764 20.0872 13.0131 19.9745 12.9005L12 4.92474L4.02547 12.9005C3.91282 13.0131 3.76002 13.0764 3.60071 13.0764C3.44139 13.0764 3.2886 13.0131 3.17594 12.9005C3.06329 12.7878 3 12.635 3 12.4757C3 12.3164 3.06329 12.1636 3.17594 12.0509L11.1517 4.07641Z" fill="#9021a6"/>
</svg>
