<svg width="23" height="23" viewBox="0 0 23 23" fill="none" xmlns="http://www.w3.org/2000/svg">
<path fill-rule="evenodd" clip-rule="evenodd" d="M8.73922 9.46395C8.76681 9.38096 8.78174 9.29219 8.78174 9.19993V0.836357C8.78174 0.795799 8.77886 0.755914 8.77328 0.716899C8.71531 0.311578 8.36674 5.02406e-09 7.94539 0L7.94013 1.62025e-05H4.80905C4.34714 1.62025e-05 3.97269 0.374466 3.97269 0.836374C3.97269 1.29828 4.34714 1.67273 4.80905 1.67273H7.10903V9.00854L0.591227 17.9686C0.548326 18.0276 0.514256 18.0903 0.488768 18.1552C0.179615 18.6467 0 19.2334 0 19.8634C0 21.5956 1.35738 22.9998 3.03179 22.9998L3.19316 22.9999C3.29895 23 3.40331 23.0002 3.50596 22.9998H18.5529C18.6556 23.0002 18.7599 23 18.8657 22.9999C18.9192 22.9999 18.973 22.9998 19.0271 22.9998C20.7015 22.9998 22.0589 21.5956 22.0589 19.8634C22.0589 19.2075 21.8643 18.5987 21.5315 18.0952C21.5102 18.0516 21.4849 18.0092 21.4553 17.9686L14.9375 9.00853V1.67273H17.2375C17.6994 1.67273 18.0738 1.29828 18.0738 0.836374C18.0738 0.374466 17.6994 1.62025e-05 17.2375 1.62025e-05H14.1064L14.1012 0C13.8125 3.44335e-09 13.5579 0.146278 13.4076 0.368758C13.3175 0.502236 13.2648 0.66315 13.2648 0.836357L13.2648 0.836374L13.2648 0.839228V9.19993C13.2648 9.29221 13.2798 9.381 13.3074 9.46402C13.3283 9.58696 13.3772 9.70708 13.4555 9.81477L19.7917 18.5252C20.237 19.236 20.5601 20.019 20.0725 20.5953C19.8315 20.9905 19.0908 21.2433 17.941 21.3271H15.9953H6.06358H4.11789C2.96806 21.2433 2.22735 20.9905 1.98635 20.5953C1.46577 19.98 1.8693 19.1291 2.35896 18.382L8.59101 9.81477C8.66936 9.70706 8.71826 9.58692 8.73922 9.46395Z" fill="#333333"/>
<path d="M7.87104 12.5416C8.05043 12.2856 8.33494 12.1233 8.64657 12.0992L13.1014 11.7548C13.4695 11.7264 13.8253 11.8942 14.0375 12.1963L18.707 18.8443C19.1936 19.5371 18.698 20.4907 17.8515 20.4907H4.30923C3.46317 20.4907 2.96753 19.538 3.45311 18.8452L7.87104 12.5416Z" fill="#9021a6"/>
</svg>
