<svg width="48" height="48" viewBox="0 0 48 48" fill="none" xmlns="http://www.w3.org/2000/svg">
<circle cx="24" cy="24" r="24" fill="#DEDEDD"/>
<path d="M12.4895 25.32L25.3199 12.4896C25.5513 12.2659 25.8564 12.1345 26.1779 12.12H34.5599C34.91 12.12 35.2457 12.2591 35.4933 12.5066C35.7408 12.7542 35.8799 13.0899 35.8799 13.44V21.822C35.8654 22.1435 35.734 22.4486 35.5103 22.68L22.6799 35.5104C22.4351 35.7406 22.1117 35.8687 21.7757 35.8687C21.4397 35.8687 21.1163 35.7406 20.8715 35.5104L12.4499 27.0888C12.2363 26.8414 12.1222 26.5235 12.1295 26.1968C12.1368 25.87 12.2651 25.5576 12.4895 25.32ZM30.5999 20.04C31.122 20.04 31.6324 19.8852 32.0666 19.5951C32.5007 19.305 32.8391 18.8927 33.0389 18.4103C33.2387 17.9279 33.291 17.3971 33.1892 16.885C33.0873 16.3728 32.8359 15.9024 32.4666 15.5332C32.0974 15.164 31.627 14.9126 31.1149 14.8107C30.6028 14.7089 30.072 14.7611 29.5896 14.961C29.1072 15.1608 28.6949 15.4991 28.4048 15.9333C28.1147 16.3674 27.9599 16.8779 27.9599 17.4C27.9599 18.1002 28.238 18.7717 28.7331 19.2668C29.2282 19.7619 29.8997 20.04 30.5999 20.04Z" fill="#EB5D5E"/>
</svg>
