<svg xmlns="http://www.w3.org/2000/svg" xmlns:xlink="http://www.w3.org/1999/xlink" width="110" zoomAndPan="magnify" viewBox="0 0 82.5 48.749998" height="65" preserveAspectRatio="xMidYMid meet" version="1.0"><path fill="#9021a6" d="M 41.199219 16.042969 L 40.488281 16.042969 L 41.199219 15.566406 L 41.199219 10.757812 C 41.199219 10 40.578125 9.367188 39.804688 9.367188 L 35.875 9.367188 C 35.117188 9.367188 34.484375 9.984375 34.484375 10.757812 L 34.484375 27.84375 C 34.484375 28.605469 35.101562 29.238281 35.875 29.238281 L 41.183594 29.238281 C 47.136719 29.238281 48.039062 26.828125 48.039062 22.652344 C 48.054688 18.4375 47.152344 16.042969 41.199219 16.042969 Z M 42.433594 25.695312 C 42.433594 26.234375 41.996094 26.671875 41.457031 26.671875 C 40.914062 26.671875 40.476562 26.234375 40.476562 25.695312 L 40.476562 18.582031 L 41.457031 18.582031 C 41.996094 18.582031 42.433594 19.019531 42.433594 19.558594 Z M 42.433594 25.695312 " fill-opacity="1" fill-rule="nonzero"/><path fill="#9021a6" d="M 25.554688 16.054688 C 19.125 16.054688 18.160156 18.710938 18.160156 22.898438 C 18.160156 27.085938 19.125 29.738281 25.554688 29.738281 C 31.984375 29.738281 32.953125 27.085938 32.953125 22.898438 C 32.953125 18.710938 31.972656 16.054688 25.554688 16.054688 Z M 26.535156 25.953125 C 26.535156 26.492188 26.097656 26.929688 25.554688 26.929688 C 25.011719 26.929688 24.574219 26.492188 24.574219 25.953125 L 24.574219 19.832031 C 24.574219 19.289062 25.011719 18.851562 25.554688 18.851562 C 26.097656 18.851562 26.535156 19.289062 26.535156 19.832031 Z M 26.535156 25.953125 " fill-opacity="1" fill-rule="nonzero"/><path fill="#9021a6" d="M 63.527344 23.890625 L 58 23.890625 L 58 25.953125 C 58 26.519531 57.523438 26.96875 56.957031 26.929688 C 56.429688 26.90625 56.03125 26.429688 56.03125 25.886719 L 56.03125 23.246094 L 55.5 22.882812 L 63.605469 22.882812 C 64.058594 22.882812 64.417969 22.511719 64.394531 22.074219 C 64.25 18.363281 63.015625 16.042969 57.007812 16.042969 C 50.578125 16.042969 49.613281 18.695312 49.613281 22.882812 C 49.613281 27.074219 50.578125 29.726562 57.007812 29.726562 C 62.421875 29.726562 63.953125 27.84375 64.316406 24.753906 C 64.367188 24.289062 63.992188 23.890625 63.527344 23.890625 Z M 56.015625 19.832031 C 56.015625 19.226562 56.570312 18.75 57.203125 18.863281 C 57.667969 18.953125 57.988281 19.390625 57.988281 19.871094 L 57.988281 21.890625 L 56.015625 21.890625 Z M 56.015625 19.832031 " fill-opacity="1" fill-rule="nonzero"/><path fill="#9021a6" d="M 8.714844 8.878906 C 1.859375 8.878906 0.828125 11.855469 0.828125 16.542969 L 0.828125 22.074219 C 0.828125 26.761719 1.859375 29.738281 8.714844 29.738281 C 15.570312 29.738281 16.597656 26.761719 16.597656 22.074219 L 16.597656 16.542969 C 16.597656 11.855469 15.570312 8.878906 8.714844 8.878906 Z M 9.871094 13.863281 L 9.871094 25.71875 L 7.554688 25.71875 L 7.554688 12.910156 L 11.277344 12.910156 Z M 9.871094 13.863281 " fill-opacity="1" fill-rule="nonzero"/><path fill="#9021a6" d="M 79.855469 23.890625 L 74.328125 23.890625 L 74.328125 25.953125 C 74.328125 26.519531 73.851562 26.96875 73.285156 26.929688 C 72.753906 26.90625 72.355469 26.429688 72.355469 25.886719 L 72.355469 23.246094 L 71.828125 22.882812 L 79.933594 22.882812 C 80.382812 22.882812 80.746094 22.511719 80.71875 22.074219 C 80.578125 18.363281 79.339844 16.042969 73.335938 16.042969 C 66.90625 16.042969 65.9375 18.695312 65.9375 22.882812 C 65.9375 27.074219 66.90625 29.726562 73.335938 29.726562 C 78.746094 29.726562 80.28125 27.84375 80.640625 24.753906 C 80.691406 24.289062 80.320312 23.890625 79.855469 23.890625 Z M 72.355469 19.832031 C 72.355469 19.226562 72.910156 18.75 73.542969 18.863281 C 74.003906 18.953125 74.328125 19.390625 74.328125 19.871094 L 74.328125 21.890625 L 72.355469 21.890625 Z M 72.355469 19.832031 " fill-opacity="1" fill-rule="nonzero"/><path fill="#9021a6" d="M 41.199219 16.042969 L 40.488281 16.042969 L 41.199219 15.566406 L 41.199219 10.757812 C 41.199219 10 40.578125 9.367188 39.804688 9.367188 L 35.875 9.367188 C 35.117188 9.367188 34.484375 9.984375 34.484375 10.757812 L 34.484375 27.84375 C 34.484375 28.605469 35.101562 29.238281 35.875 29.238281 L 41.183594 29.238281 C 47.136719 29.238281 48.039062 26.828125 48.039062 22.652344 C 48.054688 18.4375 47.152344 16.042969 41.199219 16.042969 Z M 42.433594 25.695312 C 42.433594 26.234375 41.996094 26.671875 41.457031 26.671875 C 40.914062 26.671875 40.476562 26.234375 40.476562 25.695312 L 40.476562 18.582031 L 41.457031 18.582031 C 41.996094 18.582031 42.433594 19.019531 42.433594 19.558594 Z M 42.433594 25.695312 " fill-opacity="1" fill-rule="nonzero"/><path fill="#9021a6" d="M 25.554688 16.054688 C 19.125 16.054688 18.160156 18.710938 18.160156 22.898438 C 18.160156 27.085938 19.125 29.738281 25.554688 29.738281 C 31.984375 29.738281 32.953125 27.085938 32.953125 22.898438 C 32.953125 18.710938 31.972656 16.054688 25.554688 16.054688 Z M 26.535156 25.953125 C 26.535156 26.492188 26.097656 26.929688 25.554688 26.929688 C 25.011719 26.929688 24.574219 26.492188 24.574219 25.953125 L 24.574219 19.832031 C 24.574219 19.289062 25.011719 18.851562 25.554688 18.851562 C 26.097656 18.851562 26.535156 19.289062 26.535156 19.832031 Z M 26.535156 25.953125 " fill-opacity="1" fill-rule="nonzero"/><path fill="#9021a6" d="M 63.527344 23.890625 L 58 23.890625 L 58 25.953125 C 58 26.519531 57.523438 26.96875 56.957031 26.929688 C 56.429688 26.90625 56.03125 26.429688 56.03125 25.886719 L 56.03125 23.246094 L 55.5 22.882812 L 63.605469 22.882812 C 64.058594 22.882812 64.417969 22.511719 64.394531 22.074219 C 64.25 18.363281 63.015625 16.042969 57.007812 16.042969 C 50.578125 16.042969 49.613281 18.695312 49.613281 22.882812 C 49.613281 27.074219 50.578125 29.726562 57.007812 29.726562 C 62.421875 29.726562 63.953125 27.84375 64.316406 24.753906 C 64.367188 24.289062 63.992188 23.890625 63.527344 23.890625 Z M 56.015625 19.832031 C 56.015625 19.226562 56.570312 18.75 57.203125 18.863281 C 57.667969 18.953125 57.988281 19.390625 57.988281 19.871094 L 57.988281 21.890625 L 56.015625 21.890625 Z M 56.015625 19.832031 " fill-opacity="1" fill-rule="nonzero"/><path fill="#9021a6" d="M 8.714844 8.878906 C 1.859375 8.878906 0.828125 11.855469 0.828125 16.542969 L 0.828125 22.074219 C 0.828125 26.761719 1.859375 29.738281 8.714844 29.738281 C 15.570312 29.738281 16.597656 26.761719 16.597656 22.074219 L 16.597656 16.542969 C 16.597656 11.855469 15.570312 8.878906 8.714844 8.878906 Z M 9.871094 13.863281 L 9.871094 25.71875 L 7.554688 25.71875 L 7.554688 12.910156 L 11.277344 12.910156 Z M 9.871094 13.863281 " fill-opacity="1" fill-rule="nonzero"/><path fill="#9021a6" d="M 79.855469 23.890625 L 74.328125 23.890625 L 74.328125 25.953125 C 74.328125 26.519531 73.851562 26.96875 73.285156 26.929688 C 72.753906 26.90625 72.355469 26.429688 72.355469 25.886719 L 72.355469 23.246094 L 71.828125 22.882812 L 79.933594 22.882812 C 80.382812 22.882812 80.746094 22.511719 80.71875 22.074219 C 80.578125 18.363281 79.339844 16.042969 73.335938 16.042969 C 66.90625 16.042969 65.9375 18.695312 65.9375 22.882812 C 65.9375 27.074219 66.90625 29.726562 73.335938 29.726562 C 78.746094 29.726562 80.28125 27.84375 80.640625 24.753906 C 80.691406 24.289062 80.320312 23.890625 79.855469 23.890625 Z M 72.355469 19.832031 C 72.355469 19.226562 72.910156 18.75 73.542969 18.863281 C 74.003906 18.953125 74.328125 19.390625 74.328125 19.871094 L 74.328125 21.890625 L 72.355469 21.890625 Z M 72.355469 19.832031 " fill-opacity="1" fill-rule="nonzero"/><path fill="#9021a6" d="M 19.898438 35.191406 C 20 35.164062 20.105469 35.152344 20.234375 35.140625 C 20.347656 35.125 20.464844 35.125 20.582031 35.125 C 20.710938 35.125 20.824219 35.140625 20.953125 35.164062 C 21.082031 35.191406 21.199219 35.230469 21.300781 35.292969 C 21.40625 35.359375 21.496094 35.449219 21.558594 35.5625 C 21.625 35.679688 21.664062 35.820312 21.664062 35.988281 C 21.664062 36.15625 21.636719 36.3125 21.574219 36.425781 C 21.507812 36.542969 21.429688 36.648438 21.328125 36.710938 C 21.226562 36.777344 21.109375 36.839844 20.980469 36.867188 C 20.851562 36.890625 20.710938 36.917969 20.566406 36.917969 C 20.554688 36.917969 20.53125 36.917969 20.503906 36.917969 C 20.476562 36.917969 20.4375 36.917969 20.414062 36.917969 C 20.375 36.917969 20.347656 36.917969 20.308594 36.917969 C 20.285156 36.917969 20.257812 36.917969 20.246094 36.902344 L 20.246094 37.972656 L 19.898438 37.972656 Z M 20.582031 35.421875 C 20.515625 35.421875 20.4375 35.421875 20.375 35.421875 C 20.308594 35.421875 20.257812 35.433594 20.21875 35.449219 L 20.21875 36.621094 C 20.234375 36.621094 20.257812 36.632812 20.285156 36.632812 L 20.464844 36.632812 C 20.464844 36.632812 20.515625 36.632812 20.53125 36.632812 C 20.621094 36.632812 20.710938 36.621094 20.800781 36.609375 C 20.890625 36.59375 20.96875 36.554688 21.042969 36.519531 C 21.121094 36.464844 21.171875 36.402344 21.226562 36.324219 C 21.265625 36.246094 21.289062 36.132812 21.289062 36.003906 C 21.289062 35.886719 21.265625 35.796875 21.226562 35.730469 C 21.1875 35.65625 21.136719 35.601562 21.058594 35.550781 C 20.992188 35.511719 20.914062 35.472656 20.824219 35.460938 C 20.761719 35.433594 20.671875 35.421875 20.582031 35.421875 Z M 20.582031 35.421875 " fill-opacity="1" fill-rule="nonzero"/><path fill="#9021a6" d="M 22.128906 36.570312 C 22.128906 36.105469 22.230469 35.746094 22.421875 35.488281 C 22.617188 35.242188 22.902344 35.113281 23.273438 35.113281 C 23.46875 35.113281 23.648438 35.152344 23.789062 35.214844 C 23.929688 35.28125 24.058594 35.382812 24.148438 35.511719 C 24.242188 35.640625 24.316406 35.796875 24.355469 35.976562 C 24.40625 36.15625 24.421875 36.351562 24.421875 36.570312 C 24.421875 37.03125 24.316406 37.394531 24.125 37.652344 C 23.917969 37.894531 23.636719 38.023438 23.273438 38.023438 C 23.082031 38.023438 22.914062 37.988281 22.773438 37.921875 C 22.628906 37.859375 22.515625 37.753906 22.410156 37.625 C 22.320312 37.496094 22.242188 37.34375 22.203125 37.160156 C 22.152344 36.996094 22.128906 36.789062 22.128906 36.570312 Z M 22.476562 36.570312 C 22.476562 36.722656 22.488281 36.878906 22.527344 37.007812 C 22.566406 37.136719 22.605469 37.265625 22.667969 37.382812 C 22.734375 37.496094 22.808594 37.574219 22.914062 37.640625 C 23.015625 37.703125 23.132812 37.730469 23.273438 37.730469 C 23.519531 37.730469 23.726562 37.640625 23.867188 37.445312 C 24.007812 37.253906 24.085938 36.96875 24.085938 36.570312 C 24.085938 36.414062 24.074219 36.273438 24.035156 36.132812 C 24.007812 35.988281 23.957031 35.875 23.894531 35.757812 C 23.828125 35.65625 23.738281 35.5625 23.648438 35.5 C 23.558594 35.433594 23.429688 35.410156 23.285156 35.410156 C 23.042969 35.410156 22.847656 35.5 22.707031 35.691406 C 22.550781 35.886719 22.476562 36.183594 22.476562 36.570312 Z M 22.476562 36.570312 " fill-opacity="1" fill-rule="nonzero"/><path fill="#9021a6" d="M 25.582031 37.046875 L 25.644531 37.511719 L 25.710938 37.03125 L 26.289062 35.152344 L 26.445312 35.152344 L 27.023438 37.03125 L 27.089844 37.496094 L 27.164062 37.019531 L 27.640625 35.140625 L 27.964844 35.140625 L 27.179688 38 L 27 38 L 26.429688 36.117188 L 26.355469 35.691406 L 26.328125 35.691406 L 26.25 36.117188 L 25.683594 38 L 25.503906 38 L 24.703125 35.140625 L 25.050781 35.140625 Z M 25.582031 37.046875 " fill-opacity="1" fill-rule="nonzero"/><path fill="#9021a6" d="M 28.46875 35.164062 L 30 35.164062 L 30 35.460938 L 28.800781 35.460938 L 28.800781 36.375 L 29.898438 36.375 L 29.898438 36.671875 L 28.800781 36.671875 L 28.800781 37.675781 L 30.027344 37.675781 L 30.027344 37.972656 L 28.480469 37.972656 L 28.480469 35.164062 Z M 28.46875 35.164062 " fill-opacity="1" fill-rule="nonzero"/><path fill="#9021a6" d="M 30.617188 35.191406 C 30.722656 35.175781 30.839844 35.152344 30.96875 35.152344 C 31.097656 35.140625 31.226562 35.140625 31.328125 35.140625 C 31.457031 35.140625 31.574219 35.152344 31.675781 35.175781 C 31.792969 35.203125 31.882812 35.253906 31.972656 35.304688 C 32.0625 35.371094 32.125 35.449219 32.179688 35.550781 C 32.230469 35.65625 32.253906 35.769531 32.253906 35.910156 C 32.253906 36.132812 32.191406 36.3125 32.074219 36.453125 C 31.960938 36.59375 31.804688 36.683594 31.609375 36.722656 L 31.804688 36.878906 L 32.5 37.988281 L 32.113281 37.988281 L 31.339844 36.777344 L 30.941406 36.710938 L 30.941406 37.988281 L 30.605469 37.988281 L 30.605469 35.191406 Z M 31.351562 35.421875 C 31.316406 35.421875 31.277344 35.421875 31.25 35.421875 C 31.210938 35.421875 31.171875 35.421875 31.148438 35.421875 C 31.109375 35.421875 31.082031 35.421875 31.042969 35.433594 C 31.019531 35.433594 30.992188 35.449219 30.96875 35.449219 L 30.96875 36.492188 L 31.277344 36.492188 C 31.457031 36.492188 31.609375 36.441406 31.738281 36.351562 C 31.855469 36.261719 31.921875 36.117188 31.921875 35.925781 C 31.921875 35.78125 31.867188 35.667969 31.765625 35.5625 C 31.664062 35.472656 31.519531 35.421875 31.351562 35.421875 Z M 31.351562 35.421875 " fill-opacity="1" fill-rule="nonzero"/><path fill="#9021a6" d="M 33.066406 35.164062 L 34.601562 35.164062 L 34.601562 35.460938 L 33.402344 35.460938 L 33.402344 36.375 L 34.496094 36.375 L 34.496094 36.671875 L 33.402344 36.671875 L 33.402344 37.675781 L 34.625 37.675781 L 34.625 37.972656 L 33.082031 37.972656 L 33.082031 35.164062 Z M 33.066406 35.164062 " fill-opacity="1" fill-rule="nonzero"/><path fill="#9021a6" d="M 35.21875 35.164062 C 35.269531 35.152344 35.324219 35.152344 35.386719 35.152344 C 35.449219 35.152344 35.515625 35.140625 35.578125 35.140625 C 35.644531 35.140625 35.722656 35.140625 35.785156 35.140625 L 35.964844 35.140625 C 36.1875 35.140625 36.390625 35.175781 36.546875 35.242188 C 36.699219 35.304688 36.84375 35.410156 36.957031 35.539062 C 37.0625 35.667969 37.152344 35.808594 37.203125 35.988281 C 37.253906 36.167969 37.28125 36.351562 37.28125 36.570312 C 37.28125 36.761719 37.253906 36.941406 37.203125 37.125 C 37.152344 37.304688 37.074219 37.457031 36.972656 37.585938 C 36.867188 37.730469 36.726562 37.832031 36.558594 37.910156 C 36.390625 37.988281 36.1875 38.039062 35.941406 38.039062 C 35.902344 38.039062 35.835938 38.039062 35.773438 38.039062 C 35.707031 38.039062 35.632812 38.039062 35.566406 38.023438 C 35.488281 38.023438 35.425781 38.011719 35.359375 38.011719 C 35.296875 38.011719 35.257812 38 35.230469 38 L 35.230469 35.164062 Z M 35.980469 35.421875 C 35.941406 35.421875 35.902344 35.421875 35.863281 35.421875 C 35.824219 35.421875 35.785156 35.421875 35.734375 35.421875 C 35.695312 35.421875 35.65625 35.421875 35.617188 35.433594 C 35.578125 35.433594 35.554688 35.433594 35.542969 35.449219 L 35.542969 37.703125 L 35.929688 37.703125 C 36.121094 37.703125 36.277344 37.675781 36.40625 37.613281 C 36.535156 37.546875 36.636719 37.457031 36.714844 37.355469 C 36.792969 37.253906 36.84375 37.125 36.882812 36.980469 C 36.90625 36.839844 36.933594 36.699219 36.933594 36.542969 C 36.933594 36.414062 36.921875 36.285156 36.894531 36.144531 C 36.867188 36.003906 36.816406 35.886719 36.738281 35.78125 C 36.664062 35.679688 36.570312 35.589844 36.441406 35.527344 C 36.316406 35.460938 36.160156 35.421875 35.980469 35.421875 Z M 35.980469 35.421875 " fill-opacity="1" fill-rule="nonzero"/><path fill="#9021a6" d="M 40.824219 35.808594 C 40.824219 35.875 40.8125 35.949219 40.796875 36.015625 C 40.773438 36.078125 40.746094 36.144531 40.707031 36.207031 C 40.667969 36.273438 40.605469 36.324219 40.542969 36.363281 C 40.476562 36.414062 40.398438 36.441406 40.308594 36.464844 L 40.308594 36.480469 C 40.386719 36.492188 40.464844 36.519531 40.542969 36.542969 C 40.617188 36.570312 40.683594 36.621094 40.734375 36.671875 C 40.785156 36.722656 40.835938 36.800781 40.875 36.878906 C 40.914062 36.957031 40.925781 37.058594 40.925781 37.160156 C 40.925781 37.304688 40.902344 37.433594 40.835938 37.535156 C 40.773438 37.640625 40.695312 37.730469 40.605469 37.792969 C 40.503906 37.859375 40.398438 37.910156 40.269531 37.949219 C 40.140625 37.988281 40.011719 38 39.882812 38 C 39.832031 38 39.78125 38 39.730469 38 C 39.664062 38 39.601562 38 39.535156 38 C 39.472656 38 39.40625 37.988281 39.328125 37.988281 C 39.265625 37.972656 39.199219 37.972656 39.148438 37.960938 L 39.148438 35.191406 C 39.253906 35.175781 39.367188 35.164062 39.496094 35.152344 C 39.625 35.140625 39.769531 35.140625 39.921875 35.140625 C 40.027344 35.140625 40.128906 35.152344 40.246094 35.164062 C 40.359375 35.175781 40.449219 35.214844 40.542969 35.269531 C 40.632812 35.320312 40.707031 35.382812 40.761719 35.472656 C 40.796875 35.550781 40.824219 35.667969 40.824219 35.808594 Z M 39.664062 36.402344 L 39.832031 36.402344 C 39.898438 36.402344 39.949219 36.390625 39.988281 36.390625 C 40.050781 36.363281 40.117188 36.335938 40.167969 36.3125 C 40.21875 36.285156 40.269531 36.246094 40.320312 36.207031 C 40.359375 36.167969 40.398438 36.117188 40.425781 36.066406 C 40.449219 36.015625 40.464844 35.949219 40.464844 35.886719 C 40.464844 35.796875 40.449219 35.71875 40.414062 35.667969 C 40.375 35.617188 40.335938 35.5625 40.285156 35.527344 C 40.230469 35.488281 40.167969 35.460938 40.089844 35.449219 C 40.011719 35.433594 39.949219 35.421875 39.871094 35.421875 C 39.78125 35.421875 39.703125 35.421875 39.625 35.421875 C 39.546875 35.421875 39.496094 35.433594 39.457031 35.433594 L 39.457031 36.390625 L 39.664062 36.390625 Z M 39.882812 37.714844 C 39.972656 37.714844 40.050781 37.703125 40.128906 37.691406 C 40.207031 37.664062 40.285156 37.640625 40.347656 37.601562 C 40.414062 37.5625 40.464844 37.496094 40.488281 37.433594 C 40.527344 37.367188 40.542969 37.289062 40.542969 37.199219 C 40.542969 37.085938 40.515625 37.007812 40.476562 36.929688 C 40.4375 36.867188 40.375 36.8125 40.308594 36.777344 C 40.230469 36.738281 40.15625 36.710938 40.0625 36.699219 C 39.972656 36.683594 39.882812 36.671875 39.792969 36.671875 L 39.445312 36.671875 L 39.445312 37.675781 C 39.457031 37.675781 39.496094 37.691406 39.523438 37.691406 C 39.5625 37.691406 39.601562 37.691406 39.640625 37.703125 L 39.769531 37.703125 C 39.820312 37.714844 39.859375 37.714844 39.882812 37.714844 Z M 39.882812 37.714844 " fill-opacity="1" fill-rule="nonzero"/><path fill="#9021a6" d="M 42.113281 36.867188 L 41.183594 35.164062 L 41.570312 35.164062 L 42.230469 36.402344 L 42.292969 36.648438 L 42.371094 36.390625 L 43.003906 35.164062 L 43.351562 35.164062 L 42.433594 36.851562 L 42.433594 37.972656 L 42.101562 37.972656 L 42.101562 36.867188 Z M 42.113281 36.867188 " fill-opacity="1" fill-rule="nonzero"/><path fill="#9021a6" d="M 45.914062 36.503906 L 46.957031 36.503906 L 46.957031 37.753906 C 46.84375 37.84375 46.714844 37.921875 46.558594 37.960938 C 46.402344 38 46.25 38.023438 46.09375 38.023438 C 45.914062 38.023438 45.746094 38 45.59375 37.933594 C 45.4375 37.882812 45.308594 37.792969 45.191406 37.675781 C 45.078125 37.5625 44.988281 37.40625 44.921875 37.226562 C 44.859375 37.046875 44.820312 36.828125 44.820312 36.570312 C 44.820312 36.296875 44.859375 36.078125 44.933594 35.886719 C 45.011719 35.707031 45.117188 35.550781 45.230469 35.433594 C 45.347656 35.320312 45.503906 35.230469 45.65625 35.175781 C 45.8125 35.125 45.964844 35.101562 46.132812 35.101562 C 46.289062 35.101562 46.429688 35.113281 46.558594 35.140625 C 46.675781 35.164062 46.777344 35.191406 46.855469 35.214844 L 46.738281 35.679688 C 46.675781 35.65625 46.597656 35.628906 46.519531 35.617188 C 46.441406 35.601562 46.328125 35.589844 46.199219 35.589844 C 46.082031 35.589844 45.980469 35.601562 45.875 35.640625 C 45.773438 35.679688 45.695312 35.730469 45.617188 35.808594 C 45.539062 35.886719 45.488281 35.988281 45.449219 36.117188 C 45.410156 36.246094 45.386719 36.390625 45.386719 36.570312 C 45.386719 36.738281 45.398438 36.878906 45.4375 37.007812 C 45.476562 37.125 45.527344 37.226562 45.59375 37.304688 C 45.65625 37.382812 45.734375 37.445312 45.824219 37.484375 C 45.914062 37.523438 46.003906 37.535156 46.109375 37.535156 C 46.171875 37.535156 46.25 37.523438 46.3125 37.511719 C 46.378906 37.496094 46.441406 37.472656 46.480469 37.433594 L 46.480469 36.902344 L 45.875 36.839844 L 45.875 36.503906 Z M 45.914062 36.503906 " fill-opacity="1" fill-rule="nonzero"/><path fill="#9021a6" d="M 47.359375 36.570312 C 47.359375 36.105469 47.460938 35.746094 47.667969 35.488281 C 47.871094 35.230469 48.167969 35.101562 48.554688 35.101562 C 48.761719 35.101562 48.929688 35.140625 49.085938 35.203125 C 49.238281 35.269531 49.355469 35.371094 49.457031 35.5 C 49.5625 35.628906 49.625 35.78125 49.675781 35.964844 C 49.730469 36.144531 49.753906 36.335938 49.753906 36.570312 C 49.753906 37.03125 49.652344 37.394531 49.445312 37.652344 C 49.238281 37.910156 48.941406 38.039062 48.554688 38.039062 C 48.351562 38.039062 48.167969 38 48.027344 37.933594 C 47.871094 37.871094 47.757812 37.769531 47.652344 37.640625 C 47.550781 37.511719 47.488281 37.355469 47.433594 37.175781 C 47.371094 36.996094 47.359375 36.789062 47.359375 36.570312 Z M 47.925781 36.570312 C 47.925781 36.710938 47.9375 36.839844 47.964844 36.957031 C 47.988281 37.070312 48.027344 37.175781 48.078125 37.265625 C 48.128906 37.355469 48.195312 37.417969 48.273438 37.472656 C 48.351562 37.523438 48.441406 37.546875 48.554688 37.546875 C 48.75 37.546875 48.902344 37.472656 49.007812 37.316406 C 49.109375 37.160156 49.160156 36.917969 49.160156 36.570312 C 49.160156 36.425781 49.148438 36.3125 49.121094 36.183594 C 49.097656 36.066406 49.058594 35.964844 49.019531 35.875 C 48.96875 35.78125 48.902344 35.71875 48.828125 35.667969 C 48.75 35.617188 48.660156 35.589844 48.542969 35.589844 C 48.351562 35.589844 48.195312 35.667969 48.09375 35.820312 C 47.988281 35.988281 47.925781 36.234375 47.925781 36.570312 Z M 47.925781 36.570312 " fill-opacity="1" fill-rule="nonzero"/><path fill="#9021a6" d="M 51.070312 36.8125 L 51.144531 37.289062 L 51.171875 37.289062 L 51.25 36.8125 L 51.789062 35.164062 L 52.371094 35.164062 L 51.328125 38 L 50.925781 38 L 49.871094 35.164062 L 50.515625 35.164062 Z M 51.070312 36.8125 " fill-opacity="1" fill-rule="nonzero"/><path fill="#9021a6" d="M 54.792969 35.65625 L 53.96875 35.65625 L 53.96875 37.972656 L 53.414062 37.972656 L 53.414062 35.65625 L 52.589844 35.65625 L 52.589844 35.164062 L 54.78125 35.164062 L 54.78125 35.65625 Z M 54.792969 35.65625 " fill-opacity="1" fill-rule="nonzero"/><path fill="#9021a6" d="M 55.167969 35.164062 L 56.839844 35.164062 L 56.839844 35.65625 L 55.71875 35.65625 L 55.71875 36.3125 L 56.738281 36.3125 L 56.738281 36.800781 L 55.71875 36.800781 L 55.71875 37.484375 L 56.855469 37.484375 L 56.855469 37.972656 L 55.167969 37.972656 Z M 55.167969 35.164062 " fill-opacity="1" fill-rule="nonzero"/><path fill="#9021a6" d="M 59.210938 37.859375 C 59.121094 37.921875 59.019531 37.960938 58.890625 37.988281 C 58.761719 38.011719 58.621094 38.023438 58.476562 38.023438 C 58.308594 38.023438 58.144531 38 58 37.949219 C 57.847656 37.894531 57.71875 37.804688 57.601562 37.691406 C 57.484375 37.574219 57.394531 37.417969 57.332031 37.238281 C 57.265625 37.058594 57.226562 36.828125 57.226562 36.554688 C 57.226562 36.285156 57.265625 36.054688 57.34375 35.859375 C 57.421875 35.679688 57.523438 35.527344 57.640625 35.410156 C 57.757812 35.292969 57.898438 35.214844 58.054688 35.164062 C 58.207031 35.113281 58.347656 35.085938 58.503906 35.085938 C 58.660156 35.085938 58.800781 35.101562 58.917969 35.113281 C 59.03125 35.140625 59.121094 35.164062 59.1875 35.191406 L 59.082031 35.65625 C 59.019531 35.628906 58.953125 35.601562 58.863281 35.589844 C 58.773438 35.578125 58.671875 35.5625 58.554688 35.5625 C 58.335938 35.5625 58.15625 35.640625 58.015625 35.796875 C 57.871094 35.949219 57.808594 36.195312 57.808594 36.53125 C 57.808594 36.671875 57.820312 36.8125 57.859375 36.929688 C 57.898438 37.046875 57.9375 37.148438 58 37.238281 C 58.066406 37.328125 58.144531 37.394531 58.246094 37.433594 C 58.347656 37.484375 58.453125 37.496094 58.582031 37.496094 C 58.695312 37.496094 58.800781 37.484375 58.890625 37.457031 C 58.96875 37.433594 59.046875 37.40625 59.109375 37.367188 Z M 59.210938 37.859375 " fill-opacity="1" fill-rule="nonzero"/><path fill="#9021a6" d="M 61.195312 36.800781 L 60.167969 36.800781 L 60.167969 37.972656 L 59.613281 37.972656 L 59.613281 35.152344 L 60.167969 35.152344 L 60.167969 36.296875 L 61.195312 36.296875 L 61.195312 35.152344 L 61.75 35.152344 L 61.75 37.972656 L 61.195312 37.972656 Z M 61.195312 36.800781 " fill-opacity="1" fill-rule="nonzero"/></svg>