<svg width="65" height="65" enable-background="new 0 0 1024 1024" viewBox="0 0 1024 1024" xmlns="http://www.w3.org/2000/svg"><path d="m0 0h1024v1024h-1024z" fill="#9021a6"/><g fill="#fff"><path d="m515.3 450.4h-5.5l5.5-3.7v-37.3c0-5.9-4.8-10.8-10.8-10.8h-30.5c-5.9 0-10.8 4.8-10.8 10.8v132.6c0 5.9 4.8 10.8 10.8 10.8h41.2c46.2 0 53.2-18.7 53.2-51.1.1-32.7-6.9-51.3-53.1-51.3zm9.6 74.9c0 4.2-3.4 7.6-7.6 7.6s-7.6-3.4-7.6-7.6v-55.2h7.6c4.2 0 7.6 3.4 7.6 7.6z"/><path d="m393.9 450.5c-49.9 0-57.4 20.6-57.4 53.1s7.5 53.1 57.4 53.1 57.4-20.6 57.4-53.1-7.6-53.1-57.4-53.1zm7.6 76.8c0 4.2-3.4 7.6-7.6 7.6s-7.6-3.4-7.6-7.6v-47.5c0-4.2 3.4-7.6 7.6-7.6s7.6 3.4 7.6 7.6z"/><path d="m688.6 511.3h-42.9v16c0 4.4-3.7 7.9-8.1 7.6-4.1-.2-7.2-3.9-7.2-8.1v-20.5l-4.1-2.8h62.9c3.5 0 6.3-2.9 6.1-6.3-1.1-28.8-10.7-46.8-57.3-46.8-49.9 0-57.4 20.6-57.4 53.1s7.5 53.1 57.4 53.1c42 0 53.9-14.6 56.7-38.6.4-3.6-2.5-6.7-6.1-6.7zm-58.3-31.5c0-4.7 4.3-8.4 9.2-7.5 3.6.7 6.1 4.1 6.1 7.8v15.7h-15.3z"/><path d="m263.2 394.8c-53.2 0-61.2 23.1-61.2 59.5v42.9c0 36.4 8 59.5 61.2 59.5s61.2-23.1 61.2-59.5v-42.9c0-36.4-8-59.5-61.2-59.5zm9 38.7v92h-18v-99.4h28.9z"/><path d="m815.3 511.3h-42.9v16c0 4.4-3.7 7.9-8.1 7.6-4.1-.2-7.2-3.9-7.2-8.1v-20.5l-4.1-2.8h62.9c3.5 0 6.3-2.9 6.1-6.3-1.1-28.8-10.7-46.8-57.3-46.8-49.9 0-57.4 20.6-57.4 53.1s7.5 53.1 57.4 53.1c42 0 53.9-14.6 56.7-38.6.4-3.6-2.5-6.7-6.1-6.7zm-58.2-31.5c0-4.7 4.3-8.4 9.2-7.5 3.6.7 6.1 4.1 6.1 7.8v15.7h-15.3z"/><path d="m515.3 450.4h-5.5l5.5-3.7v-37.3c0-5.9-4.8-10.8-10.8-10.8h-30.5c-5.9 0-10.8 4.8-10.8 10.8v132.6c0 5.9 4.8 10.8 10.8 10.8h41.2c46.2 0 53.2-18.7 53.2-51.1.1-32.7-6.9-51.3-53.1-51.3zm9.6 74.9c0 4.2-3.4 7.6-7.6 7.6s-7.6-3.4-7.6-7.6v-55.2h7.6c4.2 0 7.6 3.4 7.6 7.6z"/><path d="m393.9 450.5c-49.9 0-57.4 20.6-57.4 53.1s7.5 53.1 57.4 53.1 57.4-20.6 57.4-53.1-7.6-53.1-57.4-53.1zm7.6 76.8c0 4.2-3.4 7.6-7.6 7.6s-7.6-3.4-7.6-7.6v-47.5c0-4.2 3.4-7.6 7.6-7.6s7.6 3.4 7.6 7.6z"/><path d="m688.6 511.3h-42.9v16c0 4.4-3.7 7.9-8.1 7.6-4.1-.2-7.2-3.9-7.2-8.1v-20.5l-4.1-2.8h62.9c3.5 0 6.3-2.9 6.1-6.3-1.1-28.8-10.7-46.8-57.3-46.8-49.9 0-57.4 20.6-57.4 53.1s7.5 53.1 57.4 53.1c42 0 53.9-14.6 56.7-38.6.4-3.6-2.5-6.7-6.1-6.7zm-58.3-31.5c0-4.7 4.3-8.4 9.2-7.5 3.6.7 6.1 4.1 6.1 7.8v15.7h-15.3z"/><path d="m263.2 394.8c-53.2 0-61.2 23.1-61.2 59.5v42.9c0 36.4 8 59.5 61.2 59.5s61.2-23.1 61.2-59.5v-42.9c0-36.4-8-59.5-61.2-59.5zm9 38.7v92h-18v-99.4h28.9z"/><path d="m815.3 511.3h-42.9v16c0 4.4-3.7 7.9-8.1 7.6-4.1-.2-7.2-3.9-7.2-8.1v-20.5l-4.1-2.8h62.9c3.5 0 6.3-2.9 6.1-6.3-1.1-28.8-10.7-46.8-57.3-46.8-49.9 0-57.4 20.6-57.4 53.1s7.5 53.1 57.4 53.1c42 0 53.9-14.6 56.7-38.6.4-3.6-2.5-6.7-6.1-6.7zm-58.2-31.5c0-4.7 4.3-8.4 9.2-7.5 3.6.7 6.1 4.1 6.1 7.8v15.7h-15.3z"/><path d="m350 599c.8-.2 1.6-.3 2.6-.4.9-.1 1.8-.1 2.7-.1 1 0 1.9.1 2.9.3s1.9.5 2.7 1 1.5 1.2 2 2.1.8 2 .8 3.3-.2 2.5-.7 3.4-1.1 1.7-1.9 2.2-1.7 1-2.7 1.2-2.1.4-3.2.4c-.1 0-.3 0-.5 0s-.5 0-.7 0c-.3 0-.5 0-.8 0-.2 0-.4 0-.5-.1v8.3h-2.7zm5.3 1.8c-.5 0-1.1 0-1.6 0s-.9.1-1.2.2v9.1c.1 0 .3.1.5.1h.7.7s.4 0 .5 0c.7 0 1.4-.1 2.1-.2s1.3-.4 1.9-.7c.6-.4 1-.9 1.4-1.5.3-.6.5-1.5.5-2.5 0-.9-.2-1.6-.5-2.1-.3-.6-.7-1-1.3-1.4-.5-.3-1.1-.6-1.8-.7-.5-.2-1.2-.3-1.9-.3z"/><path d="m367.3 609.7c0-3.6.8-6.4 2.3-8.4 1.5-1.9 3.7-2.9 6.6-2.9 1.5 0 2.9.3 4 .8s2.1 1.3 2.8 2.3 1.3 2.2 1.6 3.6c.4 1.4.5 2.9.5 4.6 0 3.6-.8 6.4-2.3 8.4-1.6 1.9-3.8 2.9-6.6 2.9-1.5 0-2.8-.3-3.9-.8s-2-1.3-2.8-2.3c-.7-1-1.3-2.2-1.6-3.6-.4-1.3-.6-2.9-.6-4.6zm2.7 0c0 1.2.1 2.4.4 3.4s.6 2 1.1 2.9 1.1 1.5 1.9 2 1.7.7 2.8.7c1.9 0 3.5-.7 4.6-2.2s1.7-3.7 1.7-6.8c0-1.2-.1-2.3-.4-3.4-.2-1.1-.6-2-1.1-2.9-.5-.8-1.2-1.5-1.9-2s-1.7-.7-2.8-.7c-1.9 0-3.4.7-4.5 2.2-1.2 1.5-1.8 3.8-1.8 6.8z"/><path d="m394.1 613.4.5 3.6.5-3.7 4.5-14.6h1.2l4.5 14.6.5 3.6.6-3.7 3.7-14.6h2.5l-6.1 22.2h-1.4l-4.4-14.6-.6-3.3h-.2l-.6 3.3-4.4 14.6h-1.4l-6.2-22.2h2.7z"/><path d="m416.5 598.8h11.9v2.3h-9.3v7.1h8.5v2.3h-8.5v7.8h9.5v2.3h-12v-21.8z"/><path d="m433.2 599c.8-.1 1.7-.3 2.7-.3 1-.1 2-.1 2.8-.1 1 0 1.9.1 2.7.3.9.2 1.6.6 2.3 1 .7.5 1.2 1.1 1.6 1.9s.6 1.7.6 2.8c0 1.7-.5 3.1-1.4 4.2s-2.1 1.8-3.6 2.1l1.5 1.2 5.4 8.6h-3l-6-9.4-3.1-.5v9.9h-2.6v-21.7zm5.7 1.8c-.3 0-.6 0-.8 0-.3 0-.6 0-.8 0-.3 0-.5 0-.8.1-.2 0-.4.1-.6.1v8.1h2.4c1.4 0 2.6-.4 3.6-1.1.9-.7 1.4-1.8 1.4-3.3 0-1.1-.4-2-1.2-2.8-.8-.7-1.9-1.1-3.2-1.1z"/><path d="m452.2 598.8h11.9v2.3h-9.3v7.1h8.5v2.3h-8.5v7.8h9.5v2.3h-12v-21.8z"/><path d="m468.9 598.8c.4-.1.8-.1 1.3-.1s1-.1 1.5-.1 1.1 0 1.6 0h1.4c1.7 0 3.3.3 4.5.8s2.3 1.3 3.2 2.3c.8 1 1.5 2.1 1.9 3.5s.6 2.8.6 4.5c0 1.5-.2 2.9-.6 4.3s-1 2.6-1.8 3.6c-.8 1.1-1.9 1.9-3.2 2.5s-2.9 1-4.8 1c-.3 0-.8 0-1.3 0s-1.1 0-1.6-.1c-.6 0-1.1-.1-1.6-.1s-.8-.1-1-.1v-22zm5.9 2c-.3 0-.6 0-.9 0s-.6 0-1 0c-.3 0-.6 0-.9.1-.3 0-.5 0-.6.1v17.5h.6.9.9.6c1.5 0 2.7-.2 3.7-.7s1.8-1.2 2.4-2 1-1.8 1.3-2.9c.2-1.1.4-2.2.4-3.4 0-1-.1-2-.3-3.1s-.6-2-1.2-2.8-1.3-1.5-2.3-2-2.2-.8-3.6-.8z"/><path d="m512.4 603.8c0 .5-.1 1.1-.2 1.6-.2.5-.4 1-.7 1.5s-.8.9-1.3 1.2c-.5.4-1.1.6-1.8.8v.1c.6.1 1.2.3 1.8.5s1.1.6 1.5 1 .8 1 1.1 1.6.4 1.4.4 2.2c0 1.1-.2 2.1-.7 2.9s-1.1 1.5-1.8 2c-.8.5-1.6.9-2.6 1.2s-2 .4-3 .4c-.4 0-.8 0-1.2 0-.5 0-1 0-1.5 0s-1-.1-1.6-.1c-.5-.1-1-.1-1.4-.2v-21.5c.8-.1 1.7-.2 2.7-.3s2.1-.1 3.3-.1c.8 0 1.6.1 2.5.2s1.6.4 2.3.8 1.3.9 1.7 1.6c.3.6.5 1.5.5 2.6zm-9 4.6h1.3c.5 0 .9-.1 1.2-.1.5-.2 1-.4 1.4-.6s.8-.5 1.2-.8c.3-.3.6-.7.8-1.1s.3-.9.3-1.4c0-.7-.1-1.3-.4-1.7s-.6-.8-1-1.1-.9-.5-1.5-.6-1.1-.2-1.7-.2c-.7 0-1.3 0-1.9 0s-1 .1-1.3.1v7.4h1.6zm1.7 10.2c.7 0 1.3-.1 1.9-.2.6-.2 1.2-.4 1.7-.7s.9-.8 1.1-1.3c.3-.5.4-1.1.4-1.8 0-.9-.2-1.5-.5-2.1-.3-.5-.8-.9-1.3-1.2-.6-.3-1.2-.5-1.9-.6s-1.4-.2-2.1-.2h-2.7v7.8c.1 0 .4.1.6.1.3 0 .6 0 .9.1h1c.4.1.7.1.9.1z"/><path d="m522.4 612-7.2-13.2h3l5.1 9.6.5 1.9.6-2 4.9-9.5h2.7l-7.1 13.1v8.7h-2.6v-8.6z"/><path d="m551.9 609.2h8.1v9.7c-.9.7-1.9 1.3-3.1 1.6s-2.4.5-3.6.5c-1.4 0-2.7-.2-3.9-.7-1.2-.4-2.2-1.1-3.1-2s-1.6-2.1-2.1-3.5-.8-3.1-.8-5.1c0-2.1.3-3.8.9-5.3.6-1.4 1.4-2.6 2.3-3.5s2.1-1.6 3.3-2 2.4-.6 3.7-.6c1.2 0 2.3.1 3.3.3.9.2 1.7.4 2.3.6l-.9 3.6c-.5-.2-1.1-.4-1.7-.5s-1.5-.2-2.5-.2c-.9 0-1.7.1-2.5.4s-1.4.7-2 1.3-1 1.4-1.3 2.4-.5 2.1-.5 3.5c0 1.3.1 2.4.4 3.4.3.9.7 1.7 1.2 2.3s1.1 1.1 1.8 1.4 1.4.4 2.2.4c.5 0 1.1-.1 1.6-.2s1-.3 1.3-.6v-4.1l-4.7-.5v-2.6z"/><path d="m563.1 609.7c0-3.6.8-6.4 2.4-8.4s3.9-3 6.9-3c1.6 0 2.9.3 4.1.8s2.1 1.3 2.9 2.3 1.3 2.2 1.7 3.6.6 2.9.6 4.7c0 3.6-.8 6.4-2.4 8.4s-3.9 3-6.9 3c-1.6 0-3-.3-4.1-.8-1.2-.5-2.1-1.3-2.9-2.3s-1.3-2.2-1.7-3.6c-.5-1.4-.6-3-.6-4.7zm4.4 0c0 1.1.1 2.1.3 3s.5 1.7.9 2.4.9 1.2 1.5 1.6 1.3.6 2.2.6c1.5 0 2.7-.6 3.5-1.8s1.2-3.1 1.2-5.8c0-1.1-.1-2-.3-3-.2-.9-.5-1.7-.8-2.4-.4-.7-.9-1.2-1.5-1.6s-1.3-.6-2.2-.6c-1.5 0-2.7.6-3.5 1.8-.8 1.3-1.3 3.2-1.3 5.8z"/><path d="m591.9 611.6.6 3.7h.2l.6-3.7 4.2-12.8h4.5l-8.1 22h-3.1l-8.2-22h5z"/><path d="m620.8 602.6h-6.4v18h-4.3v-18h-6.4v-3.8h17v3.8z"/><path d="m623.7 598.8h13v3.8h-8.7v5.1h7.9v3.8h-7.9v5.3h8.8v3.8h-13.1z"/><path d="m655.1 619.7c-.7.5-1.5.8-2.5 1s-2.1.3-3.2.3c-1.3 0-2.6-.2-3.7-.6-1.2-.4-2.2-1.1-3.1-2s-1.6-2.1-2.1-3.5-.8-3.2-.8-5.3.3-3.9.9-5.4c.6-1.4 1.4-2.6 2.3-3.5s2-1.5 3.2-1.9 2.3-.6 3.5-.6 2.3.1 3.2.2c.9.2 1.6.4 2.1.6l-.8 3.6c-.5-.2-1-.4-1.7-.5s-1.5-.2-2.4-.2c-1.7 0-3.1.6-4.2 1.8s-1.6 3.1-1.6 5.7c0 1.1.1 2.2.4 3.1s.6 1.7 1.1 2.4 1.1 1.2 1.9 1.5c.8.4 1.6.5 2.6.5.9 0 1.7-.1 2.4-.3.6-.2 1.2-.4 1.7-.7z"/><path d="m670.5 611.5h-8v9.1h-4.3v-21.9h4.3v8.9h8v-8.9h4.3v21.9h-4.3z"/></g></svg>