<svg width="24" height="24" viewBox="0 0 24 24" fill="currentColor" xmlns="http://www.w3.org/2000/svg">
<path d="M3 7.5C3 6.90326 3.23705 6.33097 3.65901 5.90901C4.08097 5.48705 4.65326 5.25 5.25 5.25H18.75C19.3467 5.25 19.919 5.48705 20.341 5.90901C20.7629 6.33097 21 6.90326 21 7.5V16.5C21 17.0967 20.7629 17.669 20.341 18.091C19.919 18.5129 19.3467 18.75 18.75 18.75H5.25C4.65326 18.75 4.08097 18.5129 3.65901 18.091C3.23705 17.669 3 17.0967 3 16.5V7.5ZM5.25 6.375C4.95163 6.375 4.66548 6.49353 4.4545 6.7045C4.24353 6.91548 4.125 7.20163 4.125 7.5V7.74413L12 12.4691L19.875 7.74413V7.5C19.875 7.20163 19.7565 6.91548 19.5455 6.7045C19.3345 6.49353 19.0484 6.375 18.75 6.375H5.25ZM19.875 9.05588L14.5785 12.234L19.875 15.4931V9.05588ZM19.8367 16.7914L13.4918 12.8865L12 13.7809L10.5082 12.8865L4.16325 16.7903C4.22718 17.0296 4.36836 17.2412 4.56486 17.3922C4.76137 17.5431 5.00221 17.625 5.25 17.625H18.75C18.9976 17.625 19.2384 17.5434 19.4349 17.3926C19.6313 17.2419 19.7726 17.0306 19.8367 16.7914ZM4.125 15.4931L9.4215 12.234L4.125 9.05588V15.4931Z"/>
</svg>
