<svg width="48" height="48" viewBox="0 0 48 48" fill="none" xmlns="http://www.w3.org/2000/svg">
<circle cx="24" cy="24" r="24" fill="#9021a6"/>
<path d="M16.2528 24.9725V23.8319C16.2528 21.5526 14.4057 19.7055 12.1264 19.7055C9.84708 19.7055 8 21.5526 8 23.8319V27.072C8 29.2905 9.74991 31.0985 11.9448 31.1939V29.2805C11.9448 26.9049 13.8772 24.9725 16.2528 24.9725Z" fill="white"/>
<path d="M12.3081 29.28V31.1979H16.2529V25.3352C14.078 25.3352 12.3081 27.1051 12.3081 29.28Z" fill="white"/>
<path d="M22.8203 25.3289H18.6938V31.1998H22.8203V25.3289Z" fill="white"/>
<path d="M22.8203 17.6016C20.5409 17.6016 18.6938 19.4486 18.6938 21.728V24.9672H22.8203V17.6016Z" fill="white"/>
<path d="M29.3876 17.6016C27.1083 17.6016 25.2612 19.4486 25.2612 21.728V24.9672H29.3876V17.6016Z" fill="white"/>
<path d="M29.3876 25.3289H25.2612V31.1998H29.3876V25.3289Z" fill="white"/>
<path d="M36.3181 31.199C38.5974 31.199 40.4445 29.3519 40.4445 27.0726V25.3281H36.3181V31.199Z" fill="white"/>
<path d="M40.4445 19.7055C38.1652 19.7055 36.3181 21.5526 36.3181 23.8319V24.9643H40.4445V19.7055Z" fill="white"/>
<path d="M35.955 23.8319C35.955 21.5526 34.1079 19.7055 31.8286 19.7055V22.8439C31.8286 23.6194 32.0429 24.3441 32.4143 24.9643H35.955V23.8319Z" fill="white"/>
<path d="M35.9552 26.9709V25.3281H32.6597C33.4125 26.3261 34.6085 26.9709 35.9552 26.9709Z" fill="white"/>
</svg>
