<svg width="32" height="32" viewBox="0 0 32 32" fill="none" xmlns="http://www.w3.org/2000/svg">
<g id="check-circle" clip-path="url(#clip0_2333_21016)">
<path id="Vector" d="M16 30C12.287 30 8.72601 28.525 6.1005 25.8995C3.475 23.274 2 19.713 2 16C2 12.287 3.475 8.72601 6.1005 6.1005C8.72601 3.475 12.287 2 16 2C19.713 2 23.274 3.475 25.8995 6.1005C28.525 8.72601 30 12.287 30 16C30 19.713 28.525 23.274 25.8995 25.8995C23.274 28.525 19.713 30 16 30ZM16 32C20.2435 32 24.3131 30.3143 27.3137 27.3137C30.3143 24.3131 32 20.2435 32 16C32 11.7565 30.3143 7.68687 27.3137 4.68629C24.3131 1.68571 20.2435 0 16 0C11.7565 0 7.68687 1.68571 4.68629 4.68629C1.68571 7.68687 0 11.7565 0 16C0 20.2435 1.68571 24.3131 4.68629 27.3137C7.68687 30.3143 11.7565 32 16 32Z" fill="#9021a6"/>
<path id="Vector_2" d="M21.9402 9.94007C21.9259 9.95388 21.9126 9.96858 21.9002 9.98407L14.9542 18.8341L10.7682 14.6461C10.4838 14.3811 10.1077 14.2369 9.71914 14.2437C9.33054 14.2506 8.95977 14.408 8.68495 14.6828C8.41012 14.9577 8.2527 15.3284 8.24584 15.717C8.23898 16.1056 8.38323 16.4817 8.64819 16.7661L13.9402 22.0601C14.0828 22.2024 14.2525 22.3145 14.4394 22.3898C14.6262 22.4651 14.8263 22.5019 15.0277 22.4982C15.2291 22.4945 15.4277 22.4502 15.6116 22.3681C15.7955 22.2859 15.961 22.1676 16.0982 22.0201L24.0822 12.0401C24.354 11.7547 24.5027 11.3739 24.496 10.9798C24.4893 10.5858 24.3277 10.2102 24.0463 9.93426C23.7649 9.65835 23.3862 9.50429 22.9921 9.50538C22.5979 9.50646 22.2201 9.66262 21.9402 9.94007Z" fill="#9021a6"/>
</g>
<defs>
<clipPath id="clip0_2333_21016">
<rect width="32" height="32" fill="white"/>
</clipPath>
</defs>
</svg>
