<svg width="15" height="15" viewBox="0 0 15 15" fill="none" xmlns="http://www.w3.org/2000/svg">
<g clip-path="url(#clip0_2633_25750)">
<path d="M12.9505 2.90974C10.2185 0.174395 5.78636 0.171675 3.05098 2.90363C0.315639 5.63564 0.312885 10.0678 3.0449 12.8032C5.77685 15.5385 10.209 15.5412 12.9444 12.8092C15.6797 10.0773 15.6825 5.64508 12.9505 2.90974ZM7.99984 12.0971C7.62958 12.0971 7.32942 11.797 7.32942 11.4267C7.32942 11.0564 7.62955 10.7562 7.99984 10.7562C8.37011 10.7562 8.67027 11.0563 8.67027 11.4267C8.67023 11.7969 8.37011 12.0971 7.99984 12.0971ZM9.08982 8.06045C8.70686 8.28433 8.67413 8.55974 8.67248 9.35335C8.67238 9.40583 8.67221 9.45878 8.67191 9.51203C8.66953 9.88712 8.3648 10.1896 7.99021 10.1896C7.98873 10.1896 7.98725 10.1896 7.98581 10.1896C7.60927 10.1872 7.30599 9.88001 7.30834 9.50343C7.30867 9.45213 7.30877 9.40113 7.30887 9.3506C7.31055 8.53497 7.3126 7.51996 8.40163 6.88339C9.27545 6.37258 9.38558 6.03703 9.28311 5.59673C9.16271 5.07954 8.69041 4.94551 8.32186 4.98765C8.1981 5.00185 7.5809 5.10368 7.5809 5.71428C7.5809 6.09075 7.27563 6.39605 6.89909 6.39605C6.52255 6.39605 6.21732 6.09075 6.21732 5.71428C6.21732 4.62061 7.01875 3.76475 8.16627 3.63301C9.34811 3.49743 10.3528 4.17779 10.6111 5.28764C10.9971 6.9456 9.61147 7.75556 9.08982 8.06045Z" fill="#B5C5CA"/>
</g>
<defs>
<clipPath id="clip0_2633_25750">
<rect width="14" height="14" fill="white" transform="translate(0.997681 0.856445)"/>
</clipPath>
</defs>
</svg>
