<svg width="24" height="24" viewBox="0 0 24 24" fill="none" xmlns="http://www.w3.org/2000/svg">
<mask id="mask0_3334_3811" style="mask-type:luminance" maskUnits="userSpaceOnUse" x="4" y="4" width="16" height="16">
<path d="M20 4H4V20H20V4Z" fill="white"/>
</mask>
<g mask="url(#mask0_3334_3811)">
<path d="M17.6604 6.34662C14.5381 3.22051 9.47278 3.2174 6.34663 6.33964C3.22052 9.46194 3.21738 14.5273 6.33968 17.6534C9.46191 20.7795 14.5272 20.7826 17.6534 17.6603C20.7794 14.5381 20.7826 9.47272 17.6604 6.34662ZM12.0025 16.8465C11.5793 16.8465 11.2363 16.5035 11.2363 16.0803C11.2363 15.6571 11.5793 15.314 12.0025 15.314C12.4256 15.314 12.7687 15.657 12.7687 16.0803C12.7686 16.5034 12.4256 16.8465 12.0025 16.8465ZM13.2482 12.2331C12.8105 12.489 12.7731 12.8038 12.7712 13.7107C12.7711 13.7707 12.7709 13.8312 12.7705 13.8921C12.7678 14.3208 12.4196 14.6665 11.9915 14.6665H11.9864C11.5561 14.6637 11.2095 14.3126 11.2122 13.8823C11.2126 13.8236 11.2127 13.7654 11.2128 13.7076C11.2147 12.7755 11.2171 11.6154 12.4617 10.8879C13.4603 10.3042 13.5862 9.92067 13.4691 9.41747C13.3315 8.82639 12.7917 8.67322 12.3705 8.72138C12.2291 8.7376 11.5237 8.85398 11.5237 9.55181C11.5237 9.98206 11.1748 10.331 10.7445 10.331C10.3141 10.331 9.9653 9.98206 9.9653 9.55181C9.9653 8.3019 10.8812 7.32378 12.1927 7.17322C13.5433 7.01827 14.6916 7.79582 14.9868 9.06422C15.4279 10.959 13.8443 11.8847 13.2482 12.2331Z" fill="#c9c8c6"/>
</g>
</svg>
