<svg width="14" height="14" viewBox="0 0 14 14" fill="none" xmlns="http://www.w3.org/2000/svg">
<path d="M11.7155 2.2847L13.6667 0.334302V5.51889H8.47995L10.6668 3.33295C9.48139 2.15027 7.75137 1.57031 6.00412 1.91195C3.38325 2.42413 1.57931 4.84227 1.83662 7.49928C2.09393 10.1563 4.32745 12.1845 6.99834 12.185C9.29244 12.1856 11.3148 10.6796 11.9706 8.48143H13.5044C12.7503 11.79 9.62978 14.0038 6.25643 13.6243C2.88308 13.2449 0.333344 10.3929 0.333344 6.99988C0.333344 3.60682 2.88308 0.754824 6.25643 0.37541C8.33823 0.14154 10.3239 0.894813 11.716 2.28415L11.7155 2.2847Z" fill="#785EF0"/>
</svg>
