<svg width="29" height="28" viewBox="0 0 29 28" fill="none" xmlns="http://www.w3.org/2000/svg">
<g clip-path="url(#clip0_2749_23221)">
<path d="M14.5 26.25C11.2511 26.25 8.13526 24.9594 5.83794 22.6621C3.54062 20.3647 2.25 17.2489 2.25 14C2.25 10.7511 3.54062 7.63526 5.83794 5.33794C8.13526 3.04062 11.2511 1.75 14.5 1.75C17.7489 1.75 20.8647 3.04062 23.1621 5.33794C25.4594 7.63526 26.75 10.7511 26.75 14C26.75 17.2489 25.4594 20.3647 23.1621 22.6621C20.8647 24.9594 17.7489 26.25 14.5 26.25ZM14.5 28C18.213 28 21.774 26.525 24.3995 23.8995C27.025 21.274 28.5 17.713 28.5 14C28.5 10.287 27.025 6.72601 24.3995 4.10051C21.774 1.475 18.213 0 14.5 0C10.787 0 7.22601 1.475 4.60051 4.10051C1.975 6.72601 0.5 10.287 0.5 14C0.5 17.713 1.975 21.274 4.60051 23.8995C7.22601 26.525 10.787 28 14.5 28V28Z" fill="#97ADB5"/>
<path d="M20.3696 8.13048C20.2883 8.04899 20.1918 7.98434 20.0855 7.94023C19.9792 7.89612 19.8652 7.87341 19.7501 7.87341C19.635 7.87341 19.5211 7.89612 19.4148 7.94023C19.3085 7.98434 19.2119 8.04899 19.1306 8.13048L8.63063 18.6305C8.54927 18.7118 8.48474 18.8084 8.44071 18.9147C8.39668 19.021 8.37402 19.1349 8.37402 19.25C8.37402 19.365 8.39668 19.479 8.44071 19.5852C8.48474 19.6915 8.54927 19.7881 8.63063 19.8695C8.79493 20.0338 9.01777 20.1261 9.25013 20.1261C9.36518 20.1261 9.47911 20.1034 9.5854 20.0594C9.69169 20.0154 9.78827 19.9508 9.86963 19.8695L20.3696 9.36948C20.4511 9.2882 20.5158 9.19164 20.5599 9.08534C20.604 8.97903 20.6267 8.86507 20.6267 8.74998C20.6267 8.63488 20.604 8.52092 20.5599 8.41462C20.5158 8.30831 20.4511 8.21176 20.3696 8.13048V8.13048Z" fill="#97ADB5"/>
</g>
<defs>
<clipPath id="clip0_2749_23221">
<rect width="28" height="28" fill="white" transform="translate(0.5)"/>
</clipPath>
</defs>
</svg>
