<svg width="18" height="14" viewBox="0 0 18 14" fill="none" xmlns="http://www.w3.org/2000/svg">
<path fill-rule="evenodd" clip-rule="evenodd" d="M16.5789 2.8H1.42105V12.6H16.5789V2.8ZM18 0.933333V2.8V13.0667C18 13.5821 17.5758 14 17.0526 14H0.947369C0.424152 14 0 13.5821 0 13.0667V2.8V0.933333C0 0.417868 0.424152 0 0.947369 0H17.0526C17.5758 0 18 0.417868 18 0.933333ZM3.07895 2.33333C2.68653 2.33333 2.36842 2.01993 2.36842 1.63333C2.36842 1.24673 2.68653 0.933333 3.07895 0.933333C3.47136 0.933333 3.78947 1.24673 3.78947 1.63333C3.78947 2.01993 3.47136 2.33333 3.07895 2.33333ZM4.26316 1.63333C4.26316 2.01993 4.58127 2.33333 4.97368 2.33333C5.3661 2.33333 5.68421 2.01993 5.68421 1.63333C5.68421 1.24673 5.3661 0.933333 4.97368 0.933333C4.58127 0.933333 4.26316 1.24673 4.26316 1.63333ZM6.86842 2.33333C6.47601 2.33333 6.15789 2.01993 6.15789 1.63333C6.15789 1.24673 6.47601 0.933333 6.86842 0.933333C7.26083 0.933333 7.57895 1.24673 7.57895 1.63333C7.57895 2.01993 7.26083 2.33333 6.86842 2.33333Z" fill="#B5C5CA"/>
</svg>
